<?xml version="1.0" encoding="utf-8"?>
<!-- Generator: Adobe Illustrator 26.0.3, SVG Export Plug-In . SVG Version: 6.00 Build 0)  -->
<svg version="1.1" id="Layer_1" xmlns="http://www.w3.org/2000/svg" xmlns:xlink="http://www.w3.org/1999/xlink" x="0px" y="0px"
	 viewBox="0 0 2000 641" style="enable-background:new 0 0 2000 641;" xml:space="preserve">
<style type="text/css">
	.st0{fill:#FFFFFF;}
</style>
<g>
	<g>
		<path class="st0" d="M1986.1,438.2c-3.4,0-6.5,2.2-8.1,6.8c-20.5,58.5-48.2,93.3-71,93.3c-13.1,0-18.4-14.6-18.4-37.5
			c0-57.3,34.3-178.8,51.6-234.2c2-6.7,3.3-12.7,3.3-17.8c0-16.1-8.8-24-30.6-24c-23.5,0-48.8,9.2-73.4,52.3
			c-8.5-38-34.2-54.6-70.1-54.6c-41.5,0-81.6,26.7-114.6,70s-71.8,57.5-101,50.5c21-51.4,28.8-89.8,28.8-118.3
			c0-44.7-22.1-71.7-57.8-71.7c-54.3,0-85.6,51.8-85.6,106.3c0,42.1,19.1,85.4,61.1,106.4c-35.2,79.6-86.6,151.6-106.1,151.6
			c-25.2,0-32.6-123.3-31.2-211.5c0.9-50.6,5.1-53.2,5.1-68.5c0-8.8-5.7-14.8-28.6-14.8c-53.4,0-69.9,45.2-72.4,97.1
			c-0.8,19.7-3.9,39.3-9.2,58.3c-22.3,79.6-68.3,140-98.3,140c-13.9,0-17.7-13.9-17.7-32.1c0-57.3,32.1-128.9,32.1-190
			c0-44.9-19.7-73.3-56.8-73.3c-43.7,0-101.5,52-156.2,149.4c18-74.6,25.4-146.8-27.9-146.8c-11.6,0.2-22.9,3.1-33.1,8.6
			c-7,3.3-11.3,10.5-10.8,18.2c5.1,79.4-64,282.8-129.5,282.8c-11.9,0-17.7-12.9-17.7-33.7c0-57.4,34.2-178.6,51.4-234.1
			c2.2-7.2,3.4-13.4,3.4-18.8c0-15.2-9.4-23-30.7-23c-23.4,0-48.8,8.9-73.3,52c-8.6-38-34.3-54.6-70.2-54.6
			c-58.9,0-124.7,62.3-153.6,143.5c-38.7,108.4-116.7,213.1-221.7,213.1c-95.3,0-145.6-79.3-145.6-204.6
			c0-180.9,132.8-328.7,231.3-328.7c47.1,0,69.6,30,69.6,76c0,55.7-31.1,81.6-31.1,102.8c0,6.5,5.4,12.9,16.1,12.9
			c42.8,0,93.2-50.3,93.2-118.9S425.1-0.2,326.6-0.2C163.8-0.2,0,163.6,0,373.5c0,167,82.4,267.7,224.9,267.7
			c97.2,0,182.1-75.6,227.9-163.8c5.2,73.1,38.4,111.3,89,111.3c45,0,81.4-26.8,109.2-73.9c10.7,49.3,39.1,73.4,76,73.4
			c42.3,0,77.7-26.8,111.4-76.6c-0.5,39.1,8.4,75.9,42.3,75.9c16,0,35.1-3.7,38.5-17.7c35.7-147.6,123.9-268.1,150.9-268.1
			c8,0,10.2,7.7,10.2,16.8c0,40.1-28.3,122.3-28.3,174.8c0,56.7,24.1,94.2,73.9,94.2c55.2,0,111.3-67.6,148.7-166.4
			c11.7,92.3,37,166.8,76.6,166.8c48.6,0,134.9-102.3,187.2-210.6c20.5,2.6,51.3,1.9,80.9-19c-12.6,31.9-20,66.8-20,101.7
			c0,100.5,48,128.7,89.3,128.7c44.9,0,81.3-26.8,109.2-73.9c9.2,42.5,32.7,73.3,75.9,73.3c67.6,0,126.3-69.1,126.3-125.8
			C2000,447.3,1993.6,438.2,1986.1,438.2z M583,533c-27.3,0-38-27.5-38-68.5c0-71.2,48.7-190.1,100.2-190.1c22.5,0,31,26.5,31,58.9
			C676.2,405.6,629.9,533,583,533z M1518.1,320.5c-16.3-19.4-22.2-45.8-22.2-69.3c0-29,10.6-53.5,23.3-53.5
			c12.7,0,16.6,12.5,16.6,29.9C1535.8,256.7,1525.4,299.2,1518.1,320.5z M1729.8,533c-27.3,0-38-31.6-38-68.5
			c0-68.7,48.7-190.1,100.6-190.1c22.5,0,30.5,26.3,30.5,58.9C1822.9,405.6,1777.4,533,1729.8,533z"/>
	</g>
</g>
</svg>
