<?xml version="1.0" encoding="UTF-8" standalone="no"?><!DOCTYPE svg PUBLIC "-//W3C//DTD SVG 1.1//EN" "http://www.w3.org/Graphics/SVG/1.1/DTD/svg11.dtd"><svg width="100%" height="100%" viewBox="0 0 390 270" version="1.1" xmlns="http://www.w3.org/2000/svg" xmlns:xlink="http://www.w3.org/1999/xlink" xml:space="preserve" xmlns:serif="http://www.serif.com/" style="fill-rule:evenodd;clip-rule:evenodd;stroke-linejoin:round;stroke-miterlimit:2;"><rect id="_390-x-270-white-for-avatar" serif:id="390 x 270 white for avatar" x="0" y="0" width="390" height="270" style="fill:none;"/><g><path d="M25,226.626l0,-34.786l25.13,-0l0,8.339l-16.288,0l-0,7.557l14.777,0l0,7.779l-14.777,0l-0,7.612l16.344,0l0,8.397l-20.29,0c-2.704,0 -4.896,-2.194 -4.896,-4.898Z" style="fill:#fff;fill-rule:nonzero;"/><path d="M54.215,231.524l-0,-27.818l4.926,0c1.762,0 3.191,1.428 3.191,3.189c0.335,-0.596 0.802,-1.146 1.397,-1.65c0.596,-0.505 1.26,-0.933 1.989,-1.287c0.727,-0.355 1.49,-0.626 2.293,-0.812c0.802,-0.186 1.577,-0.279 2.324,-0.279c2.015,-0 3.712,0.383 5.094,1.147c1.379,0.766 2.426,1.837 3.133,3.218c1.083,-1.568 2.315,-2.686 3.694,-3.359c1.381,-0.671 3.023,-1.006 4.926,-1.006c1.305,-0 2.584,0.196 3.833,0.587c1.251,0.391 2.351,1.018 3.303,1.876c0.952,0.857 1.716,1.957 2.296,3.301c0.578,1.343 0.867,2.967 0.867,4.869l0,18.024l-8.228,0l0,-16.121c0,-1.305 -0.355,-2.414 -1.063,-3.329c-0.711,-0.915 -1.829,-1.371 -3.359,-1.371c-1.531,0 -2.687,0.485 -3.469,1.455c-0.785,0.97 -1.176,2.07 -1.176,3.301l0,16.065l-8.397,0l0,-16.121c0,-1.305 -0.353,-2.414 -1.063,-3.329c-0.708,-0.915 -1.846,-1.371 -3.413,-1.371c-1.493,0 -2.631,0.485 -3.415,1.455c-0.783,0.97 -1.177,2.09 -1.177,3.357l0,16.009l-8.506,0Z" style="fill:#fff;fill-rule:nonzero;"/><path d="M119.464,214.284c-0.035,-0.522 -0.158,-1.063 -0.362,-1.623c-0.207,-0.559 -0.532,-1.063 -0.98,-1.511c-0.448,-0.447 -1.017,-0.819 -1.706,-1.119c-0.692,-0.299 -1.539,-0.448 -2.547,-0.448c-0.896,-0 -1.68,0.149 -2.351,0.448c-0.672,0.3 -1.242,0.672 -1.707,1.119c-0.467,0.448 -0.821,0.952 -1.063,1.511c-0.244,0.56 -0.385,1.101 -0.42,1.623l11.136,-0Zm7.726,9.236c-0.337,1.194 -0.859,2.332 -1.567,3.412c-0.71,1.086 -1.605,2.026 -2.688,2.827c-1.083,0.803 -2.341,1.437 -3.778,1.904c-1.437,0.467 -3.032,0.699 -4.786,0.699c-1.902,0 -3.732,-0.335 -5.484,-1.008c-1.755,-0.671 -3.303,-1.641 -4.647,-2.908c-1.342,-1.27 -2.406,-2.819 -3.19,-4.646c-0.782,-1.827 -1.174,-3.918 -1.174,-6.27c0,-2.238 0.382,-4.262 1.148,-6.073c0.762,-1.808 1.79,-3.347 3.079,-4.618c1.286,-1.267 2.77,-2.246 4.448,-2.938c1.68,-0.69 3.415,-1.034 5.205,-1.034c4.329,-0 7.732,1.25 10.216,3.749c2.48,2.501 3.721,6.008 3.721,10.522c-0,0.598 -0.018,1.167 -0.056,1.708c-0.037,0.543 -0.074,0.85 -0.111,0.922l-19.367,0c0.036,0.785 0.233,1.504 0.589,2.156c0.353,0.653 0.82,1.224 1.397,1.707c0.579,0.485 1.242,0.859 1.988,1.121c0.747,0.26 1.53,0.39 2.351,0.39c1.567,0 2.789,-0.335 3.665,-1.007c0.878,-0.672 1.522,-1.547 1.932,-2.631l7.109,2.016Z" style="fill:#fff;fill-rule:nonzero;"/><path d="M148.171,212.102c-0.485,-0.113 -0.949,-0.186 -1.399,-0.223c-0.449,-0.039 -0.878,-0.058 -1.287,-0.058c-0.858,-0 -1.68,0.131 -2.462,0.392c-0.785,0.261 -1.475,0.692 -2.073,1.287c-0.597,0.598 -1.073,1.383 -1.428,2.352c-0.353,0.97 -0.53,2.145 -0.53,3.526l-0,12.146l-8.508,0l-0,-27.818l4.479,0c2.07,0 3.749,1.678 3.749,3.749c0.373,-0.783 0.849,-1.435 1.427,-1.958c0.578,-0.522 1.205,-0.933 1.876,-1.232c0.671,-0.297 1.351,-0.513 2.043,-0.643c0.689,-0.13 1.316,-0.195 1.873,-0.195c0.859,-0 1.604,0.093 2.24,0.279l-0,8.396Z" style="fill:#fff;fill-rule:nonzero;"/><path d="M163.053,222.96c1.753,0 3.181,-0.55 4.281,-1.653c1.102,-1.099 1.652,-2.6 1.652,-4.503c-0,-0.932 -0.159,-1.782 -0.475,-2.548c-0.318,-0.765 -0.746,-1.416 -1.287,-1.958c-0.542,-0.541 -1.176,-0.953 -1.903,-1.232c-0.727,-0.28 -1.483,-0.419 -2.268,-0.419c-0.782,0 -1.539,0.139 -2.268,0.419c-0.726,0.279 -1.369,0.691 -1.929,1.232c-0.559,0.542 -0.998,1.193 -1.316,1.958c-0.317,0.766 -0.474,1.616 -0.474,2.548c-0,1.903 0.568,3.404 1.706,4.503c1.138,1.103 2.565,1.653 4.281,1.653Zm-6.995,8.004c0.297,1.342 0.968,2.452 2.015,3.331c1.043,0.875 2.369,1.314 3.973,1.314c2.128,-0 3.806,-0.552 5.037,-1.651c1.232,-1.1 1.848,-2.92 1.848,-5.457l-0,-1.288c-0.522,0.747 -1.39,1.457 -2.603,2.128c-1.213,0.671 -2.827,1.008 -4.84,1.008c-1.869,-0 -3.584,-0.346 -5.151,-1.036c-1.567,-0.691 -2.93,-1.643 -4.086,-2.855c-1.156,-1.211 -2.062,-2.639 -2.714,-4.283c-0.652,-1.641 -0.979,-3.431 -0.979,-5.371c0,-1.828 0.316,-3.565 0.951,-5.206c0.634,-1.641 1.521,-3.089 2.659,-4.338c1.138,-1.249 2.5,-2.238 4.085,-2.967c1.586,-0.729 3.33,-1.091 5.235,-1.091c1.119,0 2.115,0.113 2.993,0.336c0.875,0.223 1.632,0.504 2.266,0.839c0.635,0.336 1.157,0.71 1.568,1.12c0.41,0.411 0.709,0.802 0.895,1.175c0,-1.638 1.328,-2.966 2.966,-2.966l5.15,0l0,24.347c0,2.015 -0.291,3.918 -0.867,5.708c-0.58,1.792 -1.474,3.376 -2.688,4.759c-1.212,1.38 -2.751,2.471 -4.617,3.274c-1.865,0.801 -4.105,1.202 -6.717,1.202c-2.014,0 -3.832,-0.278 -5.457,-0.838c-1.623,-0.56 -3.022,-1.307 -4.197,-2.24c-1.175,-0.933 -2.126,-1.996 -2.855,-3.19c-0.727,-1.195 -1.184,-2.407 -1.37,-3.638l7.5,-2.126Z" style="fill:#fff;fill-rule:nonzero;"/><path d="M199.379,214.284c-0.037,-0.522 -0.16,-1.063 -0.364,-1.623c-0.205,-0.559 -0.532,-1.063 -0.979,-1.511c-0.447,-0.447 -1.017,-0.819 -1.707,-1.119c-0.692,-0.299 -1.54,-0.448 -2.546,-0.448c-0.897,-0 -1.679,0.149 -2.35,0.448c-0.674,0.3 -1.244,0.672 -1.709,1.119c-0.466,0.448 -0.821,0.952 -1.063,1.511c-0.243,0.56 -0.383,1.101 -0.42,1.623l11.138,-0Zm7.723,9.236c-0.334,1.194 -0.858,2.332 -1.566,3.412c-0.709,1.086 -1.605,2.026 -2.689,2.827c-1.081,0.803 -2.34,1.437 -3.776,1.904c-1.438,0.467 -3.032,0.699 -4.787,0.699c-1.902,0 -3.731,-0.335 -5.484,-1.008c-1.753,-0.671 -3.303,-1.641 -4.645,-2.908c-1.342,-1.27 -2.407,-2.819 -3.19,-4.646c-0.785,-1.827 -1.176,-3.918 -1.176,-6.27c0,-2.238 0.383,-4.262 1.148,-6.073c0.764,-1.808 1.79,-3.347 3.077,-4.618c1.287,-1.267 2.772,-2.246 4.45,-2.938c1.68,-0.69 3.415,-1.034 5.205,-1.034c4.328,-0 7.734,1.25 10.216,3.749c2.48,2.501 3.719,6.008 3.719,10.522c0,0.598 -0.019,1.167 -0.053,1.708c-0.038,0.543 -0.075,0.85 -0.112,0.922l-19.366,0c0.036,0.785 0.233,1.504 0.588,2.156c0.355,0.653 0.82,1.224 1.398,1.707c0.578,0.485 1.241,0.859 1.987,1.121c0.748,0.26 1.53,0.39 2.351,0.39c1.567,0 2.788,-0.335 3.666,-1.007c0.877,-0.672 1.52,-1.547 1.932,-2.631l7.107,2.016Z" style="fill:#fff;fill-rule:nonzero;"/><path d="M218.911,231.524l-8.508,0l-0,-27.818l5.039,0c1.761,0 3.189,1.428 3.189,3.189c0.373,-0.671 0.858,-1.248 1.456,-1.734c0.596,-0.485 1.239,-0.886 1.93,-1.203c0.69,-0.318 1.419,-0.561 2.183,-0.728c0.764,-0.167 1.501,-0.251 2.212,-0.251c1.753,-0 3.264,0.288 4.532,0.866c1.27,0.581 2.324,1.372 3.162,2.379c0.84,1.008 1.455,2.183 1.848,3.527c0.392,1.343 0.587,2.78 0.587,4.31l0,17.463l-8.505,0l0,-16.009c0,-1.379 -0.366,-2.526 -1.094,-3.441c-0.727,-0.915 -1.873,-1.371 -3.441,-1.371c-1.418,0 -2.537,0.456 -3.357,1.371c-0.822,0.915 -1.233,2.08 -1.233,3.499l-0,15.951Z" style="fill:#fff;fill-rule:nonzero;"/><path d="M253.77,210.703c-0.896,0 -1.727,0.148 -2.491,0.447c-0.764,0.3 -1.437,0.746 -2.014,1.344c-0.581,0.597 -1.036,1.324 -1.373,2.182c-0.334,0.859 -0.503,1.848 -0.503,2.967c0,1.119 0.176,2.099 0.533,2.937c0.354,0.841 0.82,1.56 1.398,2.155c0.578,0.599 1.261,1.046 2.045,1.343c0.782,0.301 1.62,0.449 2.516,0.449c1.642,0 2.939,-0.428 3.891,-1.287c0.95,-0.858 1.576,-1.81 1.874,-2.857l7.501,2.296c-0.3,1.232 -0.813,2.426 -1.539,3.582c-0.728,1.158 -1.652,2.185 -2.77,3.08c-1.119,0.896 -2.426,1.623 -3.919,2.183c-1.493,0.559 -3.171,0.838 -5.038,0.838c-2.089,0 -4.039,-0.363 -5.847,-1.091c-1.811,-0.727 -3.387,-1.744 -4.731,-3.049c-1.344,-1.307 -2.407,-2.855 -3.192,-4.645c-0.782,-1.792 -1.172,-3.77 -1.172,-5.934c0,-2.165 0.38,-4.152 1.146,-5.961c0.763,-1.81 1.809,-3.368 3.134,-4.673c1.325,-1.307 2.872,-2.324 4.646,-3.051c1.773,-0.728 3.684,-1.091 5.736,-1.091c1.904,-0 3.621,0.27 5.151,0.811c1.528,0.541 2.855,1.258 3.972,2.156c1.121,0.894 2.034,1.929 2.744,3.104c0.708,1.175 1.211,2.38 1.509,3.612l-7.61,2.294c-0.151,-0.522 -0.374,-1.036 -0.671,-1.54c-0.299,-0.501 -0.671,-0.951 -1.119,-1.343c-0.45,-0.39 -0.991,-0.699 -1.625,-0.924c-0.633,-0.223 -1.363,-0.334 -2.182,-0.334Z" style="fill:#fff;fill-rule:nonzero;"/><path d="M287.776,203.706l-6.156,14.889l-6.772,-14.889l-9.516,0l11.697,24.066l-2.806,6.41l-4.614,0l-0,8.032l4.45,0c3.406,0 6.492,-2.006 7.876,-5.118l14.852,-33.39l-9.011,0Z" style="fill:#fff;fill-rule:nonzero;"/><path d="M317.831,211.654c-0,2.089 0.335,3.881 1.006,5.374c0.673,1.491 1.559,2.733 2.658,3.722c1.1,0.988 2.332,1.716 3.695,2.182c1.361,0.467 2.735,0.699 4.114,0.699c1.344,0 2.686,-0.224 4.031,-0.671l-5.821,-6.382l0.497,-0.415c3.006,-2.521 7.465,-2.222 10.108,0.677l1.091,1.194c0.485,-0.857 0.859,-1.809 1.121,-2.854c0.259,-1.044 0.39,-2.219 0.39,-3.526c0,-2.052 -0.334,-3.842 -1.006,-5.374c-0.673,-1.53 -1.548,-2.778 -2.632,-3.749c-1.082,-0.97 -2.303,-1.699 -3.665,-2.183c-1.361,-0.484 -2.735,-0.728 -4.114,-0.728c-1.379,0 -2.753,0.244 -4.114,0.728c-1.363,0.484 -2.595,1.213 -3.695,2.183c-1.099,0.971 -1.985,2.219 -2.658,3.749c-0.671,1.532 -1.006,3.322 -1.006,5.374Zm-9.179,0.055c-0,-3.133 0.55,-5.979 1.651,-8.535c1.1,-2.556 2.591,-4.738 4.476,-6.549c1.885,-1.808 4.078,-3.199 6.579,-4.169c2.498,-0.97 5.148,-1.456 7.946,-1.456c2.799,0 5.437,0.486 7.921,1.456c2.481,0.97 4.663,2.361 6.549,4.169c1.882,1.811 3.377,3.993 4.476,6.549c1.1,2.556 1.652,5.402 1.652,8.535c-0,2.687 -0.394,5.132 -1.177,7.332c-0.782,2.203 -1.883,4.162 -3.301,5.878l4.869,5.318l-0.4,0.337c-3.023,2.557 -7.531,2.26 -10.189,-0.674l-0.102,-0.111c-3.095,1.716 -6.53,2.573 -10.298,2.573c-2.798,0 -5.448,-0.484 -7.946,-1.454c-2.501,-0.97 -4.694,-2.36 -6.579,-4.171c-1.885,-1.808 -3.376,-3.982 -4.476,-6.521c-1.101,-2.536 -1.651,-5.372 -1.651,-8.507Z" style="fill:#fff;fill-rule:nonzero;"/><path d="M355.397,192.579l-0,4.734l-1.34,-0l0,-4.734l-1.849,-0l-0,-1.28l5.047,-0l0,1.28l-1.858,-0Z" style="fill:#fff;fill-rule:nonzero;"/><path d="M363.684,197.313l0,-3.988l-1.568,3.988l-1.087,-0l-1.568,-3.937l-0,3.937l-1.273,-0l-0,-6.014l1.747,-0l1.654,4.062l1.57,-4.062l1.841,-0l-0,6.014l-1.316,-0Z" style="fill:#fff;fill-rule:nonzero;"/></g><g><path d="M202.261,85.792l0,-25.713c0,-1.31 -1.062,-2.371 -2.372,-2.371l-21.448,0c-1.31,0 -2.371,1.061 -2.371,2.371l-0,25.713l-25.713,-0c-1.309,-0 -2.37,1.06 -2.37,2.37l-0,21.448c-0,1.31 1.061,2.373 2.37,2.373l25.713,-0l-0,25.71c-0,1.31 1.061,2.373 2.371,2.373l21.448,0c1.31,0 2.372,-1.063 2.372,-2.373l0,-25.71l25.711,-0c1.31,-0 2.373,-1.063 2.373,-2.373l-0,-21.448c-0,-1.31 -1.063,-2.37 -2.373,-2.37l-25.711,-0Z" style="fill:#fff;fill-rule:nonzero;"/><path d="M231.66,134.346c-2.834,-0 -5.193,1.459 -6.318,3.906c-1.627,3.545 -0.243,8.399 3.7,12.987c0.658,0.763 1.357,1.489 2.095,2.174c0.804,-0.662 1.596,-1.349 2.374,-2.059c4.861,-4.429 5.74,-9.756 4.458,-13.071c-0.695,-1.796 -2.354,-3.937 -6.309,-3.937Zm-42.775,43.427c-43.497,-0 -78.885,-35.389 -78.885,-78.888c0,-43.495 35.388,-78.885 78.885,-78.885c43.499,0 78.888,35.39 78.888,78.885c-0,5.084 -0.487,10.17 -1.447,15.118c-0.527,2.716 -3.153,4.489 -5.868,3.959c-2.715,-0.525 -4.489,-3.153 -3.959,-5.866c0.837,-4.321 1.263,-8.765 1.263,-13.211c0,-37.977 -30.898,-68.873 -68.877,-68.873c-37.977,0 -68.874,30.896 -68.874,68.873c-0,37.979 30.897,68.875 68.874,68.875c12.724,0 24.072,-2.863 33.892,-8.537c-0.452,-0.471 -0.896,-0.958 -1.326,-1.458c-6.565,-7.634 -8.512,-16.49 -5.205,-23.688c2.757,-6.009 8.664,-9.742 15.414,-9.742c7.292,0 13.141,3.862 15.644,10.332c3.071,7.932 0.303,17.387 -7.05,24.087c-0.166,0.152 -0.333,0.304 -0.5,0.453c15.028,7.36 34.757,6.572 35.008,6.558c2.756,-0.103 5.104,2.005 5.232,4.765c0.131,2.758 -1.997,5.102 -4.757,5.234c-1.255,0.062 -26.148,1.09 -44.124,-9.907c-12.071,7.914 -26.226,11.916 -42.228,11.916Z" style="fill:#fff;fill-rule:nonzero;"/></g></svg>