<?xml version="1.0" standalone="no"?>
<!DOCTYPE svg PUBLIC "-//W3C//DTD SVG 1.1//EN" "http://www.w3.org/Graphics/SVG/1.1/DTD/svg11.dtd">
<svg xmlns="http://www.w3.org/2000/svg" width="300" height="120" viewBox="0 0 300 120" fill="none">
<path d="M118.54 0H0V17.5704L92.7337 6.28536L0 32.1411V119.136H118.54V0Z" fill="#242424"/>
<path d="M158.061 87.4947V42.8445H140.913V30.9905H189.04V42.8445H171.891V87.4947H158.061Z" fill="#242424"/>
<path d="M192.292 41.6591V30.9905H205.647V41.6591H192.292ZM192.133 87.4947V46.7959H205.805V87.4947H192.133Z" fill="#242424"/>
<path d="M209.616 67.1058C209.616 54.2244 217.36 45.8475 228.187 45.8475C236.406 45.8475 238.856 49.0876 238.856 49.0876H239.014C239.014 49.0876 238.935 48.2974 238.935 47.27V30.9905H252.606V87.4947H239.804V84.8078C239.804 83.5434 239.883 82.516 239.883 82.516H239.725C239.725 82.516 236.327 88.443 227.95 88.443C216.886 88.443 209.616 79.7501 209.616 67.1058ZM223.366 67.1058C223.366 73.1908 226.607 77.1422 231.348 77.1422C235.458 77.1422 239.33 74.1392 239.33 67.1058C239.33 62.2061 236.722 57.3855 231.348 57.3855C227.081 57.3855 223.366 60.8626 223.366 67.1058Z" fill="#242424"/>
<path d="M256.851 101.245L261.198 91.209C261.198 91.209 263.411 92.7105 265.386 92.7105C267.599 92.7105 270.523 92.0783 271.945 88.6011L272.736 86.7044L255.429 46.7959H270.918L276.924 65.5252C277.635 67.738 278.426 71.8474 278.426 71.8474H278.584C278.584 71.8474 279.374 67.9751 279.927 65.7623L285.064 46.7959H300L283.325 91.8412C279.927 100.929 272.815 104.09 266.335 104.09C260.961 104.09 256.851 101.245 256.851 101.245Z" fill="#242424"/>
</svg>