<?xml version="1.0" encoding="UTF-8"?>
<svg version="1.1" xmlns="http://www.w3.org/2000/svg" width="524" height="476">
<path d="M0 0 C10.29935747 8.80522533 18.47904193 19.91898567 19.75 33.75 C20.54248451 45.63726764 17.01501806 55.62493875 9.1875 64.625 C8.13558417 65.75990279 7.07699268 66.88886634 6 68 C7.42625353 71.84075651 9.21586005 75.25283737 11.29296875 78.78125 C11.92267578 79.87050781 12.55238281 80.95976562 13.20117188 82.08203125 C14.52835894 84.36578481 15.86435515 86.64444108 17.20898438 88.91796875 C18.14774414 90.55185547 18.14774414 90.55185547 19.10546875 92.21875 C19.68449951 93.20810547 20.26353027 94.19746094 20.86010742 95.21679688 C22.14777186 98.36080515 22.01548942 99.8104384 21 103 C15.5706597 104.1579465 12.66726854 103.89251599 7.7265625 101.39453125 C6.5715625 100.82283203 5.4165625 100.25113281 4.2265625 99.66210938 C3.02572811 99.04618385 1.82520883 98.42964362 0.625 97.8125 C-0.56686445 97.21381183 -1.75956844 96.61679195 -2.953125 96.02148438 C-5.25539534 94.87163109 -7.55717004 93.72078478 -9.85839844 92.56884766 C-10.89512695 92.05112793 -11.93185547 91.5334082 -13 91 C-13.88461914 90.55317871 -14.76923828 90.10635742 -15.68066406 89.64599609 C-19.95637051 87.56571201 -19.95637051 87.56571201 -24.6015625 87.0390625 C-27.91951563 88.36840529 -31.16156127 89.81344945 -34.375 91.375 C-49.48765155 98.62415806 -49.48765155 98.62415806 -55 99 C-55.99 98.34 -56.98 97.68 -58 97 C-57.67337492 93.5159991 -56.63220231 91.31564261 -54.6875 88.5 C-48.67536683 79.16721189 -46.36491288 67.95882818 -48 57 C-53.11086925 41.72157107 -66.64779254 32.01289897 -80.57446289 25.01025391 C-88.44526914 21.27030587 -96.48958855 18.85138775 -105 17 C-105.89847656 16.80277344 -106.79695312 16.60554688 -107.72265625 16.40234375 C-112.60670714 15.80275228 -117.45994075 15.89627692 -122.375 15.9375 C-123.90833984 15.94426758 -123.90833984 15.94426758 -125.47265625 15.95117188 C-127.98183194 15.962897 -130.4908849 15.97930824 -133 16 C-132.38181396 16.06993164 -131.76362793 16.13986328 -131.12670898 16.21191406 C-103.45745064 19.40639735 -74.53331332 25.24598544 -56.125 48.3125 C-51.00390064 56.2037314 -48.703953 65.70052878 -50 75 C-53.18579278 88.42180154 -61.7256169 98.41639087 -73 106 C-80.80689598 110.80198544 -89.23849784 114.30370317 -97.875 117.3125 C-98.52033691 117.54291992 -99.16567383 117.77333984 -99.83056641 118.01074219 C-113.36824064 122.43133972 -127.51811634 123.50333446 -141.65942383 123.39111328 C-144.06584075 123.3749776 -146.47058509 123.39111041 -148.87695312 123.41015625 C-163.49038 123.4301395 -177.10477351 121.18012497 -191.046875 116.76953125 C-197.00827205 115.21609842 -200.18206039 116.28664803 -205.6875 119 C-207.01105828 119.63809055 -208.33530974 120.27474474 -209.66015625 120.91015625 C-210.35898926 121.24805176 -211.05782227 121.58594727 -211.77783203 121.93408203 C-215.70475993 123.81773037 -219.65939404 125.63697945 -223.625 127.4375 C-224.76134888 127.96827148 -224.76134888 127.96827148 -225.9206543 128.50976562 C-232.91948963 131.67502867 -232.91948963 131.67502867 -237 131 C-239 129 -239 129 -239.0625 126 C-238.26855099 121.47916091 -235.66643981 118.321639 -232.98828125 114.6953125 C-230.92017287 111.89178641 -228.97062058 109.03964448 -227.0625 106.125 C-226.47597656 105.24070313 -225.88945312 104.35640625 -225.28515625 103.4453125 C-223.68985211 100.87028042 -223.68985211 100.87028042 -224 97 C-225.15496078 95.29360681 -225.15496078 95.29360681 -226.75 93.75 C-233.89264119 85.91504607 -235.56995031 77.53929326 -235.32421875 67.20703125 C-234.65915561 55.14631487 -227.43722008 46.88621795 -219 39 C-202.64666379 24.83074876 -179.99987222 19.2952552 -159 17 C-159 16.34 -159 15.68 -159 15 C-158.19287861 6.03474399 -150.98162025 0.5227926 -144.5 -5.125 C-105.3748403 -35.18383187 -37.48320333 -30.25935148 0 0 Z " fill="#86C7AF" transform="translate(374,53)"/>
<path d="M0 0 C6.17028547 4.99318486 9.64289522 10.4138928 13.28808594 17.30444336 C16.03785353 22.46355972 19.19276654 26.7664906 23.01953125 31.203125 C25.76451998 34.4259329 28.26052843 37.8202547 30.76220703 41.23364258 C31.98807591 42.90550384 33.22477528 44.56947765 34.47216797 46.2253418 C37.1251176 49.76910162 39.64765059 53.18906236 41.62109375 57.16015625 C43.69125939 60.93516417 44.9760385 62.93120781 48.6015625 65.3046875 C54.94519338 66.55830162 61.33092973 66.38408773 67.765625 66.21484375 C74.38433737 66.11011895 78.33225174 67.33795151 83.4140625 71.7421875 C87.55891539 76.5975866 88.0527195 80.25731968 87.91015625 86.546875 C87.42681659 90.86634086 86.32736214 92.87996488 83.6015625 96.3046875 C77.51570763 100.92202983 71.80473323 101.47132044 64.3984375 101.54296875 C63.60181702 101.5510405 62.80519653 101.55911224 61.98443604 101.56742859 C60.30003006 101.58123638 58.61559648 101.59197326 56.93115234 101.59985352 C55.21850312 101.61136195 53.50588944 101.6317959 51.79345703 101.66137695 C49.30737149 101.7042901 46.82234857 101.72025495 44.3359375 101.73046875 C43.58044617 101.74797684 42.82495483 101.76548492 42.04656982 101.78352356 C35.0465401 101.75536408 29.83393731 99.54669846 24.88671875 94.578125 C24.15324219 93.62164062 23.41976562 92.66515625 22.6640625 91.6796875 C21.53677734 90.23722656 21.53677734 90.23722656 20.38671875 88.765625 C18.6015625 86.3046875 18.6015625 86.3046875 17.6015625 84.3046875 C17.61155525 85.48953484 17.61155525 85.48953484 17.62174988 86.69831848 C17.68215579 94.18539081 17.72768544 101.672343 17.75699902 109.15959644 C17.77257664 113.00779021 17.79366797 116.85578064 17.82788086 120.70385742 C17.86075954 124.42566073 17.87847475 128.14726991 17.88619423 131.86920738 C17.89168711 133.28080992 17.90241153 134.69240325 17.91875267 136.10392189 C18.08212434 150.81661096 15.52078896 162.74538781 5.6015625 173.9921875 C-3.80223092 182.88881004 -15.77332785 185.81065399 -28.28125 185.58203125 C-39.11327566 185.08289389 -48.84650148 179.36020532 -56.1484375 171.5546875 C-64.82588509 161.00484403 -66.68111233 149.89793603 -66.8125 136.6328125 C-66.83204742 135.38519135 -66.85159485 134.13757019 -66.87173462 132.85214233 C-66.92215003 129.45838343 -66.96380334 126.06476783 -67.00013733 122.67084503 C-67.02349674 120.54930762 -67.0497735 118.4278262 -67.07702637 116.30633545 C-67.19027215 107.45929594 -67.28133447 98.61219194 -67.35876465 89.76477051 C-67.38458917 86.81479749 -67.41231697 83.86485353 -67.4420166 80.91491699 C-67.52590973 72.56143334 -67.59147237 64.20820076 -67.62860107 55.85437012 C-67.64174653 53.25351136 -67.65963304 50.65267192 -67.68243408 48.05187988 C-67.71218724 44.41988252 -67.72205803 40.78835521 -67.7265625 37.15625 C-67.73885895 36.09852386 -67.7511554 35.04079773 -67.76382446 33.95101929 C-67.72654338 21.36413712 -63.90177512 12.18778206 -55.2578125 3.0390625 C-39.64015348 -11.70488133 -17.34558703 -12.26056152 0 0 Z " fill="#88C7B0" transform="translate(112.3984375,260.6953125)"/>
<path d="M0 0 C10.34247546 8.61570012 14.6874311 18.7241399 16 32 C16.10723056 34.47648918 16.17443161 36.95497664 16.20532227 39.43359375 C16.22015467 40.48120691 16.22015467 40.48120691 16.23528671 41.54998398 C16.26664709 43.8457895 16.29160042 46.14161507 16.31640625 48.4375 C16.33723666 50.06748897 16.35841819 51.69747348 16.37992859 53.32745361 C16.4356981 57.65980846 16.48543629 61.99220961 16.53303528 66.32466125 C16.56249931 68.99993774 16.59295092 71.67520137 16.62365723 74.35046387 C16.73306525 83.9316475 16.83445791 93.51288774 16.92922783 103.09422684 C16.97693688 107.8708524 17.03090234 112.64734209 17.09130859 117.42382812 C17.15197407 122.22538231 17.1998859 127.02677754 17.23117065 131.82861328 C17.24354673 133.42013292 17.26091504 135.01162301 17.28372192 136.60302734 C17.48295377 151.09061776 14.81458965 162.58412585 5 173.6875 C-3.92174439 182.10914661 -15.499671 185.41803456 -27.4609375 185.26953125 C-39.15568213 184.37887189 -48.66843222 179.45255316 -56.83984375 171.125 C-66.21850389 159.67014791 -67.12482046 146.75840131 -67.31640625 132.62890625 C-67.33718735 131.35144028 -67.35796844 130.0739743 -67.37937927 128.75779724 C-67.43349454 125.38281381 -67.48380121 122.00781821 -67.53222656 118.63275146 C-67.58271279 115.18024692 -67.6382564 111.72782402 -67.69335938 108.27539062 C-67.80020814 101.51699237 -67.90203222 94.75853251 -68 88 C-68.59425781 88.78890625 -69.18851562 89.5778125 -69.80078125 90.390625 C-73.94298264 95.30535062 -78.90383123 96.17928888 -85.06323242 96.79931641 C-90.95891529 97.20219705 -96.8586651 97.26416537 -102.76586914 97.29516602 C-104.29884026 97.30673622 -105.83176954 97.32726697 -107.36450195 97.35668945 C-125.02315651 97.69428415 -125.02315651 97.69428415 -131.53515625 91.55200195 C-135.69126905 86.95234856 -136.37236401 83.26088885 -136.28125 77.15625 C-135.61989878 72.08589064 -133.18808532 68.18808532 -129.625 64.625 C-124.56898678 61.49508706 -120.40564788 60.7759149 -114.52734375 61.25390625 C-101.51600659 62.35861599 -101.51600659 62.35861599 -89.55419922 58.35449219 C-85.462722 54.01994685 -82.87800297 48.88963926 -80.31201172 43.55371094 C-78.27077495 39.58063007 -75.59693441 36.13619724 -72.9375 32.5625 C-69.08503792 27.12933422 -66.75570291 22.13081129 -64.9375 15.6796875 C-63.29744234 10.99185603 -60.36239323 7.58333078 -57 4 C-56.10474609 3.04287109 -56.10474609 3.04287109 -55.19140625 2.06640625 C-39.97270664 -12.64605803 -16.44398971 -12.25673432 0 0 Z " fill="#87C7AF" transform="translate(454,262)"/>
<path d="M0 0 C1.093125 0.495 2.18625 0.99 3.3125 1.5 C12.63691405 6.70432412 19.75736448 15.86464184 23 26 C26.29933899 37.77305116 25.52801009 50.02340525 20 61 C12.48938978 73.1965779 3.88654025 80.15203434 -9.875 84.3125 C-22.00816845 86.85774715 -34.18072323 84.68293798 -44.8125 78.375 C-46.3903125 77.199375 -46.3903125 77.199375 -48 76 C-48 75.34 -48 74.68 -48 74 C-48.61875 73.7525 -49.2375 73.505 -49.875 73.25 C-52.35068687 71.79371361 -52.95125002 70.62187494 -54 68 C-54.66 68 -55.32 68 -56 68 C-63.41000536 55.34734262 -67.08787258 43.70361688 -63.875 29 C-60.39418397 16.22606192 -52.23752176 6.70678683 -41 0 C-29.25260953 -6.54552312 -11.70417229 -6.6091322 0 0 Z " fill="#87C7B0" transform="translate(447,162)"/>
<path d="M0 0 C0.93102539 0.00757324 1.86205078 0.01514648 2.82128906 0.02294922 C9.46289928 0.18274911 14.87296573 0.91629271 20.625 4.4375 C21.38554688 4.87320313 22.14609375 5.30890625 22.9296875 5.7578125 C33.78253451 12.44492025 40.62856133 20.97366231 44.18066406 33.37792969 C46.72282517 45.16126545 44.98032893 58.06391829 38.89453125 68.3671875 C31.51902023 79.23171272 21.93175551 85.90094646 9.1171875 89.0546875 C-4.21480138 91.10254786 -16.24882422 87.89440505 -27.375 80.4375 C-36.09116987 73.42535642 -42.53463248 63.55638709 -44.375 52.4375 C-45.55214833 37.3144138 -42.38737138 25.444603 -32.6875 13.75 C-23.83579615 4.19816139 -12.8096213 -0.14530179 0 0 Z " fill="#88C7B0" transform="translate(88.375,157.5625)"/>
<path d="M0 0 C0 0.66 0 1.32 0 2 C1.60875 1.814375 1.60875 1.814375 3.25 1.625 C9.51235116 1.55742067 14.68152462 5.02165378 20 8 C20 8.99 20 9.98 20 11 C16.16988026 11 13.58808818 9.43032861 10.25 7.75 C2.69818741 4.07925022 -4.79545621 1.78484812 -13 0 C-13.89847656 -0.19722656 -14.79695313 -0.39445312 -15.72265625 -0.59765625 C-20.60670714 -1.19724772 -25.45994075 -1.10372308 -30.375 -1.0625 C-31.90833984 -1.05573242 -31.90833984 -1.05573242 -33.47265625 -1.04882812 C-35.98183194 -1.037103 -38.4908849 -1.02069176 -41 -1 C-40.38181396 -0.93006836 -39.76362793 -0.86013672 -39.12670898 -0.78808594 C-7.74800763 2.83466158 -7.74800763 2.83466158 0 8 C-2.31 8 -4.62 8 -7 8 C-7 7.34 -7 6.68 -7 6 C-7.76699219 5.96261719 -8.53398437 5.92523438 -9.32421875 5.88671875 C-16.78764187 5.44463445 -24.05392939 4.58139585 -31.4375 3.4375 C-45.80837064 1.05711272 -45.80837064 1.05711272 -60 3 C-63.58072421 3.30987036 -67.16210014 3.50945584 -70.75 3.71875 C-74.0092931 3.87350971 -74.0092931 3.87350971 -77 5 C-79.73289293 5.22797562 -82.45042204 5.41668187 -85.1875 5.5625 C-86.31188477 5.62727539 -86.31188477 5.62727539 -87.45898438 5.69335938 C-89.30578375 5.79922685 -91.15286834 5.9000976 -93 6 C-89.52811707 3.68541138 -86.89996869 3.22055569 -82.8125 2.4375 C-82.14138184 2.30674072 -81.47026367 2.17598145 -80.77880859 2.04125977 C-77.23623015 1.36507407 -73.71235213 0.80342299 -70.125 0.4375 C-69.09375 0.293125 -68.0625 0.14875 -67 0 C-66.67 -0.66 -66.34 -1.32 -66 -2 C-63.93725586 -2.41064453 -63.93725586 -2.41064453 -61.21484375 -2.6328125 C-60.21775391 -2.71700439 -59.22066406 -2.80119629 -58.19335938 -2.88793945 C-57.11892578 -2.96616943 -56.04449219 -3.04439941 -54.9375 -3.125 C-53.83857422 -3.2077417 -52.73964844 -3.2904834 -51.60742188 -3.37573242 C-12.35198405 -6.17599203 -12.35198405 -6.17599203 0 0 Z " fill="#C6E0D6" transform="translate(282,70)"/>
<path d="M0 0 C5.05154969 9.2361561 4.27296212 20.2895121 4.1953125 30.51171875 C4.19157297 31.97573145 4.18873045 33.43974669 4.18673706 34.90376282 C4.17917447 38.71938229 4.15959129 42.53484459 4.1373291 46.35040283 C4.11670988 50.2589709 4.1077013 54.16756486 4.09765625 58.07617188 C4.07633683 65.71751884 4.04229242 73.35873723 4 81 C3.67 81 3.34 81 3 81 C1.92067051 74.1127199 1.80912449 67.29593708 1.73963928 60.33218575 C1.71839196 58.2182847 1.69139839 56.10452326 1.66296387 53.9907074 C1.59358817 48.7506521 1.53351872 43.51049918 1.47393799 38.27032471 C1.42307883 33.82115581 1.36834006 29.3720699 1.30812073 24.9230175 C1.28151701 22.83733939 1.26073552 20.75165339 1.2401123 18.66590881 C1.22339478 17.41047775 1.20667725 16.15504669 1.18945312 14.86157227 C1.17692505 13.75096939 1.16439697 12.64036652 1.15148926 11.49610901 C1.28043199 9.05944115 1.28043199 9.05944115 0 8 C-0.14115161 5.32941149 -0.04247107 2.67567762 0 0 Z " fill="#BCDED2" transform="translate(466,279)"/>
<path d="M0 0 C0.66 0 1.32 0 2 0 C2.20625 1.11375 2.4125 2.2275 2.625 3.375 C3.07875 4.57125 3.5325 5.7675 4 7 C6.89190405 8.40844651 6.89190405 8.40844651 10 9 C10.99 9.66 11.98 10.32 13 11 C15.69533436 11.44522131 15.69533436 11.44522131 18.76171875 11.58984375 C19.9223584 11.66315918 21.08299805 11.73647461 22.27880859 11.81201172 C28.45514431 12.12402973 34.63152587 12.36437103 40.8125 12.5625 C42.08931641 12.60568359 43.36613281 12.64886719 44.68164062 12.69335938 C47.7876865 12.79805755 50.89379246 12.90023438 54 13 C50.17568939 15.51731542 46.21278268 15.32306636 41.796875 15.3359375 C40.60194427 15.3459227 40.60194427 15.3459227 39.38287354 15.35610962 C37.69846906 15.36622091 36.01402464 15.37092711 34.32958984 15.37060547 C31.772426 15.3749618 29.217013 15.41124807 26.66015625 15.44921875 C25.01823502 15.45509091 23.37630565 15.45905763 21.734375 15.4609375 C20.97888367 15.47530853 20.22339233 15.48967957 19.44500732 15.50448608 C13.87548125 15.45736253 9.67529717 14.05157147 5 11 C2.6875 8.640625 2.6875 8.640625 1 6.25 C0.4225 5.45078125 -0.155 4.6515625 -0.75 3.828125 C-1.1625 3.22484375 -1.575 2.6215625 -2 2 C-1.34 1.34 -0.68 0.68 0 0 Z " fill="#C3DED5" transform="translate(135,347)"/>
<path d="M0 0 C0.66 0 1.32 0 2 0 C1.60108883 4.3880229 -0.17040717 6.78383297 -2.73828125 10.17578125 C-4.62814481 12.9081846 -5.72181588 15.94347276 -7 19 C-8.2152253 21.15512612 -9.49985184 23.01593308 -11 25 C-11.66 25 -12.32 25 -13 25 C-13 26.32 -13 27.64 -13 29 C-10.525 29.99 -10.525 29.99 -8 31 C-10 33 -10 33 -12.5 33.25 C-15 33 -15 33 -17 31 C-17.12686559 24.91045186 -14.53293717 21.48223294 -10.98046875 16.69921875 C-8.28963956 13.03183617 -5.90062524 9.19664654 -3.48046875 5.34765625 C-2.34598944 3.54865343 -1.17975936 1.76963904 0 0 Z " fill="#A6CEBE" transform="translate(152,151)"/>
<path d="M0 0 C1.18771723 3.42943519 0.80226223 5.37784675 -0.4375 8.75 C-0.72496094 9.54921875 -1.01242187 10.3484375 -1.30859375 11.171875 C-1.53675781 11.77515625 -1.76492188 12.3784375 -2 13 C-0.02 13 1.96 13 4 13 C4 13.66 4 14.32 4 15 C5.98 14.34 7.96 13.68 10 13 C10.66 13.66 11.32 14.32 12 15 C6.43022079 17.65595953 1.10463798 19.94747621 -5 21 C-5.99 20.34 -6.98 19.68 -8 19 C-7.57976939 14.51754021 -5.61421837 11.66439474 -3.2109375 8.00390625 C-1.6714002 5.45622034 -0.78693356 2.86157656 0 0 Z " fill="#9ECCBC" transform="translate(324,131)"/>
<path d="M0 0 C2.9375 0.8125 2.9375 0.8125 6 2 C6.33 2.99 6.66 3.98 7 5 C8.99117408 5.69258229 10.9921136 6.35747635 13 7 C14.75 8.5625 14.75 8.5625 16 10 C18.594718 11.297359 20.76785439 11.31574654 23.6640625 11.53515625 C25.34628906 11.66567383 25.34628906 11.66567383 27.0625 11.79882812 C28.8259375 11.9293457 28.8259375 11.9293457 30.625 12.0625 C31.80835938 12.15337891 32.99171875 12.24425781 34.2109375 12.33789062 C37.14036185 12.56232233 40.07002763 12.78285965 43 13 C43 13.33 43 13.66 43 14 C31.16515945 16.67589226 19.23571755 15.35369446 8.7734375 9.05859375 C1.26327993 3.7898398 1.26327993 3.7898398 0 0 Z " fill="#C0DFD3" transform="translate(398,432)"/>
<path d="M0 0 C1.32 0.33 2.64 0.66 4 1 C4.01030746 1.62401703 4.02061493 2.24803406 4.03123474 2.89096069 C4.14074985 9.47914119 4.25519937 16.06722376 4.37231445 22.65527344 C4.41520637 25.10284342 4.45690576 27.55043464 4.49731445 29.99804688 C4.7296758 44.02005033 5.06129028 58.00573855 6 72 C1.59221666 65.38832499 2.78766887 56.30446966 2.68359375 48.62890625 C2.66281265 47.35144028 2.64203156 46.0739743 2.62062073 44.75779724 C2.56650546 41.38281381 2.51619879 38.00781821 2.46777344 34.63275146 C2.41728721 31.18024692 2.3617436 27.72782402 2.30664062 24.27539062 C2.19979186 17.51699237 2.09796778 10.75853251 2 4 C1.34 4.66 0.68 5.32 0 6 C0 4.02 0 2.04 0 0 Z " fill="#DAF1E9" transform="translate(384,346)"/>
<path d="M0 0 C3.40169763 3.1947549 5.45209181 6.85184844 7.75 10.875 C8.17410156 11.58269531 8.59820312 12.29039062 9.03515625 13.01953125 C12.05447663 18.30088319 12.05447663 18.30088319 11.765625 22.0078125 C11.51296875 22.66523438 11.2603125 23.32265625 11 24 C8.69 24.33 6.38 24.66 4 25 C4.99 24.34 5.98 23.68 7 23 C7.36297936 21.02252878 7.36297936 21.02252878 7.1875 18.875 C7.125625 17.59625 7.06375 16.3175 7 15 C6.34 15 5.68 15 5 15 C4.15415002 13.44424022 3.32381601 11.8800388 2.5 10.3125 C2.0359375 9.44238281 1.571875 8.57226562 1.09375 7.67578125 C-0.04818792 4.88211171 -0.21504208 2.98370887 0 0 Z " fill="#B7D6CA" transform="translate(384,132)"/>
<path d="M0 0 C1.40742022 2.81484045 0.66652164 4.56936113 0.0625 7.625 C-0.13214844 8.62789062 -0.32679688 9.63078125 -0.52734375 10.6640625 C-0.76130859 11.82035156 -0.76130859 11.82035156 -1 13 C-1.66 13 -2.32 13 -3 13 C-5.48532803 21.50351906 -5.42376963 28.78295288 -2 37 C-1.875 40.3125 -1.875 40.3125 -2 43 C-6.46612084 38.53387916 -7.17583692 30.13422289 -7.375 24 C-7.06744214 15.31848042 -4.77430848 7.24377838 0 0 Z " fill="#B1D7C9" transform="translate(389,178)"/>
<path d="M0 0 C0.66 0.33 1.32 0.66 2 1 C1.99214478 1.99181274 1.99214478 1.99181274 1.98413086 3.00366211 C1.96342344 5.98159851 1.95035988 8.95951982 1.9375 11.9375 C1.92912109 12.97841797 1.92074219 14.01933594 1.91210938 15.09179688 C1.90727539 16.57583008 1.90727539 16.57583008 1.90234375 18.08984375 C1.89710693 19.00628662 1.89187012 19.92272949 1.88647461 20.86694336 C1.76078789 22.98363023 1.76078789 22.98363023 3 24 C3.04092937 26.33297433 3.04241723 28.66705225 3 31 C0.20691673 29.60345837 -0.37606116 27.63377058 -1.39453125 24.78515625 C-2.18533221 21.14747183 -2.29809098 17.58108376 -2.3125 13.875 C-2.31781738 13.19429443 -2.32313477 12.51358887 -2.32861328 11.81225586 C-2.2691086 7.52008911 -1.56030412 3.99089738 0 0 Z " fill="#ABCEC1" transform="translate(141,110)"/>
<path d="M0 0 C8.47748599 3.74930208 12.45186257 12.23233359 16.421875 20.14453125 C17.7754459 22.59369048 18.90106904 24.19820686 21 26 C20.67 26.66 20.34 27.32 20 28 C14.20792319 24.64669238 12.69248709 22.48194094 10.87890625 16.19140625 C9.92564582 13.81461026 8.84612491 12.72891063 7 11 C5.8125 8.3125 5.8125 8.3125 5 6 C4.01 6 3.02 6 2 6 C1.34 4.02 0.68 2.04 0 0 Z " fill="#B0D6C9" transform="translate(111,261)"/>
<path d="M0 0 C6.75 -0.125 6.75 -0.125 9 1 C9 1.66 9 2.32 9 3 C10.0725 2.87625 11.145 2.7525 12.25 2.625 C18.51235116 2.55742067 23.68152462 6.02165378 29 9 C29 9.99 29 10.98 29 12 C25.09593472 12 22.35730527 10.37961321 18.9375 8.6875 C13.63370858 6.11901742 8.50411567 4.01833867 2.7578125 2.60546875 C1 2 1 2 0 0 Z " fill="#AED2C5" transform="translate(273,69)"/>
<path d="M0 0 C0.66 0.33 1.32 0.66 2 1 C1.04578192 2.14926266 0.08647955 3.29430541 -0.875 4.4375 C-1.40867188 5.07558594 -1.94234375 5.71367188 -2.4921875 6.37109375 C-4 8 -4 8 -6 9 C-6.474375 9.825 -6.94875 10.65 -7.4375 11.5 C-9 14 -9 14 -12 15 C-12.35412344 16.32796291 -12.68521554 17.66216607 -13 19 C-14.4375 20.75 -14.4375 20.75 -16 22 C-16.66 22 -17.32 22 -18 22 C-16.68712137 16.85597264 -14.30109821 13.62776733 -10.6875 9.875 C-10.21376953 9.36324219 -9.74003906 8.85148437 -9.25195312 8.32421875 C-6.36796606 5.25480433 -3.34902136 2.5498924 0 0 Z " fill="#A3CBBC" transform="translate(160,88)"/>
<path d="M0 0 C14.99274635 -0.59246857 27.78034545 1.10579332 42 6 C42 6.33 42 6.66 42 7 C39.69 7 37.38 7 35 7 C35 6.34 35 5.68 35 5 C34.23300781 4.96261719 33.46601563 4.92523438 32.67578125 4.88671875 C21.68583047 4.23574606 10.87695836 2.65505393 0 1 C0 0.67 0 0.34 0 0 Z " fill="#B1D4C7" transform="translate(240,71)"/>
<path d="M0 0 C1.36521966 0.01507008 2.73045535 0.02875439 4.09570312 0.04101562 C7.41838096 0.07623836 10.74023181 0.12549959 14.0625 0.1875 C14.0625 0.8475 14.0625 1.5075 14.0625 2.1875 C13.13912842 2.20731934 12.21575684 2.22713867 11.2644043 2.24755859 C7.83688826 2.32567739 4.40981202 2.41236997 0.98266602 2.50488281 C-0.50032212 2.54315347 -1.98340248 2.57800978 -3.46655273 2.609375 C-5.59913072 2.655068 -7.73107491 2.71305338 -9.86328125 2.7734375 C-11.14630127 2.8048584 -12.42932129 2.8362793 -13.7512207 2.86865234 C-17.09137459 2.95129228 -17.09137459 2.95129228 -19.9375 5.1875 C-20.5975 4.5275 -21.2575 3.8675 -21.9375 3.1875 C-14.9955688 -0.83818613 -7.81042945 -0.15014609 0 0 Z " fill="#CEEADE" transform="translate(347.9375,322.8125)"/>
<path d="M0 0 C-3.4019487 2.09350689 -6.05272412 2.17942163 -10 2 C-10.33 2.99 -10.66 3.98 -11 5 C-12.01320313 5.13277344 -13.02640625 5.26554687 -14.0703125 5.40234375 C-15.42188204 5.58067584 -16.77344414 5.75906425 -18.125 5.9375 C-18.79015625 6.02451172 -19.4553125 6.11152344 -20.140625 6.20117188 C-24.10830188 6.72630558 -28.05626998 7.31814014 -32 8 C-32 8.66 -32 9.32 -32 10 C-33.65 10 -35.3 10 -37 10 C-33.53399499 6.95169303 -29.71972528 5.7292025 -25.375 4.4375 C-24.30584351 4.1132605 -24.30584351 4.1132605 -23.21508789 3.7824707 C-15.48217868 1.48089498 -8.11090168 -0.3526479 0 0 Z " fill="#BDDBD0" transform="translate(282,30)"/>
<path d="M0 0 C1.65322266 0.01740234 1.65322266 0.01740234 3.33984375 0.03515625 C4.44457031 0.04417969 5.54929688 0.05320313 6.6875 0.0625 C7.54214844 0.07410156 8.39679688 0.08570313 9.27734375 0.09765625 C9.60734375 1.08765625 9.93734375 2.07765625 10.27734375 3.09765625 C11.26734375 3.42765625 12.25734375 3.75765625 13.27734375 4.09765625 C12.5503125 3.95585937 11.82328125 3.8140625 11.07421875 3.66796875 C3.19725387 2.51672004 -1.37282495 3.75426191 -8.2265625 7.75 C-10.72265625 9.09765625 -10.72265625 9.09765625 -13.72265625 9.09765625 C-13.72265625 8.10765625 -13.72265625 7.11765625 -13.72265625 6.09765625 C-12.44390625 6.01515625 -11.16515625 5.93265625 -9.84765625 5.84765625 C-7.6670935 5.63430704 -7.6670935 5.63430704 -5.72265625 5.09765625 C-4.1942043 3.21165232 -4.1942043 3.21165232 -3.72265625 1.09765625 C-2.72265625 0.09765625 -2.72265625 0.09765625 0 0 Z " fill="#BDD9CE" transform="translate(173.72265625,165.90234375)"/>
<path d="M0 0 C3.90431122 3.90431122 4.15662285 9.08259954 4.3125 14.375 C4.23182165 19.67776795 3.02212002 24.12524638 1 29 C-0.07917226 25.76248322 -0.11425601 23.42248229 -0.09765625 20.01953125 C-0.09443359 18.85615234 -0.09121094 17.69277344 -0.08789062 16.49414062 C-0.07951172 15.27919922 -0.07113281 14.06425781 -0.0625 12.8125 C-0.05798828 11.58595703 -0.05347656 10.35941406 -0.04882812 9.09570312 C-0.03703065 6.06375332 -0.02056921 3.03190094 0 0 Z " fill="#A8CEBF" transform="translate(320,108)"/>
<path d="M0 0 C15.3269998 -0.2364997 29.93305821 -0.09709359 45 3 C45 3.33 45 3.66 45 4 C41.0205267 3.86185777 37.04151585 3.71320326 33.0625 3.5625 C31.35803711 3.50352539 31.35803711 3.50352539 29.61914062 3.44335938 C28.53955078 3.40146484 27.45996094 3.35957031 26.34765625 3.31640625 C24.84730835 3.26141968 24.84730835 3.26141968 23.31665039 3.20532227 C21 3 21 3 20 2 C18.51361008 1.84344973 17.02050873 1.74933057 15.52734375 1.68359375 C14.17866211 1.62075195 14.17866211 1.62075195 12.80273438 1.55664062 C11.85720703 1.51732422 10.91167969 1.47800781 9.9375 1.4375 C8.98810547 1.39431641 8.03871094 1.35113281 7.06054688 1.30664062 C4.70718647 1.20020724 2.35371646 1.09818992 0 1 C0 0.67 0 0.34 0 0 Z " fill="#C7E0D7" transform="translate(284,29)"/>
<path d="M0 0 C3.63 0.33 7.26 0.66 11 1 C11.33 2.65 11.66 4.3 12 6 C11.45472656 5.80921875 10.90945313 5.6184375 10.34765625 5.421875 C5.54538349 4.00992472 2.71145538 3.73088025 -1.875 5.9375 C-2.59429687 6.33839844 -3.31359375 6.73929688 -4.0546875 7.15234375 C-6 8 -6 8 -9 7 C-8.67 6.34 -8.34 5.68 -8 5 C-5.67843403 4.59270772 -3.3431213 4.25561323 -1 4 C-0.67 2.68 -0.34 1.36 0 0 Z " fill="#B2D5C8" transform="translate(346,136)"/>
<path d="M0 0 C-3.50108931 2.33405954 -6.90754908 3.11363958 -10.9375 4.0625 C-11.65357422 4.23587891 -12.36964844 4.40925781 -13.10742188 4.58789062 C-15.07060971 5.06276739 -17.03525123 5.53162336 -19 6 C-19.6607251 6.18232178 -20.3214502 6.36464355 -21.00219727 6.55249023 C-23.99861787 7.22369138 -26.94299931 7.05878847 -30 7 C-26.5980513 4.90649311 -23.94727588 4.82057837 -20 5 C-20 4.34 -20 3.68 -20 3 C-13.48306078 0.0377549 -7.02832483 -0.12330394 0 0 Z " fill="#B2D4C7" transform="translate(280,168)"/>
<path d="M0 0 C0.66 0.33 1.32 0.66 2 1 C0.625 3.5 0.625 3.5 -1 6 C-1.66 6 -2.32 6 -3 6 C-3.268125 6.598125 -3.53625 7.19625 -3.8125 7.8125 C-5 10 -5 10 -6.375 11.3125 C-8.01324331 13.01375267 -8.93287908 14.56312688 -10.0625 16.625 C-12 20 -12 20 -14 21 C-12.31583814 12.2049325 -6.37434744 5.98802335 0 0 Z " fill="#B6DACD" transform="translate(61,260)"/>
<path d="M0 0 C0.99 0.99 1.98 1.98 3 3 C2.67 3.66 2.34 4.32 2 5 C1.88194823 6.5107757 1.82303551 8.02638831 1.79467773 9.54150391 C1.77473251 10.48232819 1.75478729 11.42315247 1.73423767 12.39248657 C1.71752518 13.41023163 1.70081268 14.42797668 1.68359375 15.4765625 C1.66281265 16.51694672 1.64203156 17.55733093 1.62062073 18.62924194 C1.55510128 21.96109249 1.49622908 25.2930235 1.4375 28.625 C1.39431706 30.88021674 1.35070285 33.13542527 1.30664062 35.390625 C1.19941748 40.92699764 1.09765554 46.46345078 1 52 C0.67 52 0.34 52 0 52 C0 34.84 0 17.68 0 0 Z " fill="#92C2B1" transform="translate(388,348)"/>
<path d="M0 0 C0.8125 1.6875 0.8125 1.6875 1 4 C-1.25 6.4375 -1.25 6.4375 -4 9 C-6.99844828 13.31776552 -8.93410067 18.18655944 -11 23 C-12.49102565 18.67310203 -11.20388447 16.36554914 -9.31640625 12.38671875 C-6.79301858 7.81167464 -3.69250558 3.69250558 0 0 Z " fill="#BDDED3" transform="translate(399,264)"/>
<path d="M0 0 C0.66 0.33 1.32 0.66 2 1 C1.401875 1.721875 0.80375 2.44375 0.1875 3.1875 C-2.0352811 5.91314203 -2.0352811 5.91314203 -3.625 8.8125 C-4.07875 9.534375 -4.5325 10.25625 -5 11 C-5.66 11 -6.32 11 -7 11 C-7 11.66 -7 12.32 -7 13 C-8.375 14.625 -8.375 14.625 -10 16 C-10.66 16 -11.32 16 -12 16 C-12.33 16.99 -12.66 17.98 -13 19 C-12.56546208 13.86795727 -11.16275937 11.50482168 -7.625 7.8125 C-6.83351562 6.97332031 -6.04203125 6.13414063 -5.2265625 5.26953125 C-3.4936737 3.50320073 -1.75815769 1.74114326 0 0 Z " fill="#B2D3C6" transform="translate(228,49)"/>
<path d="M0 0 C7.84179688 6.4453125 7.84179688 6.4453125 10 10 C10 10.66 10 11.32 10 12 C9.34 12 8.68 12 8 12 C8 12.66 8 13.32 8 14 C7.34 14 6.68 14 6 14 C5.67 12.35 5.34 10.7 5 9 C4.34 9 3.68 9 3 9 C0.56839395 5.63316085 0 4.26649636 0 0 Z " fill="#ACD5C5" transform="translate(454,263)"/>
<path d="M0 0 C-0.33 0.66 -0.66 1.32 -1 2 C-9.16162336 4.43416837 -17.5446777 4.60576411 -26 5 C-19.03675063 0.35783375 -8.25004758 -0.50510495 0 0 Z " fill="#B7D6CA" transform="translate(215,71)"/>
<path d="M0 0 C1.41623216 -0.05447047 2.83308191 -0.09300508 4.25 -0.125 C5.03890625 -0.14820313 5.8278125 -0.17140625 6.640625 -0.1953125 C9 0 9 0 11.07421875 1.04296875 C13.18427229 2.32341054 13.18427229 2.32341054 16.5625 1.4375 C20 1 20 1 21.9375 2.375 C23 4 23 4 23 5 C17.4978184 5.23136637 12.86146222 4.4350346 7.5625 3 C6.83095703 2.80921875 6.09941406 2.6184375 5.34570312 2.421875 C3.56180334 1.95549597 1.78060155 1.47881722 0 1 C0 0.67 0 0.34 0 0 Z " fill="#BCD9CE" transform="translate(187,170)"/>
<path d="M0 0 C7.42686315 -0.10331031 14.63512596 0.00137301 22 1 C22 1.33 22 1.66 22 2 C18.1103338 2.90153011 14.42788813 3.19451372 10.4375 3.25 C9.32246094 3.27578125 8.20742188 3.3015625 7.05859375 3.328125 C3.73462454 2.9715306 2.41412606 2.24295331 0 0 Z " fill="#B4D7CB" transform="translate(419,444)"/>
<path d="M0 0 C-1.26839526 0.50615298 -2.53983102 1.00469099 -3.8125 1.5 C-4.87404297 1.91765625 -4.87404297 1.91765625 -5.95703125 2.34375 C-8 3 -8 3 -11 3 C-11 3.99 -11 4.98 -11 6 C-11.99 6 -12.98 6 -14 6 C-14 6.66 -14 7.32 -14 8 C-16.31 8.33 -18.62 8.66 -21 9 C-16.54211129 3.42763911 -7.25963176 -2.8202886 0 0 Z " fill="#B9DCD0" transform="translate(421,255)"/>
<path d="M0 0 C0.86496094 -0.01611328 1.72992188 -0.03222656 2.62109375 -0.04882812 C8.71804723 -0.05339855 13.72409948 1.03923819 19.375 3.3125 C19.375 3.6425 19.375 3.9725 19.375 4.3125 C15.415 3.9825 11.455 3.6525 7.375 3.3125 C7.375 2.6525 7.375 1.9925 7.375 1.3125 C0.775 1.6425 -5.825 1.9725 -12.625 2.3125 C-8.42465965 -0.4877269 -4.9376452 -0.01791598 0 0 Z " fill="#B8DCCF" transform="translate(426.625,157.6875)"/>
<path d="M0 0 C1 3 1 3 0.1796875 5.3046875 C-2.37561611 10.33878862 -4.69828036 14.31281174 -9 18 C-7.61991786 12.01964407 -5.96203616 7.7544434 -2 3 C-2 2.34 -2 1.68 -2 1 C-1.34 0.67 -0.68 0.34 0 0 Z " fill="#AED3C5" transform="translate(391,100)"/>
<path d="M0 0 C3.90852426 3.32224562 6.81404174 7.81499042 7.25 12.9375 C7.1675 13.618125 7.085 14.29875 7 15 C6.34 15 5.68 15 5 15 C4.15415002 13.44424022 3.32381601 11.8800388 2.5 10.3125 C2.0359375 9.44238281 1.571875 8.57226562 1.09375 7.67578125 C-0.04818792 4.88211171 -0.21504208 2.98370887 0 0 Z " fill="#ADD0C2" transform="translate(384,132)"/>
<path d="M0 0 C5.04253319 7.56379979 4.10016902 16.34731929 3 25 C2.67 25 2.34 25 2 25 C1.34 16.75 0.68 8.5 0 0 Z " fill="#C8DFD6" transform="translate(390,75)"/>
<path d="M0 0 C4.60877999 1.31679428 8.26569044 2.96044571 12 6 C12.75 8.6875 12.75 8.6875 13 11 C13.66 11.33 14.32 11.66 15 12 C12 12 12 12 10.3515625 10.64453125 C9.78179687 10.03996094 9.21203125 9.43539062 8.625 8.8125 C8.01785156 8.17828125 7.41070312 7.5440625 6.78515625 6.890625 C6.19605469 6.26671875 5.60695313 5.6428125 5 5 C4.02448918 4.01719109 3.04586004 3.03745526 2.0625 2.0625 C1.381875 1.381875 0.70125 0.70125 0 0 Z " fill="#B1D6C8" transform="translate(308,86)"/>
<path d="M0 0 C0.66 0 1.32 0 2 0 C2.433125 0.928125 2.86625 1.85625 3.3125 2.8125 C4.75416261 5.91345911 4.75416261 5.91345911 6.625 7.625 C8.3168346 9.3168346 8.59941561 10.67661054 9 13 C8.01 13 7.02 13 6 13 C2.80390169 9.27737682 0.46148436 4.92249987 0 0 Z " fill="#AED5C7" transform="translate(390,418)"/>
<path d="M0 0 C1.28116314 3.61288005 0.67900975 5.93148477 -0.375 9.5625 C-1.9413755 15.37740081 -2.65739269 20.9984651 -3 27 C-3.33 27 -3.66 27 -4 27 C-4.34686501 17.36486074 -4.41461262 8.82922525 0 0 Z " fill="#C8E4DA" transform="translate(48,183)"/>
<path d="M0 0 C3.26008643 3.16952847 6.22237877 6.39937989 9 10 C8.67 10.66 8.34 11.32 8 12 C4.34683329 10.75023244 3.21934164 10.32901247 1 7 C0.67 6.67 0.34 6.34 0 6 C-0.04080783 4.00041636 -0.04254356 1.99954746 0 0 Z " fill="#B5D9CB" transform="translate(144,305)"/>
<path d="M0 0 C1.24546405 2.49092811 0.7767578 3.41080733 0 6 C-0.66 6 -1.32 6 -2 6 C-2.33 7.32 -2.66 8.64 -3 10 C-3.66 10 -4.32 10 -5 10 C-5.33 11.98 -5.66 13.96 -6 16 C-6.99 15.67 -7.98 15.34 -9 15 C-7.61219205 11.10993227 -5.7847773 8.03441292 -3.375 4.6875 C-2.74335938 3.80449219 -2.11171875 2.92148437 -1.4609375 2.01171875 C-0.97882813 1.34785156 -0.49671875 0.68398438 0 0 Z " fill="#B8DDD0" transform="translate(386,287)"/>
<path d="M0 0 C3.67230705 3.07999946 4.56802365 5.2482602 5 10 C5.66 10 6.32 10 7 10 C7.28875 10.78375 7.5775 11.5675 7.875 12.375 C8.84912254 15.09671632 8.84912254 15.09671632 11 17 C10.01 17 9.02 17 8 17 C6.2109375 14.8046875 6.2109375 14.8046875 4.375 11.875 C3.76398437 10.92367187 3.15296875 9.97234375 2.5234375 8.9921875 C0.95856238 5.91861226 0.37434007 3.40952985 0 0 Z " fill="#BBDCD0" transform="translate(46,214)"/>
<path d="M0 0 C0.99 0.33 1.98 0.66 3 1 C0.53197261 3.84323425 -2.08454454 5.15880824 -5.5 6.6875 C-6.93859375 7.34298828 -6.93859375 7.34298828 -8.40625 8.01171875 C-11 9 -11 9 -14 9 C-13.67 8.01 -13.34 7.02 -13 6 C-12.34 6.33 -11.68 6.66 -11 7 C-11 6.34 -11 5.68 -11 5 C-8.36 4.67 -5.72 4.34 -3 4 C-3 3.34 -3 2.68 -3 2 C-2.01 2 -1.02 2 0 2 C0 1.34 0 0.68 0 0 Z " fill="#B3D5C7" transform="translate(294,159)"/>
<path d="M0 0 C0.33 0 0.66 0 1 0 C1.20496094 1.21558594 1.40992188 2.43117187 1.62109375 3.68359375 C1.89301961 5.26826514 2.16516643 6.85289863 2.4375 8.4375 C2.63956055 9.64116211 2.63956055 9.64116211 2.84570312 10.86914062 C3.20267224 14.75471303 3.20267224 14.75471303 5 18 C5.04080783 19.99958364 5.04254356 22.00045254 5 24 C0.8840374 19.8840374 0.16688839 12.62934362 -0.19140625 6.984375 C-0.18806872 4.64810062 -0.13929026 2.33182218 0 0 Z " fill="#CCE7DE" transform="translate(382,197)"/>
<path d="M0 0 C3.52082979 0.03806302 6.85343525 0.43318705 10.3125 1.125 C10.3125 1.785 10.3125 2.445 10.3125 3.125 C8.18777424 3.17886629 6.06266348 3.21773071 3.9375 3.25 C2.16246094 3.28480469 2.16246094 3.28480469 0.3515625 3.3203125 C-2.6875 3.125 -2.6875 3.125 -4.6875 1.125 C-3.6875 0.125 -3.6875 0.125 0 0 Z " fill="#95C2B0" transform="translate(212.6875,171.875)"/>
<path d="M0 0 C0.66 0.33 1.32 0.66 2 1 C1.67 1.99 1.34 2.98 1 4 C-1.31 4 -3.62 4 -6 4 C-6.33 5.32 -6.66 6.64 -7 8 C-8.65 8 -10.3 8 -12 8 C-8.2646504 3.81188075 -5.22578394 1.77479455 0 0 Z " fill="#B2D7CA" transform="translate(411,160)"/>
<path d="M0 0 C0.99 0.66 1.98 1.32 3 2 C2.52643877 6.26205106 0.15301808 8.28693793 -3 11 C-5.3125 11.8125 -5.3125 11.8125 -7 12 C-6.67 11.34 -6.34 10.68 -6 10 C-5.34 10 -4.68 10 -4 10 C-3.87625 9.195625 -3.7525 8.39125 -3.625 7.5625 C-3.41875 6.716875 -3.2125 5.87125 -3 5 C-2.34 4.67 -1.68 4.34 -1 4 C-0.34786708 1.97536745 -0.34786708 1.97536745 0 0 Z " fill="#ADD5C8" transform="translate(196,348)"/>
<path d="M0 0 C0.66 0 1.32 0 2 0 C2 0.66 2 1.32 2 2 C2.99 2.33 3.98 2.66 5 3 C5.88277755 7.51815281 6.10589503 11.77512694 6.0625 16.375 C6.05347656 17.62023437 6.04445313 18.86546875 6.03515625 20.1484375 C6.02355469 21.08945313 6.01195312 22.03046875 6 23 C5.67 23 5.34 23 5 23 C4.97421875 22.17757812 4.9484375 21.35515625 4.921875 20.5078125 C4.53660645 12.92502704 3.31859665 6.83785264 0 0 Z " fill="#BFDCD1" transform="translate(322,100)"/>
<path d="M0 0 C-0.99 0 -1.98 0 -3 0 C-3.33 0.99 -3.66 1.98 -4 3 C-8.61788672 4.4088468 -13.22422512 5.28363377 -18 6 C-15.14160085 3.69740069 -12.39581962 2.13731655 -9 0.75 C-8.154375 0.39421875 -7.30875 0.0384375 -6.4375 -0.328125 C-3.81117065 -1.05204912 -2.52787043 -0.9128421 0 0 Z " fill="#BEDBCF" transform="translate(189,77)"/>
<path d="M0 0 C1.125 1.6875 1.125 1.6875 2 4 C1.125 6.75 1.125 6.75 0 9 C0.66 9.33 1.32 9.66 2 10 C2.72693904 11.97888961 3.39816251 13.97954558 4 16 C3.34 16 2.68 16 2 16 C-0.39063845 13.33614573 -1.96146233 11.29743481 -2.0703125 7.6328125 C-1.41473214 1.41473214 -1.41473214 1.41473214 0 0 Z " fill="#A9D4C4" transform="translate(389,214)"/>
<path d="M0 0 C2.5216376 0.11503269 5.0418119 0.24174777 7.5625 0.375 C8.61920898 0.42140625 8.61920898 0.42140625 9.69726562 0.46875 C14.41295741 0.72952558 18.50385496 1.54658123 23 3 C23 3.33 23 3.66 23 4 C15.10276444 4.48350422 7.66467297 2.67664721 0 1 C0 0.67 0 0.34 0 0 Z " fill="#A9CDC1" transform="translate(317,32)"/>
<path d="M0 0 C1.32 0.33 2.64 0.66 4 1 C4 7.93 4 14.86 4 22 C3.67 22 3.34 22 3 22 C2.67 16.06 2.34 10.12 2 4 C1.34 4.66 0.68 5.32 0 6 C0 4.02 0 2.04 0 0 Z " fill="#BBDDCF" transform="translate(384,346)"/>
<path d="M0 0 C4.11518018 4.11518018 4.125 9.40087257 4.125 14.9375 C4.09319918 16.62521475 4.05491533 18.31287918 4 20 C3.67 20 3.34 20 3 20 C2.34 16.04 1.68 12.08 1 8 C0.67 8 0.34 8 0 8 C0 5.36 0 2.72 0 0 Z " fill="#BEDACF" transform="translate(320,108)"/>
<path d="M0 0 C1.97446663 3.81730215 3.12829651 6.91019274 3.09765625 11.23046875 C3.09282227 12.43413086 3.09282227 12.43413086 3.08789062 13.66210938 C3.07532227 14.91217773 3.07532227 14.91217773 3.0625 16.1875 C3.05798828 17.03248047 3.05347656 17.87746094 3.04882812 18.74804688 C3.03705403 20.83206155 3.0191189 22.91603977 3 25 C2.67 25 2.34 25 2 25 C1.93941406 23.85660156 1.87882812 22.71320313 1.81640625 21.53515625 C1.73201572 20.04425695 1.64736698 18.55337225 1.5625 17.0625 C1.52318359 16.30775391 1.48386719 15.55300781 1.44335938 14.77539062 C1.55961976 11.08055813 1.55961976 11.08055813 0 8 C-0.14115161 5.32941149 -0.04247107 2.67567762 0 0 Z " fill="#BDDCD0" transform="translate(466,279)"/>
<path d="M0 0 C7.47394574 -0.37369729 13.82140651 0.95938459 21 3 C21 3.33 21 3.66 21 4 C15.93683317 4.15639125 11.49601562 3.62766071 6.5625 2.5 C5.32628906 2.2215625 4.09007812 1.943125 2.81640625 1.65625 C1.88699219 1.4396875 0.95757812 1.223125 0 1 C0 0.67 0 0.34 0 0 Z " fill="#C5E4D8" transform="translate(423,253)"/>
<path d="M0 0 C3.24838923 1.08279641 4.04282583 1.89036845 6.1875 4.4375 C6.71730469 5.05496094 7.24710937 5.67242187 7.79296875 6.30859375 C9 8 9 8 9 10 C7.68 10 6.36 10 5 10 C5 9.01 5 8.02 5 7 C4.01 6.67 3.02 6.34 2 6 C0.8125 2.9375 0.8125 2.9375 0 0 Z " fill="#ADD5C6" transform="translate(455,168)"/>
<path d="M0 0 C0.33 0 0.66 0 1 0 C1 5.28 1 10.56 1 16 C-0.98 16.99 -0.98 16.99 -3 18 C-2.125 12.125 -2.125 12.125 -1 11 C-0.76636119 9.15108054 -0.58696365 7.29511969 -0.4375 5.4375 C-0.35371094 4.42558594 -0.26992188 3.41367188 -0.18359375 2.37109375 C-0.12300781 1.58863281 -0.06242187 0.80617188 0 0 Z " fill="#A5CBBC" transform="translate(328,112)"/>
<path d="M0 0 C-1.36125 0.6496875 -1.36125 0.6496875 -2.75 1.3125 C-5.43218449 2.70517271 -7.66139605 4.11112757 -10 6 C-11.32 5.34 -12.64 4.68 -14 4 C-12.42466914 3.13116294 -10.83935491 2.28040932 -9.25 1.4375 C-8.36828125 0.96183594 -7.4865625 0.48617187 -6.578125 -0.00390625 C-3.79298812 -1.07998186 -2.73019786 -1.06528748 0 0 Z " fill="#BBDBCE" transform="translate(77,255)"/>
<path d="M0 0 C2.72869407 0.03287583 5.2966618 0.56397771 8 1 C8.33 2.65 8.66 4.3 9 6 C7.02 5.34 5.04 4.68 3 4 C3 3.34 3 2.68 3 2 C1.35 2 -0.3 2 -2 2 C-1.34 1.34 -0.68 0.68 0 0 Z " fill="#A3CCBF" transform="translate(349,136)"/>
<path d="M0 0 C0.144375 0.639375 0.28875 1.27875 0.4375 1.9375 C0.81007181 3.97545146 0.81007181 3.97545146 2 5 C2.07226502 6.85287502 2.0838122 8.70833878 2.0625 10.5625 C2.05347656 11.57441406 2.04445313 12.58632813 2.03515625 13.62890625 C2.02355469 14.41136719 2.01195312 15.19382812 2 16 C0 15 0 15 -0.625 13.4375 C-1.32803829 8.8677511 -1.47499409 4.42498226 0 0 Z " fill="#BADBD0" transform="translate(319,334)"/>
<path d="M0 0 C3.7952131 1.49097658 5.61042731 3.75700849 8 7 C7.67 7.66 7.34 8.32 7 9 C4.37098712 7.47793991 2.15634036 6.15634036 0 4 C0 2.68 0 1.36 0 0 Z " fill="#ACD2C3" transform="translate(124,280)"/>
<path d="M0 0 C3.55780196 0.60990891 6.6828589 1.5783681 10 3 C9.01 3.495 9.01 3.495 8 4 C8.33 4.99 8.66 5.98 9 7 C5.07353523 5.69117841 2.72225079 4.1255472 0 1 C0 0.67 0 0.34 0 0 Z " fill="#A7D0C2" transform="translate(340,36)"/>
<path d="M0 0 C0.99 0 1.98 0 3 0 C2.39301257 4.12751449 0.96189209 7.3321148 -1 11 C-1.33 11 -1.66 11 -2 11 C-1.85957123 9.35369672 -1.71250671 7.70795821 -1.5625 6.0625 C-1.48128906 5.14597656 -1.40007812 4.22945313 -1.31640625 3.28515625 C-1 1 -1 1 0 0 Z " fill="#B5D7C9" transform="translate(125,416)"/>
<path d="M0 0 C0.66 0 1.32 0 2 0 C2.433125 1.2375 2.86625 2.475 3.3125 3.75 C4.49131697 6.91596559 5.75231247 9.43121425 8 12 C4.54804233 10.5741914 2.8985744 8.90253666 0.75 5.875 C-0.03117188 4.78832031 -0.03117188 4.78832031 -0.828125 3.6796875 C-1.21484375 3.12539063 -1.6015625 2.57109375 -2 2 C-1.34 1.34 -0.68 0.68 0 0 Z " fill="#BBDED2" transform="translate(135,347)"/>
<path d="M0 0 C2.64 0 5.28 0 8 0 C5.21769572 1.85486952 3.15636393 2.72462112 0 3.6875 C-1.299375 4.09548828 -1.299375 4.09548828 -2.625 4.51171875 C-5 5 -5 5 -8 4 C-7.34 4 -6.68 4 -6 4 C-6 3.34 -6 2.68 -6 2 C-4.02 2 -2.04 2 0 2 C0 1.34 0 0.68 0 0 Z " fill="#C4DDD2" transform="translate(272,168)"/>
<path d="M0 0 C0.33 1.32 0.66 2.64 1 4 C4.37817425 4.84454356 6.67465243 5.10844919 10 4 C8.11821903 6.4044979 7.00775285 6.99790027 4 7.8125 C1 8 1 8 -2 6 C-1.125 1.125 -1.125 1.125 0 0 Z " fill="#C4DED7" transform="translate(318,144)"/>
<path d="M0 0 C0.33 0.66 0.66 1.32 1 2 C0.22265625 4.1640625 0.22265625 4.1640625 -0.9375 6.625 C-1.31777344 7.44226563 -1.69804688 8.25953125 -2.08984375 9.1015625 C-2.39019531 9.72804687 -2.69054688 10.35453125 -3 11 C-3.99 11 -4.98 11 -6 11 C-4.74194623 6.49197399 -3.09592835 3.5087188 0 0 Z " fill="#B1D6C7" transform="translate(55,172)"/>
<path d="M0 0 C3.82669043 3.42388092 5.72278474 6.00724943 7 11 C6.01 11 5.02 11 4 11 C3.52014033 9.72942818 3.0411407 8.45853152 2.5625 7.1875 C2.16224609 6.12595703 2.16224609 6.12595703 1.75390625 5.04296875 C1.13774814 3.37327604 0.56280765 1.68842296 0 0 Z " fill="#B3D8C9" transform="translate(122,173)"/>
<path d="M0 0 C0.66 0.33 1.32 0.66 2 1 C0.9375 3.375 0.9375 3.375 -1 6 C-4.6875 7.3125 -4.6875 7.3125 -8 8 C-5.58443874 4.80800833 -3.31996462 2.25283313 0 0 Z " fill="#B7D9CC" transform="translate(64,164)"/>
<path d="M0 0 C3.96 0 7.92 0 12 0 C12.33 0.99 12.66 1.98 13 3 C13.99 3.33 14.98 3.66 16 4 C13.69 3.67 11.38 3.34 9 3 C9 2.34 9 1.68 9 1 C5.7 1.33 2.4 1.66 -1 2 C-0.67 1.34 -0.34 0.68 0 0 Z " fill="#AACDBF" transform="translate(171,166)"/>
<path d="M0 0 C0.66 0.33 1.32 0.66 2 1 C0.02 3.31 -1.96 5.62 -4 8 C-5.32 7.67 -6.64 7.34 -8 7 C-5.36 4.69 -2.72 2.38 0 0 Z " fill="#B4D5C7" transform="translate(160,88)"/>
<path d="M0 0 C0.8125 1.6875 0.8125 1.6875 1 4 C-1.4375 6.75 -1.4375 6.75 -4 9 C-4.8125 7.3125 -4.8125 7.3125 -5 5 C-2.5625 2.25 -2.5625 2.25 0 0 Z " fill="#AED4C7" transform="translate(399,264)"/>
<path d="M0 0 C3.39417765 3.12621626 5.6062718 5.56541027 7 10 C2.37837838 8.54054054 2.37837838 8.54054054 0.6875 6.125 C0 4 0 4 0 0 Z " fill="#B7D6CC" transform="translate(313,97)"/>
<path d="M0 0 C0 0.99 0 1.98 0 3 C-2.25 4.75 -2.25 4.75 -5 6 C-7.171875 5.578125 -7.171875 5.578125 -9 5 C-7.87926138 4.16094435 -6.75325453 3.32892169 -5.625 2.5 C-4.99851563 2.0359375 -4.37203125 1.571875 -3.7265625 1.09375 C-2 0 -2 0 0 0 Z " fill="#B2D4C9" transform="translate(239,43)"/>
<path d="M0 0 C3.375 -0.125 3.375 -0.125 7 0 C9 2 9 2 9 5 C5.22454612 3.90931332 2.52956528 3.0916909 0 0 Z " fill="#ADD7C9" transform="translate(64,438)"/>
<path d="M0 0 C3.68862535 0.49846289 5.68546144 1.0241647 8 4 C9.1875 6.1875 9.1875 6.1875 10 8 C4.98886765 6.5682479 3.05530451 4.01554307 0 0 Z " fill="#B1D9CA" transform="translate(56,232)"/>
<path d="M0 0 C0.33 0 0.66 0 1 0 C3.11161731 9.41002278 3.11161731 9.41002278 4 14 C3.34 13.67 2.68 13.34 2 13 C2 12.34 2 11.68 2 11 C1.34 11 0.68 11 0 11 C0 7.37 0 3.74 0 0 Z " fill="#A4CCBF" transform="translate(45,203)"/>
<path d="M0 0 C0 2.33333333 0 4.66666667 0 7 C-0.66 7 -1.32 7 -2 7 C-2 7.66 -2 8.32 -2 9 C-3.32 9.33 -4.64 9.66 -6 10 C-4.6302836 6.00499382 -2.74277578 3.19990508 0 0 Z " fill="#B9DCD0" transform="translate(376,302)"/>
<path d="M0 0 C0.66 1.32 1.32 2.64 2 4 C0.71034824 5.37562854 -0.62689293 6.70766393 -2 8 C-2.66 8 -3.32 8 -4 8 C-2.25 2.25 -2.25 2.25 0 0 Z " fill="#ACD1C3" transform="translate(146,102)"/>
<path d="M0 0 C4.75481646 0.57634139 7.97048212 2.55068521 12 5 C10.68 5.33 9.36 5.66 8 6 C8 5.34 8 4.68 8 4 C6.35 4 4.7 4 3 4 C2.67 3.01 2.34 2.02 2 1 C1.34 0.67 0.68 0.34 0 0 Z " fill="#BCDACE" transform="translate(350,40)"/>
<path d="M0 0 C0.99 0 1.98 0 3 0 C3 3 3 3 1.6875 4.38671875 C0.125 5.59114583 -1.4375 6.79557292 -3 8 C-2.67 6.35 -2.34 4.7 -2 3 C-1.34 3 -0.68 3 0 3 C0 2.01 0 1.02 0 0 Z " fill="#B4D9CD" transform="translate(118,428)"/>
<path d="M0 0 C1.9375 1.125 1.9375 1.125 4 3 C4.75 6.1875 4.75 6.1875 5 9 C4.34 9 3.68 9 3 9 C0.56839395 5.63316085 0 4.26649636 0 0 Z " fill="#9ECCBC" transform="translate(454,263)"/>
<path d="M0 0 C3.81684226 1.55500981 6.19195732 4.03595495 9 7 C8.67 7.66 8.34 8.32 8 9 C7.566875 8.505 7.13375 8.01 6.6875 7.5 C5.00259517 5.66781808 5.00259517 5.66781808 2 6 C1.34 4.02 0.68 2.04 0 0 Z " fill="#C3E4D7" transform="translate(111,261)"/>
<path d="M0 0 C4.85077588 1.11940982 7.777893 2.1334716 11 6 C8.36 5.34 5.72 4.68 3 4 C3 3.34 3 2.68 3 2 C2.01 2.33 1.02 2.66 0 3 C0 2.01 0 1.02 0 0 Z " fill="#BCDDD0" transform="translate(100,255)"/>
<path d="M0 0 C3.14958831 3.42346555 3.56179109 6.44262737 4 11 C2 9.4375 2 9.4375 0 7 C-0.25 3.25 -0.25 3.25 0 0 Z " fill="#BADCCF" transform="translate(466,181)"/>
<path d="M0 0 C2.95409701 1.37154504 5.44008376 2.98863724 8 5 C7.67 6.32 7.34 7.64 7 9 C5.83037314 7.69013727 4.66437056 6.3770374 3.5 5.0625 C2.8503125 4.33160156 2.200625 3.60070312 1.53125 2.84765625 C0 1 0 1 0 0 Z " fill="#B0D1C6" transform="translate(144,142)"/>
<path d="M0 0 C0.66 0.33 1.32 0.66 2 1 C1.67 2.32 1.34 3.64 1 5 C0.34 5 -0.32 5 -1 5 C-0.67 6.32 -0.34 7.64 0 9 C-0.99 9 -1.98 9 -3 9 C-2.25 2.25 -2.25 2.25 0 0 Z " fill="#94C3B1" transform="translate(390,96)"/>
<path d="M0 0 C2.375 0.25 2.375 0.25 5 1 C6.1875 3 6.1875 3 7 5 C7.66 5.33 8.32 5.66 9 6 C6.1875 5.8125 6.1875 5.8125 3 5 C1.125 2.4375 1.125 2.4375 0 0 Z " fill="#A4CBBC" transform="translate(140,355)"/>
<path d="M0 0 C1 2 1 2 0.3125 4.375 C-1.09398311 7.18796623 -2.67557877 8.9080209 -5 11 C-3.92289822 6.69159287 -2.96052484 3.36423277 0 0 Z " fill="#C0DFD2" transform="translate(52,270)"/>
<path d="M0 0 C0.78375 0.04125 1.5675 0.0825 2.375 0.125 C-2.76785714 5.69642857 -2.76785714 5.69642857 -6.625 6.125 C-3.85227273 0.18344156 -3.85227273 0.18344156 0 0 Z " fill="#B8D5C8" transform="translate(303.625,153.875)"/>
<path d="M0 0 C1.15957207 3.47871621 0.77456651 4.34219645 -0.4375 7.6875 C-0.86869141 8.89986328 -0.86869141 8.89986328 -1.30859375 10.13671875 C-1.53675781 10.75160156 -1.76492188 11.36648438 -2 12 C-2.66 11.01 -3.32 10.02 -4 9 C-3.3203125 6.73828125 -3.3203125 6.73828125 -2.125 4.3125 C-1.73570312 3.50425781 -1.34640625 2.69601562 -0.9453125 1.86328125 C-0.63335937 1.24839844 -0.32140625 0.63351562 0 0 Z " fill="#93C4B2" transform="translate(390,280)"/>
<path d="M0 0 C1.32 0.66 2.64 1.32 4 2 C2.35 3.32 0.7 4.64 -1 6 C-1.66 5.67 -2.32 5.34 -3 5 C-3 4.01 -3 3.02 -3 2 C-2.01 2 -1.02 2 0 2 C0 1.34 0 0.68 0 0 Z " fill="#B6DACD" transform="translate(453,234)"/>
<path d="M0 0 C2.31 0.66 4.62 1.32 7 2 C7.33 3.32 7.66 4.64 8 6 C5.525 5.01 5.525 5.01 3 4 C3 3.34 3 2.68 3 2 C2.01 1.67 1.02 1.34 0 1 C0 0.67 0 0.34 0 0 Z " fill="#B5D9CB" transform="translate(396,234)"/>
<path d="M0 0 C0.33 0.66 0.66 1.32 1 2 C1.66 2.33 2.32 2.66 3 3 C-2.625 6 -2.625 6 -6 6 C-6 5.34 -6 4.68 -6 4 C-4.36368108 2.95107762 -2.69514137 1.95093297 -1 1 C-0.67 0.67 -0.34 0.34 0 0 Z " fill="#B7D7CA" transform="translate(150,176)"/>
<path d="M0 0 C2.97 0.495 2.97 0.495 6 1 C6.33 1.99 6.66 2.98 7 4 C4.69 4 2.38 4 0 4 C0 2.68 0 1.36 0 0 Z " fill="#B1D6C9" transform="translate(203,171)"/>
<path d="M0 0 C1.39195915 4.17587745 -0.17676781 6.13474776 -2 10 C-2.66 8.68 -3.32 7.36 -4 6 C-3.34 5.01 -2.68 4.02 -2 3 C-2 2.34 -2 1.68 -2 1 C-1.34 0.67 -0.68 0.34 0 0 Z " fill="#C1DCD0" transform="translate(391,100)"/>
<path d="M0 0 C1.98 1.65 3.96 3.3 6 5 C5.67 5.66 5.34 6.32 5 7 C2.525 6.01 2.525 6.01 0 5 C0 3.35 0 1.7 0 0 Z " fill="#B0D6C7" transform="translate(378,58)"/>
<path d="M0 0 C2.5 2.3125 2.5 2.3125 5 5 C5 5.99 5 6.98 5 8 C4.01 8 3.02 8 2 8 C1.34 5.36 0.68 2.72 0 0 Z " fill="#C0DFD3" transform="translate(138,297)"/>
<path d="M0 0 C2.5 2.3125 2.5 2.3125 5 5 C5 5.99 5 6.98 5 8 C3.02 6.68 1.04 5.36 -1 4 C-0.67 2.68 -0.34 1.36 0 0 Z " fill="#C0E0D3" transform="translate(132,289)"/>
<path d="M0 0 C0.99 0 1.98 0 3 0 C3.185625 1.2065625 3.185625 1.2065625 3.375 2.4375 C3.58125 3.283125 3.7875 4.12875 4 5 C4.66 5.33 5.32 5.66 6 6 C3 6 3 6 1.3125 4.6875 C0 3 0 3 0 0 Z " fill="#A9CDC0" transform="translate(317,92)"/>
<path d="M0 0 C3.465 1.98 3.465 1.98 7 4 C7 4.99 7 5.98 7 7 C6.34 6.34 5.68 5.68 5 5 C4.01 5.33 3.02 5.66 2 6 C2 4.68 2 3.36 2 2 C1.34 2 0.68 2 0 2 C0 1.34 0 0.68 0 0 Z " fill="#B5D9CB" transform="translate(363,46)"/>
<path d="M0 0 C1.485 0.99 1.485 0.99 3 2 C3.1875 5.625 3.1875 5.625 3 9 C1.5 7.875 1.5 7.875 0 6 C-0.1875 2.8125 -0.1875 2.8125 0 0 Z " fill="#A4D2C2" transform="translate(130,339)"/>
<path d="M0 0 C0.99 0 1.98 0 3 0 C1.70700306 2.88437779 0.34058637 4.87219421 -2 7 C-2.125 4.625 -2.125 4.625 -2 2 C-1.34 1.34 -0.68 0.68 0 0 Z " fill="#A5D1C1" transform="translate(55,266)"/>
<path d="M0 0 C-2.93828597 2.50298434 -5.17902761 3.46930939 -9 4 C-8.67 3.01 -8.34 2.02 -8 1 C-5.29120665 -0.35439668 -2.99066732 -0.06501451 0 0 Z " fill="#B1D7C9" transform="translate(450,240)"/>
<path d="M0 0 C1.98 0.66 3.96 1.32 6 2 C4 4 4 4 1.375 4.125 C0.59125 4.08375 -0.1925 4.0425 -1 4 C-1 1 -1 1 0 0 Z " fill="#B0D5C7" transform="translate(138,180)"/>
<path d="M0 0 C0.99 0.33 1.98 0.66 3 1 C0.47043472 4.0916909 -2.22454612 4.90931332 -6 6 C-5.67 5.34 -5.34 4.68 -5 4 C-4.34 4 -3.68 4 -3 4 C-3 3.34 -3 2.68 -3 2 C-2.01 2 -1.02 2 0 2 C0 1.34 0 0.68 0 0 Z " fill="#C3DED5" transform="translate(294,159)"/>
<path d="M0 0 C3.0916909 2.52956528 3.90931332 5.22454612 5 9 C3.0625 8.4375 3.0625 8.4375 1 7 C0.25 3.375 0.25 3.375 0 0 Z " fill="#B9DACE" transform="translate(379,123)"/>
<path d="M0 0 C0 0.33 0 0.66 0 1 C-1.093125 1.12375 -2.18625 1.2475 -3.3125 1.375 C-7.07381802 1.75464801 -7.07381802 1.75464801 -10 4 C-10.66 3.34 -11.32 2.68 -12 2 C-8.09971775 -0.60018816 -4.52565431 -0.15085514 0 0 Z " fill="#B4D9CC" transform="translate(338,324)"/>
<path d="M0 0 C0.99 0.33 1.98 0.66 3 1 C2.1875 2.9375 2.1875 2.9375 1 5 C0.01 5.33 -0.98 5.66 -2 6 C-2 5.01 -2 4.02 -2 3 C-1.34 3 -0.68 3 0 3 C0 2.01 0 1.02 0 0 Z " fill="#BCD9CE" transform="translate(120,229)"/>
<path d="M0 0 C0.99 0.33 1.98 0.66 3 1 C1.25 5.875 1.25 5.875 -1 7 C-0.67 4.69 -0.34 2.38 0 0 Z " fill="#ACD5C5" transform="translate(124,223)"/>
<path d="M0 0 C0 0.66 0 1.32 0 2 C-2.64738916 3.4606285 -3.89448334 4 -7 4 C-7 3.01 -7 2.02 -7 1 C-4.50935112 0.31292445 -2.62113708 0 0 0 Z " fill="#B4D3C8" transform="translate(167,171)"/>
<path d="M0 0 C0.99 1.32 1.98 2.64 3 4 C2.01 4.495 2.01 4.495 1 5 C-1.03144641 4.06553465 -3.03533587 3.06775224 -5 2 C-5 1.67 -5 1.34 -5 1 C-3.35 0.67 -1.7 0.34 0 0 Z " fill="#B4D6C8" transform="translate(385,151)"/>
<path d="M0 0 C1.98 1.65 3.96 3.3 6 5 C5.01 5.495 5.01 5.495 4 6 C3.01 5.67 2.02 5.34 1 5 C1 4.34 1 3.68 1 3 C0.34 3 -0.32 3 -1 3 C-0.67 2.01 -0.34 1.02 0 0 Z " fill="#B6D5CA" transform="translate(307,91)"/>
</svg>
