<?xml version="1.0" encoding="UTF-8"?>
<svg version="1.1" xmlns="http://www.w3.org/2000/svg" width="519" height="481">
<path d="M0 0 C1.18189323 -0.00453111 2.36378646 -0.00906223 3.58149463 -0.01373065 C6.8448209 -0.02416678 10.10800783 -0.02570633 13.3713454 -0.02334189 C16.89774632 -0.02293241 20.42411482 -0.03398548 23.95050049 -0.04345703 C30.85330266 -0.06004007 37.75607067 -0.06556537 44.6588911 -0.06668179 C50.27310571 -0.06763363 55.8873091 -0.07175073 61.50152016 -0.07808304 C77.43629029 -0.09568882 93.37103353 -0.10492306 109.30581345 -0.10342209 C110.59324858 -0.10330222 110.59324858 -0.10330222 111.9066925 -0.10317993 C112.76603674 -0.10309817 113.62538098 -0.10301641 114.51076595 -0.10293217 C128.43041953 -0.10211967 142.3499648 -0.12125005 156.26958706 -0.14945666 C170.57925784 -0.17822367 184.88887586 -0.19199483 199.19857627 -0.19026911 C207.22547565 -0.18960648 215.2522615 -0.19504279 223.27913475 -0.21662521 C230.1147229 -0.23488742 236.95014609 -0.23914326 243.78574815 -0.22560637 C247.2689631 -0.21910171 250.75186202 -0.21886782 254.23504639 -0.23631287 C258.02261797 -0.25181333 261.80936914 -0.24242404 265.59692383 -0.22705078 C266.68197494 -0.23733791 267.76702605 -0.24762503 268.88495749 -0.25822389 C282.06421701 -0.14066656 292.96545103 3.94840554 302.80342102 12.64242554 C315.31998812 26.85042062 316.26810797 40.74253334 316.26118469 59.07748413 C316.2641812 60.66685565 316.26758485 62.25622645 316.2713623 63.84559631 C316.28015541 68.14112342 316.2825384 72.43663058 316.28317809 76.73216581 C316.28389113 79.42100066 316.28603023 82.1098305 316.28867531 84.79866409 C316.29791243 94.19352793 316.30201215 103.58837762 316.30122375 112.98324585 C316.30062305 121.71794908 316.31117772 130.45259054 316.32696742 139.18727815 C316.34007259 146.70689284 316.34540642 154.22648741 316.34476835 161.74611342 C316.34451428 166.22828004 316.34731482 170.71039168 316.3579464 175.19254684 C316.36767792 179.40988098 316.36767216 183.62710812 316.36042976 187.84444618 C316.35939026 189.38466487 316.36170876 190.9248904 316.36779022 192.46509743 C316.42783316 208.73626455 315.12152893 222.78869836 303.59858704 235.06771851 C294.01007898 244.69559471 281.63091583 248.57582046 268.23668891 248.65466946 C267.1598099 248.64593094 266.0829309 248.63719241 264.97341919 248.62818909 C263.80020809 248.63075236 262.626997 248.63331564 261.41823405 248.63595659 C258.19350062 248.64001556 254.96913693 248.63074781 251.74444711 248.6156224 C248.25517441 248.60258402 244.76591682 248.60705697 241.27662659 248.60932922 C235.24172771 248.61089706 229.20692666 248.60153932 223.17205238 248.58461571 C214.44681227 248.56016351 205.72161913 248.5524141 196.99634846 248.54865173 C182.83785565 248.54209697 168.67941489 248.52216237 154.52095032 248.4937439 C140.77290608 248.46617802 127.02487601 248.44495683 113.27680969 248.43222046 C112.42840591 248.43143229 111.58000213 248.43064412 110.70588914 248.42983206 C106.4494059 248.42591676 102.19292256 248.42212568 97.93643916 248.41839635 C62.66289602 248.38733084 27.38941333 248.33452172 -7.88407898 248.26742554 C-7.88185837 249.26204803 -7.87963776 250.25667053 -7.87734985 251.28143311 C-7.85683792 260.77996085 -7.84197449 270.27848395 -7.83226681 279.77702904 C-7.82710783 284.65713824 -7.82014186 289.53722918 -7.80863953 294.41732788 C-7.72365429 331.67444892 -7.72365429 331.67444892 -8.20048523 347.68148804 C-8.22271652 348.71212372 -8.24494781 349.7427594 -8.26785278 350.80462646 C-8.51110401 357.2349047 -9.58134201 360.76150589 -14.00907898 365.57992554 C-18.02495162 367.93706817 -21.33380402 368.06191799 -25.88407898 367.26742554 C-30.38912958 365.01490024 -32.71442446 362.77370233 -34.88407898 358.26742554 C-35.15835974 355.69934042 -35.27501925 353.38185552 -35.24052429 350.81967163 C-35.24256866 350.08512253 -35.24461304 349.35057343 -35.24671936 348.59376526 C-35.2497295 346.15921201 -35.23119208 343.72533649 -35.21220398 341.29086304 C-35.20913684 339.56581793 -35.20726799 337.84077033 -35.20652771 336.11572266 C-35.20191761 332.47902056 -35.18750209 328.84253895 -35.16532898 325.2059021 C-35.1376731 320.65810232 -35.12625867 316.11047837 -35.12152863 311.562603 C-35.09491445 288.44951509 -34.67057933 265.36675782 -33.88407898 242.26742554 C-38.17407898 242.26742554 -42.46407898 242.26742554 -46.88407898 242.26742554 C-46.88185837 243.18972961 -46.87963776 244.11203369 -46.87734985 245.06228638 C-46.85695088 253.93962142 -46.84190955 262.81694813 -46.83226681 271.69430161 C-46.82714215 276.25351749 -46.82024561 280.81271336 -46.80863953 285.37191772 C-46.76363082 303.65458275 -46.76078884 321.93940259 -47.1518116 340.21878815 C-47.18392593 341.78694998 -47.21135422 343.35521572 -47.23379326 344.92354584 C-47.26637804 347.07945887 -47.31774447 349.23410307 -47.3745575 351.38949585 C-47.40034378 352.60260437 -47.42613007 353.81571289 -47.45269775 355.06558228 C-48.10740772 359.9250397 -49.90042757 362.42102781 -53.57157898 365.57992554 C-57.59010806 367.62710073 -60.46537845 368.14058193 -64.88407898 367.26742554 C-69.3640432 364.98517961 -71.69609023 362.75620935 -73.88407898 358.26742554 C-74.25157166 355.11886597 -74.25157166 355.11886597 -74.24052429 351.49984741 C-74.24254601 350.83017787 -74.24456772 350.16050833 -74.2466507 349.47054577 C-74.24962231 347.22548918 -74.23094407 344.98114828 -74.21220398 342.73617554 C-74.20946397 341.11384742 -74.20797234 339.49151679 -74.20762634 337.8691864 C-74.20256411 333.43263268 -74.17810118 328.99636962 -74.14997864 324.55990982 C-74.12868005 320.81920208 -74.11867113 317.07849903 -74.10868835 313.33774662 C-74.01138396 277.61172316 -73.64382119 241.88566331 -73.24052429 206.16195679 C-73.19455081 202.07862429 -73.14863604 197.99529115 -73.10282898 193.91195679 C-73.09189964 192.94138966 -73.08097031 191.97082253 -73.06970978 190.97084427 C-72.90371584 176.06905507 -72.81214546 161.1702518 -72.88407898 146.26742554 C-73.68233093 146.99929077 -74.48058289 147.73115601 -75.30302429 148.48519897 C-76.83305735 149.88750937 -78.36331196 151.289579 -79.89482117 152.6902771 C-82.68047476 155.23862771 -85.45572762 157.79689561 -88.21220398 160.37680054 C-88.74426453 160.87204224 -89.27632507 161.36728394 -89.82450867 161.87753296 C-91.31579997 163.26633884 -92.8031611 164.65936134 -94.29032898 166.05258179 C-96.47386552 167.91713784 -98.25791419 169.17112561 -100.88407898 170.26742554 C-100.3692151 174.41074054 -98.20368272 176.25408232 -95.26298523 179.07601929 C-94.32777039 179.98803101 -93.39255554 180.90004272 -92.42900085 181.83969116 C-90.93849594 183.27423771 -89.44540176 184.70605429 -87.95219421 186.13778687 C-86.50800025 187.52752801 -85.07287854 188.92667736 -83.63798523 190.32601929 C-82.77503845 191.15416138 -81.91209167 191.98230347 -81.022995 192.83554077 C-78.05556685 196.20941953 -76.85293333 198.77243457 -76.94657898 203.26742554 C-78.12481788 207.03779002 -79.90853317 208.72732546 -82.88407898 211.26742554 C-86.14455526 212.89766368 -88.26208933 212.73477904 -91.88407898 212.26742554 C-99.15721241 207.38011974 -105.31114896 199.99306864 -111.48612976 193.79574585 C-113.27258866 192.00387493 -115.06439852 190.21747759 -116.85673523 188.43148804 C-117.99898352 187.2885798 -119.14092203 186.14536186 -120.28251648 185.00180054 C-120.81581573 184.47052551 -121.34911499 183.93925049 -121.89857483 183.39187622 C-127.76390843 177.48915946 -127.76390843 177.48915946 -128.25907898 172.45492554 C-128.09184638 167.36362183 -126.07029171 164.32999641 -122.36454773 160.83383179 C-121.08143588 159.71285607 -119.78562904 158.60634615 -118.48173523 157.50961304 C-115.06847484 154.56343038 -111.79452604 151.47968332 -108.50907898 148.39242554 C-103.46596712 143.66543978 -98.39602251 138.97658116 -93.23954773 134.37289429 C-91.52665864 132.84180437 -89.82200094 131.30149035 -88.12236023 129.75570679 C-86.76691101 128.52400757 -86.76691101 128.52400757 -85.38407898 127.26742554 C-84.56939148 126.52492554 -83.75470398 125.78242554 -82.91532898 125.01742554 C-79.38842304 121.97886042 -76.94595745 122.09104793 -72.34501648 121.95101929 C-71.04306335 121.90912476 -69.74111023 121.86723022 -68.39970398 121.82406616 C-67.01949853 121.78425254 -65.63929015 121.74454031 -64.25907898 121.70492554 C-62.87104483 121.66173147 -61.4830237 121.61811689 -60.09501648 121.57406616 C-56.69147642 121.46770554 -53.2878612 121.36567839 -49.88407898 121.26742554 C-49.88407898 120.27742554 -49.88407898 119.28742554 -49.88407898 118.26742554 C-50.54407898 118.06117554 -51.20407898 117.85492554 -51.88407898 117.64242554 C-60.37857649 113.74911418 -65.6341822 108.08694654 -68.98954773 99.40805054 C-71.06955117 92.10533103 -70.97837199 84.64123394 -67.63407898 77.76742554 C-64.09502271 71.6482193 -60.18523277 66.67345461 -53.88407898 63.26742554 C-52.22247314 62.90971765 -50.55592359 62.57373337 -48.88407898 62.26742554 C-48.91549988 61.12696777 -48.91549988 61.12696777 -48.94755554 59.96347046 C-49.03159291 56.46076106 -49.08301521 52.95826477 -49.13407898 49.45492554 C-49.1675946 48.25932007 -49.20111023 47.0637146 -49.23564148 45.83187866 C-49.3849538 32.13247333 -44.87075884 21.71140411 -35.75907898 11.57992554 C-25.79276055 2.07767072 -13.16430885 -0.03719428 0 0 Z M-30.88407898 26.26742554 C-34.58425143 31.80311661 -36.01825901 37.11502047 -35.98173523 43.68930054 C-35.97851257 44.71410522 -35.97528992 45.73890991 -35.9719696 46.79476929 C-35.9635907 47.85824585 -35.95521179 48.92172241 -35.94657898 50.01742554 C-35.94206726 51.09637085 -35.93755554 52.17531616 -35.9329071 53.28695679 C-35.92113625 55.94716937 -35.90469297 58.60726918 -35.88407898 61.26742554 C-34.87631409 61.64616821 -34.87631409 61.64616821 -33.84819031 62.03256226 C-32.95897888 62.37561401 -32.06976746 62.71866577 -31.15361023 63.07211304 C-30.27551697 63.40710815 -29.39742371 63.74210327 -28.49272156 64.08724976 C-21.32273828 67.33102132 -16.96274998 72.64009772 -13.79032898 79.72445679 C-10.72039845 88.33878773 -11.93318615 96.20581076 -15.57157898 104.45492554 C-19.63607527 111.97125507 -26.20863735 115.21913405 -33.88407898 118.26742554 C-34.87407898 118.76242554 -34.87407898 118.76242554 -35.88407898 119.26742554 C-35.88407898 120.25742554 -35.88407898 121.24742554 -35.88407898 122.26742554 C-34.44741882 122.25787842 -34.44741882 122.25787842 -32.98173523 122.24813843 C-29.3953356 122.23360281 -25.81051789 122.26523889 -22.22441101 122.31015015 C-20.67856762 122.32321225 -19.13256776 122.32409554 -17.5867157 122.31210327 C-3.09620957 122.21387841 -3.09620957 122.21387841 1.83467102 126.45492554 C2.96672009 127.69176478 4.06415714 128.96163108 5.11592102 130.26742554 C6.08091435 131.28013313 7.04941817 132.28951275 8.02217102 133.29476929 C8.87810852 134.25512085 9.73404602 135.21547241 10.61592102 136.20492554 C13.78479517 139.72955687 16.98400162 143.1944931 20.36592102 146.51742554 C23.48065531 149.58141059 26.36772386 152.77411099 29.18232727 156.11508179 C29.82041321 156.82535522 30.45849915 157.53562866 31.11592102 158.26742554 C31.68898987 159.1452771 31.68898987 159.1452771 32.27363586 160.04086304 C35.10024951 163.74554719 37.1999786 165.10177829 41.84858704 165.94247437 C45.6390087 166.24178336 49.41323299 166.25089569 53.21308899 166.18002319 C55.61223229 166.14248326 58.00221546 166.17971474 60.40107727 166.22445679 C68.33500874 166.39243385 68.33500874 166.39243385 75.64082336 163.75717163 C77.37304391 162.01852355 78.70788891 160.26931048 80.11592102 158.26742554 C81.29671471 157.19464171 82.50336885 156.14920431 83.74092102 155.14242554 C88.21969129 151.29471487 92.33424533 147.10440843 96.4601593 142.88607788 C98.89885228 140.40880503 101.26677533 138.14914436 104.01045227 135.99789429 C104.70525696 135.4268396 105.40006165 134.85578491 106.11592102 134.26742554 C106.11592102 133.60742554 106.11592102 132.94742554 106.11592102 132.26742554 C106.67891907 132.03112427 107.24191711 131.794823 107.82197571 131.55136108 C110.64847012 129.96935447 112.55196701 128.03878545 114.81904602 125.72445679 C115.71752258 124.81502319 116.61599915 123.9055896 117.54170227 122.96859741 C118.48349033 122.00608022 119.42489457 121.04318734 120.36592102 120.07992554 C125.94070703 114.39928916 131.48036983 108.77148995 137.54853821 103.61386108 C138.78529981 102.55144049 139.9630297 101.42031685 141.11592102 100.26742554 C143.61592102 99.95492554 143.61592102 99.95492554 146.11592102 100.26742554 C148.11592102 103.26742554 148.11592102 103.26742554 148.17842102 105.51742554 C146.41756849 110.0749262 142.50600643 114.07238283 138.11592102 116.26742554 C138.11592102 116.92742554 138.11592102 117.58742554 138.11592102 118.26742554 C137.25087952 118.64242187 137.25087952 118.64242187 136.36836243 119.0249939 C133.80504898 120.43890048 132.11994294 122.05254627 130.07685852 124.14633179 C129.3317804 124.90236694 128.58670227 125.6584021 127.81904602 126.43734741 C126.66662415 127.62167358 126.66662415 127.62167358 125.49092102 128.82992554 C123.95928933 130.39590444 122.42553907 131.95981493 120.88935852 133.52133179 C119.8749469 134.56269287 119.8749469 134.56269287 118.84004211 135.62509155 C117.11592102 137.26742554 117.11592102 137.26742554 115.11592102 138.26742554 C115.11592102 138.92742554 115.11592102 139.58742554 115.11592102 140.26742554 C114.25438416 140.63891724 114.25438416 140.63891724 113.3754425 141.01791382 C110.76676383 142.4605089 109.04549736 144.12770773 106.96357727 146.25961304 C106.18691711 147.04723022 105.41025696 147.83484741 104.61006165 148.64633179 C103.80762024 149.47004272 103.00517883 150.29375366 102.17842102 151.14242554 C100.58834802 152.76714904 98.99596689 154.38961745 97.40107727 156.00961304 C96.34738953 157.09025024 96.34738953 157.09025024 95.27241516 158.19271851 C93.11592102 160.26742554 93.11592102 160.26742554 90.47309875 162.34603882 C87.93127839 164.22538123 87.93127839 164.22538123 86.11592102 167.26742554 C86.43756719 169.22708006 86.43756719 169.22708006 87.11592102 171.26742554 C87.38935852 173.45101929 87.38935852 173.45101929 87.49092102 175.70492554 C87.5399054 176.44613647 87.58888977 177.18734741 87.63935852 177.95101929 C86.79136753 181.70369585 85.17638795 182.95484723 82.11592102 185.26742554 C78.38995782 185.99816726 74.72252637 185.92052719 70.93623352 185.86117554 C69.85010773 185.86121582 68.76398193 185.8612561 67.64494324 185.86129761 C65.35021676 185.85594259 63.05549074 185.83836089 60.76094055 185.80941772 C57.26020307 185.76765556 53.76139629 185.76834351 50.26045227 185.77523804 C48.02736606 185.76474174 45.79428973 185.75180129 43.56123352 185.73617554 C42.51935883 185.73597412 41.47748413 185.73577271 40.40403748 185.73556519 C33.80196821 185.62884597 28.65753149 185.09025183 23.33076477 180.84457397 C22.90924133 180.36020874 22.4877179 179.87584351 22.05342102 179.37680054 C21.57026428 178.83563599 21.08710754 178.29447144 20.58930969 177.73690796 C20.10309143 177.16947876 19.61687317 176.60204956 19.11592102 176.01742554 C18.07144609 174.84066882 17.02588109 173.66487867 15.97920227 172.49008179 C15.23791077 171.64921021 15.23791077 171.64921021 14.48164368 170.79135132 C12.82276509 168.9403109 11.08471357 167.18796637 9.30342102 165.45492554 C6.26753671 162.48568258 3.51838263 159.31809572 0.79170227 156.06430054 C-0.95565134 154.19068128 -2.79466518 152.74230586 -4.88407898 151.26742554 C-5.93849455 155.53255088 -5.98519849 159.63268733 -5.9058075 163.99520874 C-5.89619995 164.75671738 -5.88659241 165.51822601 -5.87669373 166.30281067 C-5.84383685 168.80804074 -5.80345433 171.3130891 -5.76298523 173.81820679 C-5.73867108 175.55983346 -5.71482818 177.30146677 -5.69143677 179.04310608 C-5.62872463 183.61834293 -5.55962176 188.19346168 -5.48918152 192.76858521 C-5.41838159 197.44067017 -5.35363448 202.1128386 -5.28837585 206.78500366 C-5.15952949 215.94590269 -5.02393064 225.10668837 -4.88407898 234.26742554 C31.14262261 234.35900486 67.16930377 234.42947634 103.19609782 234.47168685 C107.45054103 234.47668961 111.70498401 234.48186691 115.95942688 234.4871521 C117.22988758 234.48872596 117.22988758 234.48872596 118.52601416 234.49033162 C132.23547235 234.50773119 145.94486337 234.53926641 159.65428173 234.57603672 C173.72410539 234.61345862 187.79389391 234.63566403 201.8637653 234.64377952 C210.54385232 234.6492647 219.22374946 234.66658171 227.90377802 234.6990914 C233.85808283 234.72025472 239.81228965 234.72662148 245.76662933 234.72143105 C249.20070136 234.71887207 252.63444185 234.72276162 256.06845474 234.74424744 C259.79653118 234.76416281 263.5237967 234.75935786 267.25189209 234.7484436 C268.8701127 234.76592065 268.8701127 234.76592065 270.52102464 234.78375077 C280.16215929 234.70751609 287.25097517 231.8171209 294.32295227 225.26742554 C300.26994662 218.63374121 302.23323673 212.06625369 302.26309204 203.3306427 C302.26860707 202.28360148 302.26860707 202.28360148 302.27423352 201.21540791 C302.28524588 198.87653846 302.28911007 196.53771348 302.29292297 194.19882202 C302.29918961 192.52151855 302.30583659 190.84421647 302.31283569 189.16691589 C302.33385946 183.65746016 302.34423837 178.14800421 302.35420227 172.63851929 C302.35825084 170.73932442 302.36236779 168.8401297 302.36655235 166.94093513 C302.38560247 158.01512114 302.39983235 149.0893154 302.40816432 140.16348499 C302.41792823 129.87447567 302.44422639 119.58568196 302.48466522 109.29674858 C302.51487634 101.33562588 302.52963804 93.37456481 302.53294533 85.41338593 C302.53529064 80.6627912 302.54418292 75.91242686 302.56940651 71.16189384 C302.59277901 66.68764575 302.59688378 62.21377823 302.58664513 57.73948479 C302.58615184 56.10411815 302.59241083 54.46873219 302.60620117 52.83342361 C302.68844485 42.49585753 302.19255103 33.16029732 296.10810852 24.36508179 C295.40943665 23.69348022 294.71076477 23.02187866 293.99092102 22.32992554 C293.3077179 21.6402771 292.62451477 20.95062866 291.92060852 20.24008179 C284.04310488 14.69949775 276.31640639 13.68395594 266.88175964 13.76622009 C265.68646263 13.7606857 264.49116562 13.7551513 263.25964749 13.74944919 C259.96821331 13.73825116 256.67738771 13.74481835 253.38598418 13.75918591 C249.82630503 13.77034598 246.26669087 13.75833666 242.70701599 13.74934387 C235.74461203 13.73544434 228.78239001 13.74294276 221.81999479 13.75801945 C213.70653672 13.77491723 205.59312349 13.77166462 197.47965325 13.76792537 C183.0014389 13.76205301 168.52331164 13.77619485 154.04512024 13.8008728 C140.0053735 13.82480063 125.96574308 13.83187281 111.92597961 13.82138062 C96.6238178 13.80996544 81.32170971 13.80804807 66.01954854 13.82247871 C64.38726561 13.8240045 62.75498268 13.82552486 61.12269974 13.82703972 C60.31965511 13.82779753 59.51661049 13.82855535 58.68923118 13.82933613 C53.03725209 13.83407362 47.38529705 13.83223137 41.73331833 13.82797432 C34.84457424 13.82304239 27.95594 13.82905574 21.06722103 13.84886862 C17.55429548 13.85872421 14.04153701 13.86386451 10.5286026 13.8559761 C6.71759456 13.85002308 2.90707881 13.86252984 -0.90388489 13.87974548 C-2.00991786 13.87373544 -3.11595083 13.86772539 -4.25549996 13.86153322 C-15.8608067 13.95691434 -23.00639789 17.65077613 -30.88407898 26.26742554 Z " fill="#8BC9B2" transform="translate(139.8840789794922,35.732574462890625)"/>
<path d="M0 0 C0.97462189 -0.00524185 1.94924377 -0.0104837 2.95339966 -0.0158844 C4.99870865 -0.02225815 7.04405453 -0.02102855 9.08935547 -0.01245117 C12.18134262 -0.00394468 15.27147585 -0.03276372 18.36328125 -0.06445312 C33.44313949 -0.11880015 46.53957502 0.92155107 58.3203125 11.43359375 C68.39020735 21.66055802 71.49727932 33.14356048 71.5078125 47.12109375 C71.52005859 47.98798828 71.53230469 48.85488281 71.54492188 49.74804688 C71.54685547 50.57626953 71.54878906 51.40449219 71.55078125 52.2578125 C71.55489014 53.01151123 71.55899902 53.76520996 71.56323242 54.54174805 C71.3203125 56.43359375 71.3203125 56.43359375 69.3203125 58.43359375 C67.29942322 58.68527603 67.29942322 58.68527603 64.76538086 58.68756104 C63.326772 58.69602051 63.326772 58.69602051 61.85910034 58.70465088 C60.27562302 58.69857819 60.27562302 58.69857819 58.66015625 58.69238281 C57.55116974 58.69588745 56.44218323 58.69939209 55.29959106 58.70300293 C51.61893529 58.7118347 47.93847037 58.70596592 44.2578125 58.69921875 C41.70955366 58.70056498 39.16129507 58.70250516 36.61303711 58.70501709 C31.26641157 58.70797032 25.919855 58.70385392 20.57324219 58.69433594 C14.38726979 58.68345107 8.20142922 58.68697655 2.01546001 58.69798875 C-3.92939162 58.70814911 -9.8742022 58.70708539 -15.81906128 58.70122528 C-18.35171527 58.69988729 -20.88437261 58.70154168 -23.41702271 58.70618439 C-26.95128402 58.71124073 -30.48528911 58.70355179 -34.01953125 58.69238281 C-35.60300858 58.69845551 -35.60300858 58.69845551 -37.21847534 58.70465088 C-38.17754791 58.69901123 -39.13662048 58.69337158 -40.12475586 58.68756104 C-40.96098984 58.68680698 -41.79722382 58.68605293 -42.65879822 58.68527603 C-44.6796875 58.43359375 -44.6796875 58.43359375 -46.6796875 56.43359375 C-46.88156198 53.55985112 -46.96343117 50.80613166 -46.9296875 47.93359375 C-46.92219482 47.11568359 -46.91470215 46.29777344 -46.90698242 45.45507812 C-46.66848102 32.03504419 -43.28689311 21.41543528 -33.90625 11.47265625 C-24.30143956 2.67667195 -12.74481362 -0.04117609 0 0 Z " fill="#89C8B1" transform="translate(435.6796875,387.56640625)"/>
<path d="M0 0 C0.97462189 -0.00524185 1.94924377 -0.0104837 2.95339966 -0.0158844 C4.99870865 -0.02225815 7.04405453 -0.02102855 9.08935547 -0.01245117 C12.18134262 -0.00394468 15.27147585 -0.03276372 18.36328125 -0.06445312 C33.40862281 -0.11875176 46.58320178 0.89288447 58.3203125 11.43359375 C68.19360732 22.31474853 71.5739227 33.00596559 71.6328125 47.55859375 C71.64090942 48.82147217 71.64090942 48.82147217 71.64916992 50.10986328 C71.57803068 56.17587557 71.57803068 56.17587557 69.3203125 58.43359375 C67.29942322 58.68527603 67.29942322 58.68527603 64.76538086 58.68756104 C63.326772 58.69602051 63.326772 58.69602051 61.85910034 58.70465088 C60.27562302 58.69857819 60.27562302 58.69857819 58.66015625 58.69238281 C57.55116974 58.69588745 56.44218323 58.69939209 55.29959106 58.70300293 C51.61893529 58.7118347 47.93847037 58.70596592 44.2578125 58.69921875 C41.70955366 58.70056498 39.16129507 58.70250516 36.61303711 58.70501709 C31.26641157 58.70797032 25.919855 58.70385392 20.57324219 58.69433594 C14.38726979 58.68345107 8.20142922 58.68697655 2.01546001 58.69798875 C-3.92939162 58.70814911 -9.8742022 58.70708539 -15.81906128 58.70122528 C-18.35171527 58.69988729 -20.88437261 58.70154168 -23.41702271 58.70618439 C-26.95128402 58.71124073 -30.48528911 58.70355179 -34.01953125 58.69238281 C-35.60300858 58.69845551 -35.60300858 58.69845551 -37.21847534 58.70465088 C-38.17754791 58.69901123 -39.13662048 58.69337158 -40.12475586 58.68756104 C-40.96098984 58.68680698 -41.79722382 58.68605293 -42.65879822 58.68527603 C-44.6796875 58.43359375 -44.6796875 58.43359375 -46.6796875 56.43359375 C-46.93847656 54.60522461 -46.93847656 54.60522461 -46.9453125 52.3984375 C-46.94917969 51.18317383 -46.94917969 51.18317383 -46.953125 49.94335938 C-46.94539063 49.09451172 -46.93765625 48.24566406 -46.9296875 47.37109375 C-46.93742187 46.54931641 -46.94515625 45.72753906 -46.953125 44.88085938 C-46.91208302 31.83976897 -42.92925521 21.03636589 -33.90625 11.47265625 C-24.30143956 2.67667195 -12.74481362 -0.04117609 0 0 Z " fill="#8BC9B2" transform="translate(306.6796875,387.56640625)"/>
<path d="M0 0 C0.98311157 -0.00807175 1.96622314 -0.01614349 2.97912598 -0.02445984 C5.06028497 -0.03827093 7.14146634 -0.04900634 9.22265625 -0.05688477 C11.33079767 -0.06836314 13.43891098 -0.08874857 15.546875 -0.1184082 C31.73789085 -0.34596724 46.17347287 -0.19660295 58.90625 11.23828125 C68.85120046 22.19840624 72.15576748 33.26257088 72.21875 47.92578125 C72.22684692 49.11143677 72.22684692 49.11143677 72.23510742 50.32104492 C72.1642202 55.98031105 72.1642202 55.98031105 69.90625 58.23828125 C67.88536072 58.48996353 67.88536072 58.48996353 65.35131836 58.49224854 C63.9127095 58.50070801 63.9127095 58.50070801 62.44503784 58.50933838 C60.86156052 58.50326569 60.86156052 58.50326569 59.24609375 58.49707031 C58.13710724 58.50057495 57.02812073 58.50407959 55.88552856 58.50769043 C52.20487279 58.5165222 48.52440787 58.51065342 44.84375 58.50390625 C42.29549116 58.50525248 39.74723257 58.50719266 37.19897461 58.50970459 C31.85234907 58.51265782 26.5057925 58.50854142 21.15917969 58.49902344 C14.97320729 58.48813857 8.78736672 58.49166405 2.60139751 58.50267625 C-3.34345412 58.51283661 -9.2882647 58.51177289 -15.23312378 58.50591278 C-17.76577777 58.50457479 -20.29843511 58.50622918 -22.83108521 58.51087189 C-26.36534652 58.51592823 -29.89935161 58.50823929 -33.43359375 58.49707031 C-35.01707108 58.50314301 -35.01707108 58.50314301 -36.63253784 58.50933838 C-37.59161041 58.50369873 -38.55068298 58.49805908 -39.53881836 58.49224854 C-40.37505234 58.49149448 -41.21128632 58.49074043 -42.07286072 58.48996353 C-44.09375 58.23828125 -44.09375 58.23828125 -46.09375 56.23828125 C-48.15606363 43.05853743 -46.16236023 29.050539 -38.84375 17.86328125 C-28.75912147 4.70849097 -16.19526859 0.12732293 0 0 Z " fill="#8AC8B2" transform="translate(177.09375,387.76171875)"/>
<path d="M0 0 C1.18189323 -0.00453111 2.36378646 -0.00906223 3.58149463 -0.01373065 C6.8448209 -0.02416678 10.10800783 -0.02570633 13.3713454 -0.02334189 C16.89774632 -0.02293241 20.42411482 -0.03398548 23.95050049 -0.04345703 C30.85330266 -0.06004007 37.75607067 -0.06556537 44.6588911 -0.06668179 C50.27310571 -0.06763363 55.8873091 -0.07175073 61.50152016 -0.07808304 C77.43629029 -0.09568882 93.37103353 -0.10492306 109.30581345 -0.10342209 C110.59324858 -0.10330222 110.59324858 -0.10330222 111.9066925 -0.10317993 C112.76603674 -0.10309817 113.62538098 -0.10301641 114.51076595 -0.10293217 C128.43041953 -0.10211967 142.3499648 -0.12125005 156.26958706 -0.14945666 C170.57925784 -0.17822367 184.88887586 -0.19199483 199.19857627 -0.19026911 C207.22547565 -0.18960648 215.2522615 -0.19504279 223.27913475 -0.21662521 C230.1147229 -0.23488742 236.95014609 -0.23914326 243.78574815 -0.22560637 C247.2689631 -0.21910171 250.75186202 -0.21886782 254.23504639 -0.23631287 C258.02261797 -0.25181333 261.80936914 -0.24242404 265.59692383 -0.22705078 C266.68197494 -0.23733791 267.76702605 -0.24762503 268.88495749 -0.25822389 C282.06421701 -0.14066656 292.96545103 3.94840554 302.80342102 12.64242554 C311.15298636 22.12031052 311.15298636 22.12031052 312.11592102 27.26742554 C311.33217102 27.55617554 310.54842102 27.84492554 309.74092102 28.14242554 C307.0192047 29.11654807 307.0192047 29.11654807 305.11592102 31.26742554 C304.45592102 30.60742554 303.79592102 29.94742554 303.11592102 29.26742554 C303.18642323 30.00754883 303.25692545 30.74767212 303.32956409 31.51022339 C304.1378105 40.80548375 304.26454553 50.04121264 304.26118469 59.36117554 C304.26418373 61.03968886 304.26758795 62.7182015 304.2713623 64.39671326 C304.28012213 68.91473384 304.28253676 73.43273544 304.28317809 77.9507637 C304.28389217 80.77693119 304.28603304 83.60309395 304.28867531 86.42926025 C304.29789598 96.29703068 304.30201355 106.16478767 304.30122375 116.03256226 C304.30062102 125.2218967 304.3112194 134.41117281 304.32696742 143.60049248 C304.34003373 151.50735182 304.34540817 159.41419203 304.34476835 167.32106209 C304.34451347 172.03660265 304.34736022 176.75209108 304.3579464 181.46762085 C304.36761421 185.89346487 304.36771567 190.31920666 304.36042976 194.74505424 C304.3593829 196.36842434 304.36175285 197.99180078 304.36779022 199.61515999 C304.37549748 201.8308308 304.37087425 204.04614723 304.36315918 206.2618103 C304.36370395 207.5013295 304.36424871 208.74084869 304.36480999 210.01792908 C303.99604034 214.83258874 303.12907569 217.37488452 299.49092102 220.57992554 C298.70717102 221.13680054 297.92342102 221.69367554 297.11592102 222.26742554 C297.54904602 221.24648804 297.54904602 221.24648804 297.99092102 220.20492554 C300.22576095 214.36951017 301.36652613 209.23119268 301.38334656 202.96987915 C301.39014323 201.91899302 301.39014323 201.91899302 301.3970772 200.84687686 C301.40965981 198.51726466 301.40810485 196.1878881 301.40644836 193.85824585 C301.41243751 192.18049827 301.41924395 190.50275344 301.42680359 188.82501221 C301.44443275 184.27936375 301.4491577 179.73379065 301.45043516 175.18811131 C301.45185921 172.34416743 301.45613365 169.50024255 301.4614296 166.65630341 C301.47992058 156.72327972 301.48810149 146.79030962 301.48652649 136.85726929 C301.48532576 127.61698279 301.50641701 118.37693013 301.53801382 109.13670278 C301.56421905 101.18824905 301.57489199 93.23987149 301.57361567 85.29137492 C301.57310723 80.55089893 301.57872478 75.81063079 301.59997177 71.07019806 C301.61942555 66.60820366 301.61943014 62.14661384 301.60493851 57.68460464 C301.60285805 56.05407999 301.60750548 54.42352954 301.61965942 52.79304886 C301.69742319 41.63110259 301.18930226 31.60427793 293.49092102 22.82992554 C287.2461955 16.51702615 278.77992418 14.8185099 270.21985519 14.73711401 C268.56749789 14.75152152 268.56749789 14.75152152 266.88175964 14.76622009 C265.68646263 14.7606857 264.49116562 14.7551513 263.25964749 14.74944919 C259.96821331 14.73825116 256.67738771 14.74481835 253.38598418 14.75918591 C249.82630503 14.77034598 246.26669087 14.75833666 242.70701599 14.74934387 C235.74461203 14.73544434 228.78239001 14.74294276 221.81999479 14.75801945 C213.70653672 14.77491723 205.59312349 14.77166462 197.47965325 14.76792537 C183.0014389 14.76205301 168.52331164 14.77619485 154.04512024 14.8008728 C140.0053735 14.82480063 125.96574308 14.83187281 111.92597961 14.82138062 C96.6238178 14.80996544 81.32170971 14.80804807 66.01954854 14.82247871 C64.38726561 14.8240045 62.75498268 14.82552486 61.12269974 14.82703972 C60.31965511 14.82779753 59.51661049 14.82855535 58.68923118 14.82933613 C53.03725209 14.83407362 47.38529705 14.83223137 41.73331833 14.82797432 C34.84457424 14.82304239 27.95594 14.82905574 21.06722103 14.84886862 C17.55429548 14.85872421 14.04153701 14.86386451 10.5286026 14.8559761 C6.71759456 14.85002308 2.90707881 14.86252984 -0.90388489 14.87974548 C-2.00991786 14.87373544 -3.11595083 14.86772539 -4.25549996 14.86153322 C-14.13729458 14.94274923 -20.60141343 17.24330934 -27.89970398 24.07601929 C-33.06867737 29.78427533 -34.90629261 36.12434739 -35.20048523 43.68930054 C-35.24237976 44.71410522 -35.28427429 45.73890991 -35.32743835 46.79476929 C-35.36675476 47.85824585 -35.40607117 48.92172241 -35.44657898 50.01742554 C-35.48976257 51.09637085 -35.53294617 52.17531616 -35.57743835 53.28695679 C-35.68336887 55.94698982 -35.78544319 58.60711366 -35.88407898 61.26742554 C-35.22407898 61.59742554 -34.56407898 61.92742554 -33.88407898 62.26742554 C-34.87407898 62.26742554 -35.86407898 62.26742554 -36.88407898 62.26742554 C-36.93386731 58.26559304 -36.96998062 54.26388289 -36.99394226 50.2618103 C-37.00394141 48.90305435 -37.01754521 47.54431959 -37.03495789 46.18563843 C-37.05947492 44.22211258 -37.0695486 42.25842352 -37.07939148 40.29476929 C-37.08986511 39.1164856 -37.10033875 37.9382019 -37.11112976 36.72421265 C-36.88407898 33.26742554 -36.88407898 33.26742554 -35.80937195 29.51571655 C-34.5616805 26.29457401 -34.5616805 26.29457401 -35.88407898 23.26742554 C-35.44657898 21.07992554 -35.44657898 21.07992554 -34.88407898 19.26742554 C-35.54407898 19.26742554 -36.20407898 19.26742554 -36.88407898 19.26742554 C-37.21407898 19.92742554 -37.54407898 20.58742554 -37.88407898 21.26742554 C-42.41618907 27.11146223 -42.41618907 27.11146223 -45.88407898 28.26742554 C-43.53442821 18.86882246 -36.46436642 11.91499068 -28.88407898 6.26742554 C-19.67167297 0.97185882 -10.42765216 -0.02946217 0 0 Z " fill="#91CBB6" transform="translate(139.8840789794922,35.732574462890625)"/>
<path d="M0 0 C6.53541476 5.47126005 10.19519443 10.75679009 11.375 19.23828125 C11.86035275 27.36482863 10.26452783 33.25863867 5.0703125 39.58203125 C-0.4675546 45.64337832 -7.02936834 48.65674635 -15.17578125 49.29296875 C-23.11037643 49.31963966 -28.78146157 46.74242203 -34.5 41.30078125 C-39.77982986 35.63462237 -42.44767398 30.40630536 -42.52734375 22.6328125 C-42.05212949 13.79870121 -39.70267954 8.12196144 -33.3125 1.98828125 C-23.58871838 -6.1388203 -10.69102894 -7.26655873 0 0 Z " fill="#89C8B1" transform="translate(463.5,332.69921875)"/>
<path d="M0 0 C6.56357556 5.49483546 10.20300411 10.7842778 11.375 19.30078125 C11.87695207 27.50769765 9.52916791 33.82676952 4.5 40.30078125 C-0.8348999 45.98937617 -7.50238181 48.69368798 -15.17578125 49.29296875 C-23.11037643 49.31963966 -28.78146157 46.74242203 -34.5 41.30078125 C-39.77982986 35.63462237 -42.44767398 30.40630536 -42.52734375 22.6328125 C-42.05212949 13.79870121 -39.70267954 8.12196144 -33.3125 1.98828125 C-23.58871838 -6.1388203 -10.69102894 -7.26655873 0 0 Z " fill="#87C7B0" transform="translate(205.5,332.69921875)"/>
<path d="M0 0 C6.56357556 5.49483546 10.20300411 10.7842778 11.375 19.30078125 C11.87695207 27.50769765 9.52916791 33.82676952 4.5 40.30078125 C-0.8348999 45.98937617 -7.50238181 48.69368798 -15.17578125 49.29296875 C-23.11037643 49.31963966 -28.78146157 46.74242203 -34.5 41.30078125 C-39.77982986 35.63462237 -42.44767398 30.40630536 -42.52734375 22.6328125 C-42.05212949 13.79870121 -39.70267954 8.12196144 -33.3125 1.98828125 C-23.58871838 -6.1388203 -10.69102894 -7.26655873 0 0 Z " fill="#88C7B0" transform="translate(334.5,332.69921875)"/>
<path d="M0 0 C2.5625 0.375 2.5625 0.375 4.4375 2.0625 C5.89404282 5.05650469 5.54238003 6.22438096 4.5625 9.375 C2.78515625 11.61328125 2.78515625 11.61328125 0.625 13.6875 C-0.08527344 14.38488281 -0.79554688 15.08226562 -1.52734375 15.80078125 C-3.4375 17.375 -3.4375 17.375 -5.4375 17.375 C-5.4375 18.035 -5.4375 18.695 -5.4375 19.375 C-6.73046875 20.64453125 -6.73046875 20.64453125 -8.625 22.1875 C-13.39340259 26.21110721 -17.71548618 30.62099605 -22.04370117 35.10668945 C-23.47232136 36.56558334 -24.95114992 37.9749677 -26.4375 39.375 C-27.0975 39.375 -27.7575 39.375 -28.4375 39.375 C-28.4375 40.035 -28.4375 40.695 -28.4375 41.375 C-29.6953125 42.609375 -29.6953125 42.609375 -31.5625 44.125 C-36.58364063 48.36045856 -41.12456489 53.03429058 -45.68798828 57.75097656 C-46.27306152 58.34749023 -46.85813477 58.94400391 -47.4609375 59.55859375 C-47.98606934 60.10056396 -48.51120117 60.64253418 -49.05224609 61.20092773 C-50.4375 62.375 -50.4375 62.375 -52.4375 62.375 C-52.7675 63.365 -53.0975 64.355 -53.4375 65.375 C-54.0975 65.375 -54.7575 65.375 -55.4375 65.375 C-56.0975 67.355 -56.7575 69.335 -57.4375 71.375 C-58.4275 71.045 -59.4175 70.715 -60.4375 70.375 C-60.63372241 66.15621808 -60.23980168 63.20489106 -58.4375 59.375 C-59.0975 60.035 -59.7575 60.695 -60.4375 61.375 C-61.3965625 61.5296875 -61.3965625 61.5296875 -62.375 61.6875 C-65.38944999 62.69231666 -66.00515681 64.64672727 -67.4375 67.375 C-68.4375 68.375 -68.4375 68.375 -72.03930664 68.48852539 C-73.64209856 68.48836625 -75.2448956 68.48267063 -76.84765625 68.47265625 C-77.68969101 68.4712413 -78.53172577 68.46982635 -79.39927673 68.46836853 C-82.09955335 68.46275263 -84.79974828 68.45019748 -87.5 68.4375 C-89.32617068 68.43248705 -91.15234266 68.42792379 -92.97851562 68.42382812 C-97.46487542 68.41277804 -101.95117384 68.39550279 -106.4375 68.375 C-106.1075 67.385 -105.7775 66.395 -105.4375 65.375 C-104.41390381 65.41165771 -103.39030762 65.44831543 -102.33569336 65.48608398 C-98.51370614 65.61342396 -94.69190344 65.69337105 -90.8684082 65.75952148 C-89.21834721 65.79458104 -87.56850146 65.8422456 -85.91918945 65.90307617 C-76.5688523 66.54825261 -76.5688523 66.54825261 -67.88183594 63.89550781 C-66.14633578 62.14710431 -64.83104223 60.39765645 -63.4375 58.375 C-62.25784004 57.30096962 -61.0512411 56.25531556 -59.8125 55.25 C-55.21807274 51.31579556 -51.02724936 46.99114424 -46.82958984 42.64208984 C-45.40168301 41.18346616 -43.92334626 39.77455774 -42.4375 38.375 C-41.7775 38.375 -41.1175 38.375 -40.4375 38.375 C-40.1075 37.385 -39.7775 36.395 -39.4375 35.375 C-38.7775 35.375 -38.1175 35.375 -37.4375 35.375 C-37.4375 34.715 -37.4375 34.055 -37.4375 33.375 C-35.98632812 31.94726562 -35.98632812 31.94726562 -33.96875 30.28125 C-29.37541178 26.37529514 -25.16009253 22.17450678 -20.9375 17.875 C-16.13748403 12.98755205 -11.29123178 8.25788186 -6.08398438 3.80273438 C-2.06497857 0.31768901 -2.06497857 0.31768901 0 0 Z " fill="#95CCB8" transform="translate(283.4375,134.625)"/>
<path d="M0 0 C1.18330436 -0.00382555 2.36660872 -0.00765109 3.58577079 -0.01159257 C6.85296252 -0.02009854 10.12000979 -0.01969931 13.38720524 -0.01541197 C16.91765395 -0.01293864 20.44807656 -0.02196649 23.97851562 -0.02944946 C30.88867222 -0.04218205 37.79878993 -0.04399192 44.70895628 -0.0416492 C50.3279549 -0.03986412 55.94694174 -0.04161976 61.56593895 -0.04587364 C62.76683128 -0.04676643 62.76683128 -0.04676643 63.99198407 -0.04767724 C65.61855875 -0.04888904 67.24513344 -0.05010317 68.87170812 -0.05131962 C84.11739929 -0.0621898 99.36306832 -0.06003525 114.60876074 -0.05393478 C128.54267988 -0.0487672 142.47652909 -0.06001778 156.4104344 -0.07903299 C170.73139456 -0.09842596 185.05232164 -0.10666477 199.37329501 -0.10290974 C207.40793229 -0.10099977 215.44251007 -0.10346528 223.47713661 -0.11762428 C230.31788688 -0.12955773 237.15854101 -0.13092108 243.99929265 -0.11883412 C247.4862573 -0.1129589 250.97304629 -0.11180806 254.45999908 -0.12383652 C258.24815283 -0.13430877 262.03583753 -0.12619862 265.82397461 -0.11352539 C267.4602898 -0.12458682 267.4602898 -0.12458682 269.12966186 -0.13587171 C276.20559793 -0.08622667 282.37581739 1.06992467 289.10246277 3.26069641 C287.35246277 4.38569641 287.35246277 4.38569641 285.10246277 5.26069641 C283.16729742 4.40177572 283.16729742 4.40177572 281.10246277 3.26069641 C278.69244627 2.96087231 278.69244627 2.96087231 276.0651083 3.00342751 C275.04329289 2.99697861 274.02147748 2.99052972 272.96869797 2.98388541 C271.8478048 2.98698261 270.72691163 2.99007982 269.572052 2.99327087 C268.37991468 2.98873976 267.18777737 2.98420865 265.95951468 2.97954023 C262.64905581 2.96905724 259.33881392 2.96757257 256.02835381 2.96992898 C252.45829401 2.97033676 248.88826673 2.95930142 245.31822205 2.94981384 C238.32196267 2.9331922 231.325737 2.9277037 224.32945954 2.92658909 C218.64028466 2.92563881 212.9511209 2.9215295 207.26194954 2.91518784 C191.12740296 2.89756934 174.99288299 2.88834948 158.85832673 2.88984878 C157.55326953 2.88996865 157.55326953 2.88996865 156.22184753 2.89009094 C155.35074483 2.8901727 154.47964212 2.89025447 153.58214236 2.8903387 C139.47658793 2.89115094 125.37114046 2.87203057 111.26561695 2.84381421 C96.77754059 2.81506179 82.28951634 2.80127533 67.80141073 2.80300176 C59.66944049 2.80366503 51.53758225 2.79820094 43.40563774 2.77664566 C36.47876758 2.75840243 29.55206013 2.75411193 22.6251763 2.76766451 C19.09363215 2.77417948 15.56239988 2.77436543 12.0308857 2.75695801 C8.1943671 2.73824262 4.35830002 2.75082099 0.52175903 2.76622009 C-0.58351908 2.75593297 -1.6887972 2.74564584 -2.82756859 2.73504698 C-11.76124327 2.81404966 -18.99867168 5.19646068 -26.89753723 9.26069641 C-27.88753723 8.60069641 -28.87753723 7.94069641 -29.89753723 7.26069641 C-28.403193 6.45840504 -26.90167251 5.66947775 -25.39753723 4.88569641 C-24.56222473 4.44483704 -23.72691223 4.00397766 -22.86628723 3.54975891 C-15.24390197 0.240039 -8.19659839 -0.02822383 0 0 Z " fill="#C9E7DA" transform="translate(139.8975372314453,35.73930358886719)"/>
<path d="M0 0 C5.29764008 9.51985013 4.28943134 21.57776921 4.25878906 32.15063477 C4.26150528 33.74044962 4.26506973 35.33026321 4.26940918 36.92007446 C4.27845977 41.2030556 4.27501965 45.48593944 4.26865101 49.76892209 C4.26355366 54.27075014 4.26829269 58.77257039 4.27142334 63.2743988 C4.27505179 70.83032716 4.27029301 78.38621629 4.26074219 85.94213867 C4.24985586 94.65475721 4.25338905 103.36728214 4.264395 112.07989842 C4.2734952 119.58684001 4.27473994 127.09375356 4.26951766 134.60069889 C4.26641346 139.07275388 4.2659458 143.54476499 4.27259064 148.01681709 C4.27840352 152.22188919 4.27429569 156.42684152 4.26280212 160.63190079 C4.26017667 162.16728073 4.26088407 163.70267089 4.26532745 165.23804665 C4.29319534 175.85295645 3.79560113 185.96876843 0 196 C-0.33 196 -0.66 196 -1 196 C-0.85966889 194.02043559 -0.7125877 192.04134859 -0.5625 190.0625 C-0.48128906 188.96035156 -0.40007812 187.85820312 -0.31640625 186.72265625 C0 184 0 184 1 183 C1.0992121 180.78962672 1.12632412 178.5760172 1.12698364 176.36341858 C1.12854363 175.66160428 1.13010362 174.95978998 1.13171089 174.23670858 C1.13572324 171.86750162 1.13253033 169.49835791 1.12939453 167.12915039 C1.13074848 165.43768781 1.13252838 163.74622552 1.13470459 162.05476379 C1.13928003 157.44739034 1.13748882 152.84003917 1.1343255 148.2326653 C1.13180206 143.42093293 1.13413944 138.60920253 1.13571167 133.79747009 C1.13753359 125.71434179 1.13512667 117.63122262 1.13037109 109.5480957 C1.12493027 100.19196595 1.12668974 90.83585798 1.1321975 81.47972876 C1.13673019 73.46020892 1.13737835 65.44069565 1.13475883 57.42117494 C1.13319668 52.62564419 1.13300056 47.83012369 1.13629532 43.03459358 C1.13917623 38.52604206 1.13719425 34.01751873 1.13140106 29.50897026 C1.13007457 27.8504885 1.13046571 26.19200439 1.13266373 24.53352356 C1.13537962 22.27683829 1.13198866 20.02024444 1.12698364 17.76356506 C1.1264181 15.86569795 1.1264181 15.86569795 1.12584114 13.92949009 C1.20255841 11.06477071 1.20255841 11.06477071 0 9 C-0.06950541 7.45976004 -0.08452357 5.91665012 -0.0625 4.375 C-0.05347656 3.55773437 -0.04445313 2.74046875 -0.03515625 1.8984375 C-0.02355469 1.27195312 -0.01195312 0.64546875 0 0 Z " fill="#D5E9E3" transform="translate(452,63)"/>
<path d="M0 0 C3.92206162 3.92206162 3.12665273 9.91793808 3.13371277 15.17970276 C3.13597833 15.87958893 3.13824388 16.57947511 3.14057809 17.30056995 C3.14688166 19.63342109 3.14609109 21.96621358 3.14526367 24.29907227 C3.14825734 25.97655309 3.15166035 27.65403322 3.15544128 29.33151245 C3.16426188 33.8788722 3.16661851 38.42621312 3.16725707 42.9735806 C3.16796839 45.81495372 3.1701042 48.65632208 3.17275429 51.49769402 C3.1819995 61.41081928 3.18608998 71.32393111 3.18530273 81.23706055 C3.18470134 90.47794028 3.19526727 99.71876175 3.2110464 108.95962673 C3.2241154 116.89606869 3.22948694 124.83249157 3.22884732 132.7689442 C3.22859226 137.50806315 3.23144864 142.24713025 3.24202538 146.98623848 C3.2516962 151.44071667 3.25179253 155.8950933 3.24450874 160.34957504 C3.24346181 161.9842271 3.24583221 163.61888545 3.2518692 165.25352669 C3.25957649 167.48489795 3.25495295 169.71591731 3.24723816 171.94728088 C3.24778293 173.19589181 3.24832769 174.44450274 3.24888897 175.73095036 C2.88149892 180.55646078 2.02126711 183.10031231 -1.625 186.3125 C-2.40875 186.869375 -3.1925 187.42625 -4 188 C-3.71125 187.319375 -3.4225 186.63875 -3.125 185.9375 C-0.85457768 180.00917506 0.2495913 174.83870332 0.24050903 168.47657776 C0.24221788 167.75189157 0.24392673 167.02720538 0.24568737 166.280559 C0.24896249 163.86996047 0.23801153 161.45964484 0.22705078 159.04907227 C0.22648624 157.31407172 0.22680407 155.5790707 0.22793579 153.84407043 C0.22850862 149.14624557 0.21676553 144.44852325 0.20278788 139.75072217 C0.19026897 134.83666332 0.1891091 129.922602 0.18673706 125.00852966 C0.18052571 115.70850715 0.16411954 106.40853176 0.14403808 97.10852998 C0.12166837 86.51849111 0.11068295 75.92844996 0.10064721 65.33839333 C0.07975302 43.5589026 0.04458373 21.77945427 0 0 Z " fill="#BADED1" transform="translate(441,70)"/>
<path d="M0 0 C0 2.71929057 -0.05620165 4.4832044 -1 7 C-3.83230904 9.73115514 -6.21474172 10.28387005 -10 11 C-10.33 11.66 -10.66 12.32 -11 13 C-13.99407572 14.05518947 -16.8210692 14.12442362 -19.97437668 14.12304783 C-21.48592476 14.1260344 -21.48592476 14.1260344 -23.02800918 14.12908131 C-24.13305997 14.12616847 -25.23811077 14.12325563 -26.37664795 14.12025452 C-27.55204518 14.12110894 -28.7274424 14.12196337 -29.93845773 14.12284368 C-33.20168676 14.12420731 -36.46487619 14.12107705 -39.72810054 14.11606562 C-43.24680884 14.11175114 -46.76551526 14.11320826 -50.28422546 14.1139679 C-56.38087147 14.1144925 -62.47750677 14.11135235 -68.57415009 14.10573006 C-77.3888955 14.09760643 -86.20363574 14.09499895 -95.01838449 14.09374207 C-109.31938816 14.09155291 -123.62038614 14.0848965 -137.92138672 14.07543945 C-151.81429007 14.06626182 -165.70719188 14.0591827 -179.60009766 14.05493164 C-180.45631449 14.05466892 -181.31253133 14.05440619 -182.19469413 14.05413551 C-186.49004003 14.05283048 -190.78538595 14.05156677 -195.08073187 14.05032361 C-230.72049198 14.03995523 -266.36024546 14.0223406 -302 14 C-302 13.67 -302 13.34 -302 13 C-207.95 13 -113.9 13 -17 13 C-17 12.34 -17 11.68 -17 11 C-16.443125 10.79246094 -15.88625 10.58492188 -15.3125 10.37109375 C-9.16374288 7.88874079 -4.74412011 4.60192578 0 0 Z " fill="#A4CABE" transform="translate(436,258)"/>
<path d="M0 0 C2.31 0 4.62 0 7 0 C5.71639318 2.56721364 4.86035328 2.66198775 2.19323826 3.60245228 C-3.57086324 5.40407914 -9.09542819 5.40830617 -15.09181213 5.36076355 C-16.28373214 5.36332682 -17.47565215 5.3658901 -18.70369095 5.36853105 C-21.98994735 5.37259982 -25.27584371 5.36329422 -28.56205761 5.34819686 C-32.11407931 5.33518777 -35.66608556 5.33962939 -39.21812439 5.34190369 C-45.36491896 5.34347335 -51.51161767 5.33409632 -57.65838814 5.31719017 C-66.54546563 5.29276302 -75.43249697 5.28499111 -84.31960439 5.2812262 C-98.73986993 5.27466753 -113.16008442 5.25472227 -127.58032227 5.22631836 C-141.58455145 5.19876263 -155.58876674 5.17753646 -169.59301758 5.16479492 C-170.45688178 5.16400675 -171.32074599 5.16321858 -172.2107879 5.16240653 C-176.54473277 5.15849129 -180.87867773 5.15470019 -185.21262276 5.15097082 C-221.14178454 5.11989313 -257.07088829 5.06707329 -293 5 C-293 4.67 -293 4.34 -293 4 C-196.64 3.67 -100.28 3.34 -1 3 C-0.67 2.01 -0.34 1.02 0 0 Z " fill="#AAD1C4" transform="translate(425,278)"/>
<path d="M0 0 C0.99 0.495 0.99 0.495 2 1 C1.18595703 1.77923828 1.18595703 1.77923828 0.35546875 2.57421875 C-3.35464118 6.19074032 -6.48027648 9.4405003 -9 14 C-15.69279661 22.58050847 -15.69279661 22.58050847 -20.0625 23.375 C-22.99282685 24.32026673 -23.61772489 26.36709502 -25 29 C-26 30 -26 30 -29.60180664 30.11352539 C-31.20459856 30.11336625 -32.8073956 30.10767063 -34.41015625 30.09765625 C-35.25219101 30.0962413 -36.09422577 30.09482635 -36.96177673 30.09336853 C-39.66205335 30.08775263 -42.36224828 30.07519748 -45.0625 30.0625 C-46.88867068 30.05748705 -48.71484266 30.05292379 -50.54101562 30.04882812 C-55.02737542 30.03777804 -59.51367384 30.02050279 -64 30 C-63.505 28.515 -63.505 28.515 -63 27 C-61.97640381 27.03665771 -60.95280762 27.07331543 -59.89819336 27.11108398 C-56.07620614 27.23842396 -52.25440344 27.31837105 -48.4309082 27.38452148 C-46.78084721 27.41958104 -45.13100146 27.4672456 -43.48168945 27.52807617 C-34.1313523 28.17325261 -34.1313523 28.17325261 -25.44433594 25.52050781 C-23.70883578 23.77210431 -22.39354223 22.02265645 -21 20 C-19.82019905 18.92612449 -18.61360565 17.88048244 -17.375 16.875 C-11.24927366 11.60881234 -5.66912946 5.74690715 0 0 Z " fill="#B0D6C7" transform="translate(241,173)"/>
<path d="M0 0 C2.10352956 8.41411823 1 17.32692545 1 26 C38.29 26 75.58 26 114 26 C114 26.66 114 27.32 114 28 C75.72 28 37.44 28 -2 28 C-2 7.10714286 -2 7.10714286 0 0 Z " fill="#9FCBBD" transform="translate(391,416)"/>
<path d="M0 0 C0.8947554 -0.00637985 1.7895108 -0.0127597 2.71138 -0.01933289 C3.66667099 -0.02044571 4.62196198 -0.02155853 5.60620117 -0.02270508 C7.09865608 -0.02769768 7.09865608 -0.02769768 8.6212616 -0.03279114 C10.7234145 -0.03784585 12.8255754 -0.04019991 14.92773438 -0.04003906 C18.12733339 -0.04222143 21.32658516 -0.06038147 24.52612305 -0.0793457 C26.57364792 -0.08228083 28.62117441 -0.08426483 30.66870117 -0.08520508 C31.61791946 -0.09239059 32.56713776 -0.09957611 33.54512024 -0.10697937 C39.15355627 -0.08789636 43.95333805 0.55348818 49.33666992 2.14526367 C46.16909696 3.08541314 43.3660374 3.2514321 40.06835938 3.21118164 C38.49070549 3.19654373 38.49070549 3.19654373 36.88117981 3.18161011 C35.18272163 3.15975143 35.18272163 3.15975143 33.44995117 3.13745117 C31.0430544 3.11992721 28.63615308 3.10301967 26.22924805 3.08666992 C22.441766 3.05577572 18.65451245 3.0203292 14.8671875 2.97387695 C11.20724709 2.93134451 7.54757224 2.90803768 3.88745117 2.88745117 C2.76526688 2.86883026 1.64308258 2.85020935 0.4868927 2.83102417 C-5.76744638 2.81078655 -12.10144308 2.92772769 -17.66333008 6.14526367 C-17.99333008 7.13526367 -18.32333008 8.12526367 -18.66333008 9.14526367 C-20.97583008 10.89526367 -20.97583008 10.89526367 -23.66333008 12.14526367 C-25.83129883 11.72338867 -25.83129883 11.72338867 -27.66333008 11.14526367 C-19.59446668 4.3836463 -10.68178577 0.0520707 0 0 Z " fill="#C0E2D7" transform="translate(171.663330078125,387.854736328125)"/>
<path d="M0 0 C0.97886673 -0.0066568 1.95773346 -0.0133136 2.96626282 -0.02017212 C5.02949153 -0.03025242 7.09275255 -0.03499058 9.15600586 -0.03466797 C12.27448778 -0.03902576 15.39153485 -0.07535316 18.50976562 -0.11328125 C31.41703047 -0.18608805 44.03720138 -0.12492639 54.61328125 8.3359375 C51.94663935 9.66925845 50.44647822 9.00695783 47.61328125 8.3359375 C47.61328125 7.3459375 47.61328125 6.3559375 47.61328125 5.3359375 C46.62328125 5.6659375 45.63328125 5.9959375 44.61328125 6.3359375 C43.62328125 5.3459375 43.62328125 5.3459375 42.61328125 4.3359375 C36.20987866 3.18181728 29.85053116 3.19009699 23.359375 3.203125 C22.29969009 3.20216827 21.24000519 3.20121155 20.14820862 3.20022583 C17.91854798 3.19954831 15.68888532 3.20137259 13.45922852 3.20556641 C10.05806022 3.21092603 6.65702364 3.20560407 3.25585938 3.19921875 C1.08203096 3.1998795 -1.09179737 3.20116061 -3.265625 3.203125 C-4.78150963 3.20008865 -4.78150963 3.20008865 -6.32801819 3.19699097 C-11.4563834 3.21392403 -16.33292462 3.45001694 -21.38671875 4.3359375 C-14.86263 -0.013455 -7.59254834 0.01828583 0 0 Z " fill="#C0E1D5" transform="translate(435.38671875,387.6640625)"/>
<path d="M0 0 C0.33 0 0.66 0 1 0 C1.13196269 7.80743874 1.26244651 15.61490076 1.39115143 23.4223938 C1.45098787 27.04951162 1.51129355 30.67662024 1.57275391 34.30371094 C1.63228447 37.81801505 1.69047511 41.33233923 1.74781799 44.84667969 C1.78016643 46.80925967 1.81382756 48.77181788 1.84753418 50.734375 C2.01670584 61.21280644 2.01670584 61.21280644 1.96289062 66.31201172 C1.95684563 67.02962677 1.95080063 67.74724182 1.94457245 68.48660278 C1.9249613 70.4934166 1.89640947 72.50013728 1.86730957 74.50683594 C2.07283203 79.91735167 3.58279669 84.16559338 6 89 C3.53199953 87.84826645 1.95216435 86.95216435 0 85 C-0.18802953 82.28916342 -0.25180173 79.68132726 -0.22705078 76.97021484 C-0.22734283 76.14086929 -0.22763489 75.31152374 -0.22793579 74.45704651 C-0.22653939 71.70823808 -0.21096368 68.95969873 -0.1953125 66.2109375 C-0.19158347 64.30807646 -0.18873598 62.4052135 -0.18673706 60.50234985 C-0.17909192 55.48814617 -0.15943589 50.47405791 -0.1373291 45.4598999 C-0.11688962 40.34567832 -0.10773941 35.23143813 -0.09765625 30.1171875 C-0.07619081 20.07807422 -0.04204427 10.0390467 0 0 Z " fill="#9EC9BA" transform="translate(67,312)"/>
<path d="M0 0 C0.99 0.33 1.98 0.66 3 1 C2.34 1 1.68 1 1 1 C1 1.99 1 2.98 1 4 C2.43666016 3.94501343 2.43666016 3.94501343 3.90234375 3.88891602 C7.4876447 3.76132048 11.07274946 3.68153942 14.65966797 3.61547852 C16.2059107 3.58047594 17.75192509 3.53285449 19.29736328 3.47192383 C33.7903506 2.91522096 33.7903506 2.91522096 38.875 7.33984375 C39.95296051 8.52795051 40.99857999 9.74670255 42 11 C42.99018449 12.0097201 43.98710083 13.01306775 45 14 C44.67 14.66 44.34 15.32 44 16 C42.51714758 15.04737966 41.03881799 14.08771595 39.5625 13.125 C38.73878906 12.59132812 37.91507813 12.05765625 37.06640625 11.5078125 C35 10 35 10 34 8 C31.87423218 7.53348793 31.87423218 7.53348793 29.4375 7.375 C28.61121094 7.30023438 27.78492188 7.22546875 26.93359375 7.1484375 C26.29550781 7.09945312 25.65742188 7.05046875 25 7 C25 6.34 25 5.68 25 5 C16.75 5 8.5 5 0 5 C0 3.35 0 1.7 0 0 Z " fill="#B4D9CC" transform="translate(103,154)"/>
<path d="M0 0 C0 0.99 0 1.98 0 3 C-6.74157303 2.05617978 -6.74157303 2.05617978 -9.875 1.375 C-17.35912529 0.47690497 -24.03589936 2.38228841 -31 5 C-22.57831647 -5.0516868 -11.45677348 -3.87271216 0 0 Z " fill="#B3D6CA" transform="translate(461,331)"/>
<path d="M0 0 C3.35400549 0.59892955 5.49855497 1.67106842 8 4 C8.75 6.1875 8.75 6.1875 9 8 C10.6396875 8.2165625 10.6396875 8.2165625 12.3125 8.4375 C16 9 16 9 19 10 C21.39254576 10.22560676 23.78928123 10.40848595 26.1875 10.5625 C28.09595703 10.68818359 28.09595703 10.68818359 30.04296875 10.81640625 C31.01878906 10.87699219 31.99460938 10.93757813 33 11 C27.95860921 14.36092719 22.33664636 14.44965856 16.4375 13.4375 C9.44586908 11.62847661 4.03530976 6.88482673 0 1 C0 0.67 0 0.34 0 0 Z " fill="#B3D7CA" transform="translate(167,368)"/>
<path d="M0 0 C3.87496611 3.3959181 4.42291143 7.02164927 5 12 C5.24318995 20.17886206 2.88627575 26.86159451 -2.74609375 32.859375 C-5.74739179 35.57022484 -7.97503485 37.22495201 -12 38 C-11.67 36.68 -11.34 35.36 -11 34 C-10.34 34 -9.68 34 -9 34 C-8.67 33.34 -8.34 32.68 -8 32 C-7.67 32 -7.34 32 -7 32 C-3.23796493 28.75096971 -1.12728016 24.41819726 1 20 C1.66 20 2.32 20 3 20 C2.67 14.72 2.34 9.44 2 4 C1.34 4 0.68 4 0 4 C0 2.68 0 1.36 0 0 Z " fill="#B9DBCE" transform="translate(212,341)"/>
<path d="M0 0 C2.31 0 4.62 0 7 0 C6 2 6 2 2.42211914 3.60668945 C-4.48170986 5.76573379 -11.60304266 5.37137665 -18.75390625 5.29296875 C-20.2656156 5.28736328 -21.77733046 5.28309768 -23.28904724 5.28010559 C-27.23958777 5.26873155 -31.18978967 5.23933001 -35.14019775 5.20599365 C-39.1826113 5.17513087 -43.22508035 5.16156586 -47.26757812 5.14648438 C-55.17853963 5.11445185 -63.08922752 5.06334747 -71 5 C-71 4.67 -71 4.34 -71 4 C-36.35 3.505 -36.35 3.505 -1 3 C-0.67 2.01 -0.34 1.02 0 0 Z " fill="#ACD2C5" transform="translate(425,278)"/>
<path d="M0 0 C1.65 1.32 3.3 2.64 5 4 C5.66 3.34 6.32 2.68 7 2 C7 2.66 7 3.32 7 4 C9.64 4.66 12.28 5.32 15 6 C15 6.66 15 7.32 15 8 C30.18 8 45.36 8 61 8 C61 8.33 61 8.66 61 9 C54.00747691 9.07625818 47.01506165 9.12868729 40.0222168 9.16479492 C37.64489738 9.17985252 35.26760561 9.20030289 32.89038086 9.22631836 C29.46721561 9.26283403 26.04441868 9.27975709 22.62109375 9.29296875 C21.0347538 9.31619453 21.0347538 9.31619453 19.41636658 9.33988953 C12.26733696 9.34150862 7.1846269 8.6946843 1.5625 3.9375 C0 2 0 2 0 0 Z " fill="#C0E2D6" transform="translate(161,213)"/>
<path d="M0 0 C0.66 0.33 1.32 0.66 2 1 C1.45730469 1.51949219 0.91460937 2.03898438 0.35546875 2.57421875 C-3.35464118 6.19074032 -6.48027648 9.4405003 -9 14 C-12.42626863 18.39265209 -15.31590385 21.95254785 -20.5625 24 C-23.03064201 25.01257108 -24.27589183 26.00366422 -26 28 C-26.66 27.67 -27.32 27.34 -28 27 C-24.57519169 23.47886896 -21.12112553 20.05522146 -17.375 16.875 C-11.24927366 11.60881234 -5.66912946 5.74690715 0 0 Z " fill="#B8DDCF" transform="translate(241,173)"/>
<path d="M0 0 C1.27445454 0.42683632 2.54445882 0.86697202 3.8125 1.3125 C4.52019531 1.55613281 5.22789063 1.79976562 5.95703125 2.05078125 C8.16137491 3.07497916 9.35259217 4.24026891 11 6 C13.09989652 7.17574711 13.09989652 7.17574711 15 8 C15.04254356 9.99954746 15.04080783 12.00041636 15 14 C14 15 14 15 11.13256836 15.11352539 C9.88096924 15.10828857 8.62937012 15.10305176 7.33984375 15.09765625 C6.34314415 15.09553383 6.34314415 15.09553383 5.3263092 15.09336853 C3.19666101 15.08775518 1.06711661 15.07520054 -1.0625 15.0625 C-2.50325369 15.05748671 -3.94400903 15.05292351 -5.38476562 15.04882812 C-8.92321102 15.03778145 -12.46159539 15.02050792 -16 15 C-16 14.67 -16 14.34 -16 14 C-6.43 13.67 3.14 13.34 13 13 C13 12.01 13 11.02 13 10 C12.34 9.79375 11.68 9.5875 11 9.375 C6.92819814 7.50875748 3.31203002 5.02438473 0 2 C0 1.34 0 0.68 0 0 Z " fill="#B2D9CB" transform="translate(77,144)"/>
<path d="M0 0 C-0.39832031 0.43570313 -0.79664062 0.87140625 -1.20703125 1.3203125 C-7.01594368 7.85003888 -9.975602 13.65833707 -10.31640625 22.421875 C-10.35830078 23.44667969 -10.40019531 24.47148438 -10.44335938 25.52734375 C-10.48267578 26.59082031 -10.52199219 27.65429688 -10.5625 28.75 C-10.60568359 29.82894531 -10.64886719 30.90789062 -10.69335938 32.01953125 C-10.79928989 34.67956428 -10.90136421 37.33968812 -11 40 C-10.34 40.33 -9.68 40.66 -9 41 C-9.99 41 -10.98 41 -12 41 C-12.07493036 37.03483891 -12.12896449 33.06995986 -12.16479492 29.10424805 C-12.18705458 27.10255424 -12.22520146 25.10105725 -12.26367188 23.09960938 C-12.38630302 6.87142104 -12.38630302 6.87142104 -7.52416992 1.31274414 C-5.02012897 -0.84394787 -2.98872317 -1.49436158 0 0 Z " fill="#C0E1D4" transform="translate(115,57)"/>
<path d="M0 0 C-0.66 0 -1.32 0 -2 0 C-2.33 1.32 -2.66 2.64 -3 4 C-4.11375 4.2475 -5.2275 4.495 -6.375 4.75 C-10.00056508 5.59069033 -10.00056508 5.59069033 -11.25 7.875 C-11.4975 8.57625 -11.745 9.2775 -12 10 C-14.32535157 13.95309766 -16.62093103 14.83224828 -21 16 C-19.61512678 11.64534311 -17.65742479 9.37972913 -14.25 6.375 C-13.40953125 5.61960937 -12.5690625 4.86421875 -11.703125 4.0859375 C-4.47515257 -1.49171752 -4.47515257 -1.49171752 0 0 Z " fill="#B3D7CB" transform="translate(288,392)"/>
<path d="M0 0 C0.33 0 0.66 0 1 0 C0.88170234 4.50253816 0.75745066 9.00485779 0.62768555 13.50708008 C0.58438167 15.03861018 0.54270333 16.57018715 0.50268555 18.10180664 C0.44487268 20.30369182 0.38121031 22.50534211 0.31640625 24.70703125 C0.29133751 25.73374687 0.29133751 25.73374687 0.26576233 26.78120422 C0.1726445 29.77120104 -0.04687437 32.14062311 -1 35 C-4.5625 36.1875 -4.5625 36.1875 -8 37 C-7.67 36.34 -7.34 35.68 -7 35 C-4.4375 34.375 -4.4375 34.375 -2 34 C-2.01047363 33.21874756 -2.02094727 32.43749512 -2.03173828 31.63256836 C-2.07350208 28.06757874 -2.09939098 24.50264078 -2.125 20.9375 C-2.14175781 19.70837891 -2.15851563 18.47925781 -2.17578125 17.21289062 C-2.20876483 11.09443607 -2.17209842 5.75520567 0 0 Z " fill="#B1D7CA" transform="translate(93,64)"/>
<path d="M0 0 C2.34765625 0.35546875 2.34765625 0.35546875 4.22265625 2.04296875 C5.68029501 5.0392262 5.33712116 6.20418714 4.34765625 9.35546875 C2.5 11.59375 2.5 11.59375 0.28515625 13.66796875 C-0.44832031 14.36535156 -1.18179687 15.06273437 -1.9375 15.78125 C-2.78634766 16.56048828 -2.78634766 16.56048828 -3.65234375 17.35546875 C-4.31234375 17.02546875 -4.97234375 16.69546875 -5.65234375 16.35546875 C-5.08644531 15.80117187 -4.52054687 15.246875 -3.9375 14.67578125 C-3.20402344 13.95132813 -2.47054688 13.226875 -1.71484375 12.48046875 C-0.98394531 11.76117188 -0.25304687 11.041875 0.5 10.30078125 C2.40433624 8.48519683 2.40433624 8.48519683 3.34765625 6.35546875 C2.68765625 6.35546875 2.02765625 6.35546875 1.34765625 6.35546875 C1.34765625 5.69546875 1.34765625 5.03546875 1.34765625 4.35546875 C-4.37097427 5.63686202 -4.37097427 5.63686202 -8.65234375 9.35546875 C-9.31234375 9.02546875 -9.97234375 8.69546875 -10.65234375 8.35546875 C-9.43953714 7.00723709 -8.20636284 5.67730793 -6.96484375 4.35546875 C-6.28035156 3.61296875 -5.59585937 2.87046875 -4.890625 2.10546875 C-2.65234375 0.35546875 -2.65234375 0.35546875 0 0 Z " fill="#BDDFD3" transform="translate(283.65234375,134.64453125)"/>
<path d="M0 0 C0.99 0.66 1.98 1.32 3 2 C6.70544587 2.19850603 9.47005387 2.17664871 13 1 C14.35348751 0.95711723 15.70893851 0.95951966 17.0625 1 C20.78571015 1.29348392 20.78571015 1.29348392 23 0 C23.66 0.66 24.32 1.32 25 2 C17.17874122 5.82742451 10.46794879 6.65954418 1.9453125 4.765625 C-0.28057922 3.88957123 -1.43882424 2.78700622 -3 1 C-2.01 0.67 -1.02 0.34 0 0 Z " fill="#AFD6C8" transform="translate(308,376)"/>
<path d="M0 0 C0 2.71929057 -0.05620165 4.4832044 -1 7 C-3.83230904 9.73115514 -6.21474172 10.28387005 -10 11 C-10.33 11.66 -10.66 12.32 -11 13 C-14.795878 14.5183512 -18.9877022 14.06687163 -23 14 C-23 13.67 -23 13.34 -23 13 C-21.02 13 -19.04 13 -17 13 C-17 12.34 -17 11.68 -17 11 C-16.443125 10.79246094 -15.88625 10.58492188 -15.3125 10.37109375 C-9.16374288 7.88874079 -4.74412011 4.60192578 0 0 Z " fill="#AED5C7" transform="translate(436,258)"/>
<path d="M0 0 C4.78174533 3.18783022 7.15926699 6.65180061 9 12 C10.08893484 17.46999828 10.29415175 22.53580373 9 28 C8.67 28 8.34 28 8 28 C7.67 22.06 7.34 16.12 7 10 C5.35 10 3.7 10 2 10 C2 9.34 2 8.68 2 8 C1.34 8 0.68 8 0 8 C0 5.36 0 2.72 0 0 Z " fill="#B6DBCE" transform="translate(336,335)"/>
<path d="M0 0 C-0.1875 1.875 -0.1875 1.875 -1 4 C-2.65438613 4.69658363 -4.32254318 5.36096883 -6 6 C-8.81427427 9.30877207 -10.65532423 13.03170716 -12.62109375 16.87890625 C-14.13619572 19.2095022 -15.69950574 20.47122144 -18 22 C-16.2754291 12.99390755 -10.3257203 6.7761803 -3.48046875 0.99609375 C-2 0 -2 0 0 0 Z " fill="#ABD2C4" transform="translate(410,394)"/>
<path d="M0 0 C0 3.16210871 -0.45363948 4.09946513 -1.875 6.8125 C-4.72688008 12.92078216 -5.28206312 19.35908385 -6 26 C-8.95110913 21.1043616 -8.04908737 16.42528038 -7 11 C-5.40942126 6.57529914 -3.43537028 3.21943272 0 0 Z " fill="#B9DACF" transform="translate(300,336)"/>
<path d="M0 0 C0.99 0.33 1.98 0.66 3 1 C-1.98404168 7.03331362 -7.41915303 12.5184171 -13 18 C-13.66 17.67 -14.32 17.34 -15 17 C-14.360625 16.4225 -13.72125 15.845 -13.0625 15.25 C-11.01776132 13.01937599 -10.41794801 11.92563609 -10 9 C-9.01 9.33 -8.02 9.66 -7 10 C-6.67 8.35 -6.34 6.7 -6 5 C-4.68 5 -3.36 5 -2 5 C-1.855625 4.360625 -1.71125 3.72125 -1.5625 3.0625 C-1 1 -1 1 0 0 Z " fill="#B6DBCD" transform="translate(270,156)"/>
<path d="M0 0 C0.93619813 3.15506142 1.1057123 5.96586502 1.0625 9.25 C1.05347656 10.14203125 1.04445313 11.0340625 1.03515625 11.953125 C1.02355469 12.62859375 1.01195313 13.3040625 1 14 C1.66 14 2.32 14 3 14 C3 15.65 3 17.3 3 19 C3.66 19 4.32 19 5 19 C5.33 21.64 5.66 24.28 6 27 C2.02218596 23.70801597 0.06161209 19.98801564 -1 15 C-1.75284385 3.50568769 -1.75284385 3.50568769 0 0 Z " fill="#BADBCE" transform="translate(71,117)"/>
<path d="M0 0 C1.65 0 3.3 0 5 0 C4.07038578 1.15224028 3.1309875 2.29659176 2.1875 3.4375 C1.40439453 4.39462891 1.40439453 4.39462891 0.60546875 5.37109375 C-1 7 -1 7 -4 8 C-3.42647107 11.87132028 -1.51295648 14.08172796 1 17 C-0.65 16.67 -2.3 16.34 -4 16 C-4 15.34 -4 14.68 -4 14 C-5.32 13.34 -6.64 12.68 -8 12 C-7.67 11.01 -7.34 10.02 -7 9 C-6.34 9 -5.68 9 -5 9 C-5 8.01 -5 7.02 -5 6 C-4.360625 5.7525 -3.72125 5.505 -3.0625 5.25 C-0.81258459 4.18437567 -0.81258459 4.18437567 -0.25 1.875 C-0.1675 1.25625 -0.085 0.6375 0 0 Z " fill="#BCDFD3" transform="translate(43,198)"/>
<path d="M0 0 C1 2 1 2 0.6875 4.0625 C0 6 0 6 -2 7 C-2.97153663 8.78115049 -3.94303744 10.56232057 -4.9140625 12.34375 C-6.27950688 14.42629826 -7.6438324 15.24266041 -10 16 C-8.38920595 9.55682381 -4.63830054 4.63830054 0 0 Z " fill="#A8D3C4" transform="translate(104,48)"/>
<path d="M0 0 C-1.6232687 0.6708712 -3.24867578 1.33657029 -4.875 2 C-5.77992188 2.37125 -6.68484375 2.7425 -7.6171875 3.125 C-10 4 -10 4 -12 4 C-12.33 4.99 -12.66 5.98 -13 7 C-15.3125 8.75 -15.3125 8.75 -18 10 C-20.16796875 9.578125 -20.16796875 9.578125 -22 9 C-16.2203988 4.15675877 -7.92319771 -2.78038819 0 0 Z " fill="#BADCD0" transform="translate(166,390)"/>
<path d="M0 0 C2.52540116 1.08231478 4.06647878 2.06855624 6 4.0625 C8.07852616 6.07607222 9.18768658 6.59824094 12 7 C12.33 8.32 12.66 9.64 13 11 C13.66 11 14.32 11 15 11 C15.33 12.65 15.66 14.3 16 16 C10.35573231 11.31645873 4.9941954 6.3792354 0 1 C0 0.67 0 0.34 0 0 Z " fill="#BBDDD0" transform="translate(145,197)"/>
<path d="M0 0 C4.54208582 3.92271048 5.41147056 8.83601669 5.98046875 14.57421875 C6.0123866 18.53841619 5.08486078 22.20747017 4 26 C2.70971798 22.12915393 3.02251289 18.73812092 3.16015625 14.69140625 C2.99156076 11.85817965 2.32676745 10.45827478 1 8 C0.48479018 5.33646245 0.27050087 2.70500869 0 0 Z " fill="#BFE0D4" transform="translate(123,110)"/>
<path d="M0 0 C1.796875 1.60546875 1.796875 1.60546875 3 3 C1.35 3 -0.3 3 -2 3 C-2.33 2.01 -2.66 1.02 -3 0 C-9.93 0 -16.86 0 -24 0 C-16.54926718 -4.96715521 -7.90529738 -3.35836934 0 0 Z " fill="#CDE6DF" transform="translate(203,331)"/>
<path d="M0 0 C0.66 0.33 1.32 0.66 2 1 C0.49740332 6.34256597 -3.05971727 10.23728366 -7 14 C-9.9375 15.5 -9.9375 15.5 -12 16 C-12 15.01 -12 14.02 -12 13 C-11.01 12.67 -10.02 12.34 -9 12 C-9 11.34 -9 10.68 -9 10 C-6.38058783 8.25372522 -4.96175123 7.61277612 -2 7 C-1.855625 6.401875 -1.71125 5.80375 -1.5625 5.1875 C-1.1127561 3.43849596 -0.57107659 1.71322977 0 0 Z " fill="#B5D8CB" transform="translate(124,136)"/>
<path d="M0 0 C0.33 0 0.66 0 1 0 C1 1.98 1 3.96 1 6 C0.01 6.495 0.01 6.495 -1 7 C-1 12.94 -1 18.88 -1 25 C-4.1452762 20.2820857 -4.37600098 15.03121776 -3.68359375 9.44921875 C-2.90044439 5.68146866 -2.16581656 3.24872484 0 0 Z " fill="#C1E1D6" transform="translate(425,341)"/>
<path d="M0 0 C1.65 1.32 3.3 2.64 5 4 C5.66 3.34 6.32 2.68 7 2 C7 2.66 7 3.32 7 4 C9.64 4.66 12.28 5.32 15 6 C15 6.66 15 7.32 15 8 C8.18461113 8.71740936 8.18461113 8.71740936 4.91015625 6.734375 C3.12678067 5.23181725 1.48880229 3.79586776 0 2 C0 1.34 0 0.68 0 0 Z " fill="#B3D9CC" transform="translate(161,213)"/>
<path d="M0 0 C0.33 1.32 0.66 2.64 1 4 C-0.98 4.99 -0.98 4.99 -3 6 C-2.979375 6.969375 -2.95875 7.93875 -2.9375 8.9375 C-3 12 -3 12 -4 13 C-4.36760731 15.32817964 -4.70241581 17.6618385 -5 20 C-5.33 20 -5.66 20 -6 20 C-6.27823798 12.07021754 -5.55613215 6.11174537 0 0 Z " fill="#92C2B1" transform="translate(171,336)"/>
<path d="M0 0 C5.40489519 1.52012677 8.98492628 5.27385218 13 9 C12.67 9.66 12.34 10.32 12 11 C10.02 10.01 8.04 9.02 6 8 C6 7.34 6 6.68 6 6 C5.01 5.67 4.02 5.34 3 5 C3 4.34 3 3.68 3 3 C2.34 3 1.68 3 1 3 C0.67 2.01 0.34 1.02 0 0 Z " fill="#B7DCCE" transform="translate(355,393)"/>
<path d="M0 0 C0.99 0 1.98 0 3 0 C3 3 3 3 1.46875 4.60546875 C0.8190625 5.12753906 0.169375 5.64960938 -0.5 6.1875 C-1.1496875 6.71730469 -1.799375 7.24710937 -2.46875 7.79296875 C-2.9740625 8.19128906 -3.479375 8.58960938 -4 9 C-4.66 8.67 -5.32 8.34 -6 8 C-5.34 6.35 -4.68 4.7 -4 3 C-3.01 3 -2.02 3 -1 3 C-0.67 2.01 -0.34 1.02 0 0 Z " fill="#AED6C7" transform="translate(466,369)"/>
<path d="M0 0 C0.99 0.33 1.98 0.66 3 1 C3 1.99 3 2.98 3 4 C3.99 3.67 4.98 3.34 6 3 C6.2475 3.969375 6.495 4.93875 6.75 5.9375 C7.1625 6.948125 7.575 7.95875 8 9 C10.03243548 9.96877057 10.03243548 9.96877057 12 10 C12 10.66 12 11.32 12 12 C6.46721442 10.65871865 3.21578635 6.44835 0 2 C0 1.34 0 0.68 0 0 Z " fill="#B4DACB" transform="translate(424,366)"/>
<path d="M0 0 C0.33 0.99 0.66 1.98 1 3 C-1.77813282 6.0014554 -4.28051014 8.66394335 -8.3984375 9.46875 C-10.69599514 9.49849185 -12.75112656 9.47633979 -15 9 C-15.66 8.34 -16.32 7.68 -17 7 C-16.07767578 7.03480469 -16.07767578 7.03480469 -15.13671875 7.0703125 C-13.92435547 7.09738281 -13.92435547 7.09738281 -12.6875 7.125 C-11.48673828 7.15980469 -11.48673828 7.15980469 -10.26171875 7.1953125 C-7.71611424 7.15817322 -7.71611424 7.15817322 -5 5 C-4.01 4.67 -3.02 4.34 -2 4 C-2 3.01 -2 2.02 -2 1 C-1.34 0.67 -0.68 0.34 0 0 Z " fill="#C3E4D9" transform="translate(129,394)"/>
<path d="M0 0 C-2.10515339 3.72450216 -3.24267224 5.6795921 -7.25 7.375 C-8.61125 7.684375 -8.61125 7.684375 -10 8 C-7.95662621 2.18424383 -6.49689233 -0.52677505 0 0 Z " fill="#A4D2C2" transform="translate(277,400)"/>
<path d="M0 0 C2.97 0.99 5.94 1.98 9 3 C9 3.99 9 4.98 9 6 C10.65 6 12.3 6 14 6 C14 6.33 14 6.66 14 7 C8.89119171 7.61658031 8.89119171 7.61658031 6 7 C3.47223518 4.89000384 1.93810676 2.71334946 0 0 Z " fill="#ADD5C5" transform="translate(40,240)"/>
<path d="M0 0 C3.21043882 1.38188453 5.04936365 2.92421903 7.25 5.625 C8.03117187 6.57246094 8.03117187 6.57246094 8.828125 7.5390625 C9.40820312 8.26222656 9.40820312 8.26222656 10 9 C9.67 9.66 9.34 10.32 9 11 C7.35 10.01 5.7 9.02 4 8 C4.33 7.01 4.66 6.02 5 5 C4.01 5.33 3.02 5.66 2 6 C1.34 4.02 0.68 2.04 0 0 Z " fill="#B4D9CC" transform="translate(490,397)"/>
<path d="M0 0 C0.66 0.99 1.32 1.98 2 3 C-0.07143201 7.03384128 -1.96615872 8.92856799 -6 11 C-4.74194623 6.49197399 -3.09592835 3.5087188 0 0 Z " fill="#A8D3C4" transform="translate(78,105)"/>
<path d="M0 0 C1.15518918 0.90484792 2.29885406 1.8244206 3.4375 2.75 C4.07558594 3.26046875 4.71367188 3.7709375 5.37109375 4.296875 C7.18810554 6.19667629 7.60423197 7.43586908 8 10 C4.20866644 9.45838092 2.33890436 8.00716275 0 5 C-0.25 2.25 -0.25 2.25 0 0 Z " fill="#AAD1C3" transform="translate(52,223)"/>
<path d="M0 0 C0 3 0 3 -1 6 C-1.66 5.67 -2.32 5.34 -3 5 C-3.33 6.32 -3.66 7.64 -4 9 C-5.65 9.33 -7.3 9.66 -9 10 C-7.61811547 6.78956118 -6.07578097 4.95063635 -3.375 2.75 C-2.74335938 2.22921875 -2.11171875 1.7084375 -1.4609375 1.171875 C-0.73777344 0.59179688 -0.73777344 0.59179688 0 0 Z " fill="#B6DACE" transform="translate(23,192)"/>
<path d="M0 0 C0.556875 0.28875 1.11375 0.5775 1.6875 0.875 C4.08494645 2.0413253 6.51596939 3.0339881 9 4 C8.67 5.32 8.34 6.64 8 8 C8.66 8 9.32 8 10 8 C10 9.98 10 11.96 10 14 C8.69870216 12.04805324 7.40651583 10.08999094 6.125 8.125 C4.20096217 5.2955326 2.17392949 2.63977153 0 0 Z " fill="#BCDDD1" transform="translate(431,56)"/>
<path d="M0 0 C4.51478398 0.53115106 7.34666857 2.36620292 11 5 C10.34 5.66 9.68 6.32 9 7 C7.68 7 6.36 7 5 7 C5 5.68 5 4.36 5 3 C4.01 3 3.02 3 2 3 C2 2.34 2 1.68 2 1 C1.34 0.67 0.68 0.34 0 0 Z " fill="#B3D9CA" transform="translate(221,391)"/>
<path d="M0 0 C0.99 0 1.98 0 3 0 C1.55922954 3.36179774 -0.24750021 5.59156268 -3 8 C-3.66 8 -4.32 8 -5 8 C-5.33 7.01 -5.66 6.02 -6 5 C-5.34 4.34 -4.68 3.68 -4 3 C-2.68 3 -1.36 3 0 3 C0 2.01 0 1.02 0 0 Z " fill="#B0D7C9" transform="translate(338,369)"/>
<path d="M0 0 C3.35400549 0.59892955 5.49855497 1.67106842 8 4 C8.75 6.1875 8.75 6.1875 9 8 C4.41173718 6.06273348 2.19471406 4.51135667 0 0 Z " fill="#A7CEBE" transform="translate(167,368)"/>
<path d="M0 0 C0.66 0.33 1.32 0.66 2 1 C2.63019694 9.03501094 2.63019694 9.03501094 0 13.0625 C-0.66 13.701875 -1.32 14.34125 -2 15 C-2.66 14.67 -3.32 14.34 -4 14 C-3.01 12.02 -2.02 10.04 -1 8 C-0.34 8 0.32 8 1 8 C0.67 5.36 0.34 2.72 0 0 Z " fill="#C1E0D5" transform="translate(226,206)"/>
<path d="M0 0 C-0.1875 1.875 -0.1875 1.875 -1 4 C-2.64991582 4.70710678 -4.3207762 5.36562656 -6 6 C-8.112341 7.56194229 -10.02812906 9.25741638 -12 11 C-10.5611898 7.612801 -8.77880501 5.6405896 -6 3.25 C-5.29875 2.63640625 -4.5975 2.0228125 -3.875 1.390625 C-2 0 -2 0 0 0 Z " fill="#C6E3D8" transform="translate(410,394)"/>
<path d="M0 0 C5.70629354 0.42797202 9.41078616 2.84345952 14 6 C11.3333581 7.33332095 9.83319697 6.67102033 7 6 C7 5.01 7 4.02 7 3 C6.01 3.33 5.02 3.66 4 4 C2.68 2.68 1.36 1.36 0 0 Z " fill="#BFDFD2" transform="translate(476,390)"/>
<path d="M0 0 C0.33 0.66 0.66 1.32 1 2 C-0.43657245 2.33730842 -1.87430093 2.66969591 -3.3125 3 C-4.51326172 3.2784375 -4.51326172 3.2784375 -5.73828125 3.5625 C-8 4 -8 4 -11 4 C-7.26280719 0.48264206 -5.13496308 -0.47767098 0 0 Z " fill="#A8D3C3" transform="translate(312,331)"/>
<path d="M0 0 C-1.14668209 3.44004627 -1.87943304 4.26635169 -5 6 C-7.75 5.6875 -7.75 5.6875 -10 5 C-6.99385784 1.69324363 -4.54252119 0 0 0 Z " fill="#B2D8CA" transform="translate(120,39)"/>
<path d="M0 0 C2.69007598 2.69007598 3.02729236 5.36855815 4 9 C4.33 9.66 4.66 10.32 5 11 C2.53199953 9.84826645 0.95216435 8.95216435 -1 7 C-0.625 3.375 -0.625 3.375 0 0 Z " fill="#B4D7CA" transform="translate(68,390)"/>
<path d="M0 0 C0.94875 0.04125 1.8975 0.0825 2.875 0.125 C-2.26785714 5.69642857 -2.26785714 5.69642857 -6.125 6.125 C-5.28810868 1.94054341 -4.61542241 0.1846169 0 0 Z " fill="#A5CCBD" transform="translate(62.125,158.875)"/>
<path d="M0 0 C-3.4352048 2.29013653 -4.985331 2.17842973 -9 2 C-9 3.32 -9 4.64 -9 6 C-9.99 6 -10.98 6 -12 6 C-11.67 4.35 -11.34 2.7 -11 1 C-7.27569643 0.30710631 -3.78916254 -0.11144596 0 0 Z " fill="#A3D0C0" transform="translate(112,152)"/>
<path d="M0 0 C3.53586014 3.17320782 5.58578031 5.16743695 6 10 C5.34 10 4.68 10 4 10 C1.6791945 6.7508723 0.56302958 3.94120709 0 0 Z " fill="#AED4C7" transform="translate(466,336)"/>
<path d="M0 0 C-4.21683811 2.8990762 -8.06866002 3.91343356 -13 5 C-10.36460913 1.97705165 -8.73182256 0.20089247 -4.8125 -0.875 C-2 -1 -2 -1 0 0 Z " fill="#AED3C5" transform="translate(443,331)"/>
<path d="M0 0 C2.31 0 4.62 0 7 0 C5.66065756 2.67868487 4.48307603 2.74954078 1.6875 3.6875 C0.90761719 3.95949219 0.12773437 4.23148437 -0.67578125 4.51171875 C-3.18274511 5.03839183 -4.60132343 4.8178554 -7 4 C-5.02 3.67 -3.04 3.34 -1 3 C-0.67 2.01 -0.34 1.02 0 0 Z " fill="#C2DFD4" transform="translate(425,278)"/>
<path d="M0 0 C2.475 0.495 2.475 0.495 5 1 C5 1.66 5 2.32 5 3 C5.99 3 6.98 3 8 3 C8 4.65 8 6.3 8 8 C6.85073734 7.04578192 5.70569459 6.08647955 4.5625 5.125 C3.92441406 4.59132812 3.28632813 4.05765625 2.62890625 3.5078125 C1 2 1 2 0 0 Z " fill="#B0D7C8" transform="translate(24,224)"/>
<path d="M0 0 C2.31 0.66 4.62 1.32 7 2 C7.33 3.98 7.66 5.96 8 8 C6.85073734 7.04578192 5.70569459 6.08647955 4.5625 5.125 C3.92441406 4.59132812 3.28632813 4.05765625 2.62890625 3.5078125 C1 2 1 2 0 0 Z " fill="#AFD6C8" transform="translate(16,216)"/>
<path d="M0 0 C0.33 0.66 0.66 1.32 1 2 C1.61875 2.28875 2.2375 2.5775 2.875 2.875 C5.36796335 4.19480413 6.45147781 5.67721672 8 8 C6.35 7.67 4.7 7.34 3 7 C3 6.34 3 5.68 3 5 C1.68 4.34 0.36 3.68 -1 3 C-0.67 2.01 -0.34 1.02 0 0 Z " fill="#ABD3C3" transform="translate(36,207)"/>
<path d="M0 0 C0.66 0.99 1.32 1.98 2 3 C-0.93828597 5.50298434 -3.17902761 6.46930939 -7 7 C-4.78071806 4.09197539 -3.07030857 2.04687238 0 0 Z " fill="#B8DCD0" transform="translate(31,185)"/>
<path d="M0 0 C-4.30769231 3.93846154 -4.30769231 3.93846154 -7.8125 4.25 C-8.534375 4.1675 -9.25625 4.085 -10 4 C-4.4 -2.2 -4.4 -2.2 0 0 Z " fill="#A7CEC0" transform="translate(89,101)"/>
<path d="M0 0 C0.33 0.99 0.66 1.98 1 3 C-0.32 4.32 -1.64 5.64 -3 7 C-3.66 6.67 -4.32 6.34 -5 6 C-4.1875 3.5625 -4.1875 3.5625 -3 1 C-2.01 0.67 -1.02 0.34 0 0 Z " fill="#B6DACC" transform="translate(90,394)"/>
<path d="M0 0 C2.72647685 2.35468455 3.98756342 4.5408417 5 8 C4.625 10.3125 4.625 10.3125 4 12 C3.67 10.35 3.34 8.7 3 7 C2.34 7 1.68 7 1 7 C0.67 4.69 0.34 2.38 0 0 Z " fill="#C6E4D8" transform="translate(500,408)"/>
<path d="M0 0 C2 1.1875 2 1.1875 4 3 C4.25 5.6875 4.25 5.6875 4 8 C3.34 8 2.68 8 2 8 C2 7.01 2 6.02 2 5 C1.34 5 0.68 5 0 5 C0 3.35 0 1.7 0 0 Z " fill="#A9D1C2" transform="translate(208,336)"/>
<path d="M0 0 C5.19209404 -0.21192221 9.126739 0.4087311 14 2 C12.25 3.125 12.25 3.125 10 4 C8.125 3.1875 8.125 3.1875 6 2 C4.00889599 1.61709538 2.00899487 1.27395385 0 1 C0 0.67 0 0.34 0 0 Z " fill="#BCDBCF" transform="translate(415,37)"/>
<path d="M0 0 C2.88437779 1.29299694 4.87219421 2.65941363 7 5 C6.67 5.66 6.34 6.32 6 7 C4.125 6.875 4.125 6.875 2 6 C0.75 2.9375 0.75 2.9375 0 0 Z " fill="#BDE0D2" transform="translate(232,397)"/>
<path d="M0 0 C0.33 0.66 0.66 1.32 1 2 C-1.47812494 5.45167403 -2.79606135 7.23163306 -7 8 C-6.02133662 6.85373678 -5.04205413 5.70800212 -4.0625 4.5625 C-3.51722656 3.92441406 -2.97195313 3.28632813 -2.41015625 2.62890625 C-1.63204305 1.73008851 -0.84063472 0.84063472 0 0 Z " fill="#95C4B2" transform="translate(273,144)"/>
<path d="M0 0 C2.64 0.99 5.28 1.98 8 3 C7.67 3.99 7.34 4.98 7 6 C2.32307692 4.52307692 2.32307692 4.52307692 0.6875 1.875 C0.460625 1.25625 0.23375 0.6375 0 0 Z " fill="#B4D7CA" transform="translate(77,144)"/>
<path d="M0 0 C3.375 -0.125 3.375 -0.125 7 0 C7.66 0.66 8.32 1.32 9 2 C6.36 2.33 3.72 2.66 1 3 C0.67 2.01 0.34 1.02 0 0 Z " fill="#ADD2C5" transform="translate(103,98)"/>
<path d="M0 0 C2.79872437 2.52788007 4.45773019 4.20411134 5 8 C4.01 8 3.02 8 2 8 C1.34 5.36 0.68 2.72 0 0 Z " fill="#BEDDD3" transform="translate(447,55)"/>
<path d="M0 0 C3.77300358 1.0197307 4.80206144 1.65872662 6.8125 5.125 C7.204375 6.07375 7.59625 7.0225 8 8 C4.63820226 6.55922954 2.40843732 4.75249979 0 2 C0 1.34 0 0.68 0 0 Z " fill="#BEDFD2" transform="translate(297,369)"/>
<path d="M0 0 C2.7972908 2.06756277 3.02692273 3.14440371 3.6875 6.6875 C3.790625 7.780625 3.89375 8.87375 4 10 C3.01 10.495 3.01 10.495 2 11 C2 9.02 2 7.04 2 5 C1.34 5 0.68 5 0 5 C0 3.35 0 1.7 0 0 Z " fill="#92C3B0" transform="translate(165,357)"/>
<path d="M0 0 C0.33 1.32 0.66 2.64 1 4 C-0.65 5.32 -2.3 6.64 -4 8 C-4 4.09161134 -2.49432124 2.88405893 0 0 Z " fill="#B6DBCD" transform="translate(171,336)"/>
<path d="M0 0 C0.99 0.33 1.98 0.66 3 1 C1.8141763 4.37503669 0.72426311 6.64722731 -2 9 C-1.41196203 5.97580475 -0.77321882 2.98241547 0 0 Z " fill="#BBDBD0" transform="translate(448,258)"/>
<path d="M0 0 C2.25 0.25 2.25 0.25 4 1 C1.03 3.475 1.03 3.475 -2 6 C-2.66 5.34 -3.32 4.68 -4 4 C-2.25 1.9375 -2.25 1.9375 0 0 Z " fill="#91C3B1" transform="translate(54,165)"/>
<path d="M0 0 C1.32 0.99 2.64 1.98 4 3 C1.625 4.5625 1.625 4.5625 -1 6 C-1.66 5.67 -2.32 5.34 -3 5 C-2.67 4.01 -2.34 3.02 -2 2 C-1.34 2 -0.68 2 0 2 C0 1.34 0 0.68 0 0 Z " fill="#B4D8CA" transform="translate(203,373)"/>
<path d="M0 0 C0.66 0 1.32 0 2 0 C1.25 5.75 1.25 5.75 -1 8 C-1.04241723 5.66705225 -1.04092937 3.33297433 -1 1 C-0.67 0.67 -0.34 0.34 0 0 Z " fill="#ACD2C3" transform="translate(342,361)"/>
<path d="M0 0 C1.14926266 0.95421808 2.29430541 1.91352045 3.4375 2.875 C4.07558594 3.40867188 4.71367187 3.94234375 5.37109375 4.4921875 C7 6 7 6 8 8 C4.11137013 6.73882275 2.10624401 5.54735833 0 2 C0 1.34 0 0.68 0 0 Z " fill="#91C2B0" transform="translate(154,178)"/>
<path d="M0 0 C2.25 0.25 2.25 0.25 4 1 C2.625 2.5 2.625 2.5 1 4 C-0.66666667 4 -2.33333333 4 -4 4 C-2.25 1.9375 -2.25 1.9375 0 0 Z " fill="#8BC3AD" transform="translate(238,178)"/>
</svg>
