<svg xmlns="http://www.w3.org/2000/svg" xmlns:xlink="http://www.w3.org/1999/xlink" width="1080" zoomAndPan="magnify" viewBox="0 0 810 809.999993" height="1080" preserveAspectRatio="xMidYMid meet" version="1.0"><defs><g/><clipPath id="2bdeef1e12"><path d="M 38.25 0 L 771.75 0 C 781.894531 0 791.625 4.03125 798.796875 11.203125 C 805.96875 18.375 810 28.105469 810 38.25 L 810 771.75 C 810 781.894531 805.96875 791.625 798.796875 798.796875 C 791.625 805.96875 781.894531 810 771.75 810 L 38.25 810 C 28.105469 810 18.375 805.96875 11.203125 798.796875 C 4.03125 791.625 0 781.894531 0 771.75 L 0 38.25 C 0 28.105469 4.03125 18.375 11.203125 11.203125 C 18.375 4.03125 28.105469 0 38.25 0 Z M 38.25 0 " clip-rule="nonzero"/></clipPath><clipPath id="d762733ef9"><path d="M 235 180.730469 L 574 180.730469 L 574 319 L 235 319 Z M 235 180.730469 " clip-rule="nonzero"/></clipPath><clipPath id="7c01b4274c"><path d="M 229.148438 223 L 580.898438 223 L 580.898438 431.980469 L 229.148438 431.980469 Z M 229.148438 223 " clip-rule="nonzero"/></clipPath></defs><g clip-path="url(#2bdeef1e12)"><rect x="-81" width="972" fill="#ff3131" y="-80.999999" height="971.999992" fill-opacity="1"/></g><g clip-path="url(#d762733ef9)"><path fill="#ffffff" d="M 381.992188 310.359375 C 382.808594 310.988281 383.652344 311.578125 384.515625 312.136719 C 385.382812 312.695312 386.269531 313.21875 387.175781 313.703125 C 388.085938 314.191406 389.011719 314.636719 389.957031 315.046875 C 390.902344 315.457031 391.863281 315.828125 392.839844 316.160156 C 393.8125 316.488281 394.800781 316.78125 395.800781 317.03125 C 396.800781 317.28125 397.808594 317.492188 398.824219 317.660156 C 399.839844 317.828125 400.863281 317.953125 401.886719 318.035156 C 402.914062 318.121094 403.941406 318.164062 404.972656 318.164062 C 406.003906 318.164062 407.03125 318.121094 408.058594 318.035156 C 409.085938 317.953125 410.105469 317.828125 411.125 317.660156 C 412.140625 317.492188 413.148438 317.28125 414.148438 317.03125 C 415.144531 316.78125 416.132812 316.488281 417.109375 316.160156 C 418.085938 315.828125 419.042969 315.457031 419.988281 315.046875 C 420.933594 314.636719 421.859375 314.191406 422.769531 313.703125 C 423.679688 313.21875 424.566406 312.695312 425.429688 312.136719 C 426.296875 311.578125 427.136719 310.988281 427.953125 310.359375 L 573.800781 196.71875 C 572.941406 195.488281 572.007812 194.316406 571.003906 193.195312 C 570 192.078125 568.933594 191.023438 567.804688 190.035156 C 566.671875 189.042969 565.488281 188.125 564.246094 187.277344 C 563.007812 186.429688 561.71875 185.660156 560.386719 184.964844 C 559.054688 184.273438 557.683594 183.660156 556.28125 183.132812 C 554.875 182.601562 553.441406 182.160156 551.980469 181.804688 C 550.523438 181.445312 549.046875 181.179688 547.554688 181 C 546.0625 180.820312 544.566406 180.730469 543.0625 180.730469 L 266.933594 180.730469 C 265.34375 180.730469 263.757812 180.835938 262.179688 181.042969 C 260.601562 181.246094 259.042969 181.550781 257.503906 181.953125 C 255.964844 182.355469 254.460938 182.855469 252.984375 183.449219 C 251.507812 184.042969 250.074219 184.730469 248.6875 185.507812 C 247.300781 186.28125 245.964844 187.144531 244.6875 188.089844 C 243.40625 189.035156 242.191406 190.058594 241.042969 191.160156 C 239.894531 192.261719 238.820312 193.429688 237.820312 194.664062 C 236.820312 195.902344 235.902344 197.199219 235.066406 198.550781 Z M 381.992188 310.359375 " fill-opacity="1" fill-rule="nonzero"/></g><g clip-path="url(#7c01b4274c)"><path fill="#ffffff" d="M 443.332031 330.253906 C 441.96875 331.296875 440.566406 332.285156 439.125 333.214844 C 437.683594 334.148438 436.207031 335.015625 434.691406 335.824219 C 433.179688 336.636719 431.636719 337.382812 430.0625 338.0625 C 428.488281 338.746094 426.886719 339.363281 425.261719 339.917969 C 423.636719 340.46875 421.992188 340.953125 420.328125 341.371094 C 418.664062 341.785156 416.984375 342.136719 415.292969 342.414062 C 413.601562 342.695312 411.898438 342.90625 410.1875 343.042969 C 408.476562 343.183594 406.765625 343.253906 405.046875 343.253906 C 403.332031 343.253906 401.621094 343.183594 399.910156 343.042969 C 398.199219 342.90625 396.496094 342.695312 394.804688 342.414062 C 393.113281 342.136719 391.433594 341.785156 389.769531 341.371094 C 388.105469 340.953125 386.457031 340.46875 384.835938 339.917969 C 383.210938 339.363281 381.609375 338.746094 380.035156 338.0625 C 378.460938 337.382812 376.917969 336.636719 375.402344 335.824219 C 373.890625 335.015625 372.414062 334.148438 370.972656 333.214844 C 369.53125 332.285156 368.128906 331.296875 366.765625 330.253906 L 229.28125 225.699219 L 229.28125 394.101562 C 229.28125 395.335938 229.339844 396.566406 229.460938 397.792969 C 229.582031 399.019531 229.761719 400.238281 230.003906 401.449219 C 230.242188 402.65625 230.542969 403.851562 230.902344 405.03125 C 231.257812 406.210938 231.671875 407.371094 232.144531 408.511719 C 232.617188 409.652344 233.144531 410.765625 233.726562 411.851562 C 234.308594 412.941406 234.941406 413.996094 235.625 415.019531 C 236.308594 416.046875 237.042969 417.035156 237.828125 417.988281 C 238.609375 418.941406 239.4375 419.855469 240.308594 420.726562 C 241.179688 421.597656 242.09375 422.425781 243.046875 423.210938 C 244 423.992188 244.988281 424.726562 246.015625 425.410156 C 247.039062 426.09375 248.097656 426.730469 249.183594 427.308594 C 250.269531 427.890625 251.382812 428.417969 252.523438 428.890625 C 253.664062 429.363281 254.824219 429.777344 256.003906 430.132812 C 257.183594 430.492188 258.378906 430.792969 259.585938 431.03125 C 260.796875 431.273438 262.015625 431.453125 263.242188 431.574219 C 264.46875 431.695312 265.699219 431.757812 266.933594 431.757812 L 543.0625 431.757812 C 544.296875 431.757812 545.527344 431.695312 546.753906 431.574219 C 547.980469 431.453125 549.199219 431.273438 550.410156 431.03125 C 551.617188 430.792969 552.8125 430.492188 553.992188 430.132812 C 555.175781 429.777344 556.332031 429.363281 557.472656 428.890625 C 558.613281 428.417969 559.726562 427.890625 560.8125 427.308594 C 561.902344 426.730469 562.957031 426.09375 563.984375 425.410156 C 565.007812 424.726562 565.996094 423.992188 566.949219 423.210938 C 567.90625 422.425781 568.816406 421.597656 569.6875 420.726562 C 570.5625 419.855469 571.386719 418.941406 572.171875 417.988281 C 572.953125 417.035156 573.6875 416.046875 574.371094 415.023438 C 575.058594 413.996094 575.691406 412.941406 576.273438 411.851562 C 576.851562 410.765625 577.378906 409.652344 577.851562 408.511719 C 578.324219 407.371094 578.738281 406.210938 579.097656 405.03125 C 579.453125 403.851562 579.753906 402.65625 579.996094 401.449219 C 580.234375 400.238281 580.414062 399.019531 580.535156 397.792969 C 580.65625 396.566406 580.71875 395.335938 580.71875 394.101562 L 580.71875 223.214844 Z M 443.332031 330.253906 " fill-opacity="1" fill-rule="nonzero"/></g><g fill="#ffffff" fill-opacity="1"><g transform="translate(128.559373, 626.004589)"><g><path d="M 33.359375 -16.3125 L 9.296875 -16.3125 C 9.441406 -12.0625 10.460938 -8.941406 12.359375 -6.953125 C 14.253906 -4.960938 16.851562 -3.96875 20.15625 -3.96875 C 22.65625 -3.96875 24.664062 -4.410156 26.1875 -5.296875 C 27.707031 -6.191406 28.898438 -7.585938 29.765625 -9.484375 L 30.4375 -9.484375 L 33.796875 -7.484375 C 32.785156 -4.953125 31.160156 -2.957031 28.921875 -1.5 C 26.691406 -0.0507812 23.769531 0.671875 20.15625 0.671875 C 16.769531 0.671875 13.859375 0.00390625 11.421875 -1.328125 C 8.992188 -2.660156 7.125 -4.679688 5.8125 -7.390625 C 4.5 -10.097656 3.84375 -13.460938 3.84375 -17.484375 C 3.84375 -21.460938 4.535156 -24.816406 5.921875 -27.546875 C 7.304688 -30.273438 9.195312 -32.3125 11.59375 -33.65625 C 14 -35 16.75 -35.671875 19.84375 -35.671875 C 24.320312 -35.671875 27.820312 -34.40625 30.34375 -31.875 C 32.863281 -29.351562 34.132812 -25.601562 34.15625 -20.625 C 34.15625 -18.675781 34.113281 -17.363281 34.03125 -16.6875 Z M 29.046875 -20.625 C 28.953125 -24.351562 28.125 -27.0625 26.5625 -28.75 C 25 -30.445312 22.757812 -31.296875 19.84375 -31.296875 C 16.769531 -31.296875 14.359375 -30.441406 12.609375 -28.734375 C 10.867188 -27.035156 9.804688 -24.332031 9.421875 -20.625 Z M 29.046875 -20.625 "/></g></g></g><g fill="#ffffff" fill-opacity="1"><g transform="translate(165.879104, 626.004589)"><g><path d="M 7.296875 0 L 1.59375 0 L 12.40625 -18.15625 L 2.125 -35 L 7.96875 -35 L 16.0625 -21.546875 L 16.796875 -21.546875 L 24.921875 -35 L 30.5 -35 L 20.46875 -18.15625 L 31.046875 0 L 25.203125 0 L 16.5625 -14.796875 L 15.84375 -14.796875 Z M 7.296875 0 "/></g></g></g><g fill="#ffffff" fill-opacity="1"><g transform="translate(198.502134, 626.004589)"><g><path d="M 33.359375 -16.3125 L 9.296875 -16.3125 C 9.441406 -12.0625 10.460938 -8.941406 12.359375 -6.953125 C 14.253906 -4.960938 16.851562 -3.96875 20.15625 -3.96875 C 22.65625 -3.96875 24.664062 -4.410156 26.1875 -5.296875 C 27.707031 -6.191406 28.898438 -7.585938 29.765625 -9.484375 L 30.4375 -9.484375 L 33.796875 -7.484375 C 32.785156 -4.953125 31.160156 -2.957031 28.921875 -1.5 C 26.691406 -0.0507812 23.769531 0.671875 20.15625 0.671875 C 16.769531 0.671875 13.859375 0.00390625 11.421875 -1.328125 C 8.992188 -2.660156 7.125 -4.679688 5.8125 -7.390625 C 4.5 -10.097656 3.84375 -13.460938 3.84375 -17.484375 C 3.84375 -21.460938 4.535156 -24.816406 5.921875 -27.546875 C 7.304688 -30.273438 9.195312 -32.3125 11.59375 -33.65625 C 14 -35 16.75 -35.671875 19.84375 -35.671875 C 24.320312 -35.671875 27.820312 -34.40625 30.34375 -31.875 C 32.863281 -29.351562 34.132812 -25.601562 34.15625 -20.625 C 34.15625 -18.675781 34.113281 -17.363281 34.03125 -16.6875 Z M 29.046875 -20.625 C 28.953125 -24.351562 28.125 -27.0625 26.5625 -28.75 C 25 -30.445312 22.757812 -31.296875 19.84375 -31.296875 C 16.769531 -31.296875 14.359375 -30.441406 12.609375 -28.734375 C 10.867188 -27.035156 9.804688 -24.332031 9.421875 -20.625 Z M 29.046875 -20.625 "/></g></g></g><g fill="#ffffff" fill-opacity="1"><g transform="translate(235.821865, 626.004589)"><g><path d="M 20.09375 0.671875 C 17 0.671875 14.222656 -0.03125 11.765625 -1.4375 C 9.316406 -2.851562 7.382812 -4.929688 5.96875 -7.671875 C 4.550781 -10.410156 3.84375 -13.679688 3.84375 -17.484375 C 3.84375 -21.316406 4.550781 -24.601562 5.96875 -27.34375 C 7.382812 -30.082031 9.316406 -32.15625 11.765625 -33.5625 C 14.222656 -34.96875 17 -35.671875 20.09375 -35.671875 C 23.789062 -35.671875 26.734375 -34.972656 28.921875 -33.578125 C 31.117188 -32.179688 32.703125 -30.320312 33.671875 -28 L 30.15625 -25.453125 L 29.515625 -25.453125 C 28.566406 -27.378906 27.34375 -28.789062 25.84375 -29.6875 C 24.351562 -30.59375 22.4375 -31.046875 20.09375 -31.046875 C 17.9375 -31.046875 16.039062 -30.535156 14.40625 -29.515625 C 12.78125 -28.503906 11.515625 -26.984375 10.609375 -24.953125 C 9.710938 -22.921875 9.265625 -20.429688 9.265625 -17.484375 C 9.265625 -14.566406 9.71875 -12.097656 10.625 -10.078125 C 11.539062 -8.054688 12.804688 -6.53125 14.421875 -5.5 C 16.046875 -4.476562 17.9375 -3.96875 20.09375 -3.96875 C 22.519531 -3.96875 24.53125 -4.515625 26.125 -5.609375 C 27.726562 -6.710938 28.984375 -8.453125 29.890625 -10.828125 L 30.5625 -10.828125 L 33.953125 -8.828125 C 33.046875 -5.878906 31.421875 -3.554688 29.078125 -1.859375 C 26.742188 -0.171875 23.75 0.671875 20.09375 0.671875 Z M 20.09375 0.671875 "/></g></g></g><g fill="#ffffff" fill-opacity="1"><g transform="translate(271.903951, 626.004589)"><g><path d="M 31.421875 9.9375 C 26.003906 9.9375 21.269531 8.816406 17.21875 6.578125 C 13.164062 4.347656 10.03125 1.125 7.8125 -3.09375 C 5.601562 -7.3125 4.5 -12.332031 4.5 -18.15625 C 4.5 -23.613281 5.625 -28.484375 7.875 -32.765625 C 10.132812 -37.054688 13.351562 -40.398438 17.53125 -42.796875 C 21.707031 -45.203125 26.582031 -46.40625 32.15625 -46.40625 C 37.757812 -46.40625 42.59375 -45.300781 46.65625 -43.09375 C 50.71875 -40.894531 53.820312 -37.757812 55.96875 -33.6875 C 58.113281 -29.613281 59.1875 -24.835938 59.1875 -19.359375 C 59.1875 -16.296875 58.671875 -13.546875 57.640625 -11.109375 C 56.617188 -8.671875 55.226562 -6.773438 53.46875 -5.421875 C 51.71875 -4.066406 49.785156 -3.390625 47.671875 -3.390625 C 45.492188 -3.390625 43.765625 -3.804688 42.484375 -4.640625 C 41.203125 -5.484375 40.234375 -6.757812 39.578125 -8.46875 L 38.96875 -8.46875 C 37.914062 -6.675781 36.609375 -5.378906 35.046875 -4.578125 C 33.492188 -3.785156 31.617188 -3.390625 29.421875 -3.390625 C 27.242188 -3.390625 25.296875 -3.953125 23.578125 -5.078125 C 21.867188 -6.203125 20.523438 -7.851562 19.546875 -10.03125 C 18.578125 -12.207031 18.09375 -14.851562 18.09375 -17.96875 C 18.09375 -21.070312 18.597656 -23.722656 19.609375 -25.921875 C 20.628906 -28.128906 22.035156 -29.796875 23.828125 -30.921875 C 25.628906 -32.054688 27.695312 -32.625 30.03125 -32.625 C 31.90625 -32.625 33.550781 -32.265625 34.96875 -31.546875 C 36.394531 -30.828125 37.625 -29.609375 38.65625 -27.890625 L 39.265625 -28 L 39.265625 -32.09375 L 43.890625 -32.09375 L 43.890625 -12.40625 C 43.890625 -10.613281 44.203125 -9.320312 44.828125 -8.53125 C 45.453125 -7.75 46.421875 -7.359375 47.734375 -7.359375 C 48.921875 -7.359375 50.023438 -7.804688 51.046875 -8.703125 C 52.078125 -9.609375 52.898438 -10.960938 53.515625 -12.765625 C 54.128906 -14.578125 54.4375 -16.773438 54.4375 -19.359375 C 54.4375 -23.953125 53.582031 -27.9375 51.875 -31.3125 C 50.175781 -34.6875 47.660156 -37.289062 44.328125 -39.125 C 40.992188 -40.96875 36.9375 -41.890625 32.15625 -41.890625 C 27.414062 -41.890625 23.351562 -40.90625 19.96875 -38.9375 C 16.582031 -36.96875 14.007812 -34.203125 12.25 -30.640625 C 10.488281 -27.078125 9.609375 -22.914062 9.609375 -18.15625 C 9.609375 -13.207031 10.46875 -8.960938 12.1875 -5.421875 C 13.90625 -1.890625 16.394531 0.796875 19.65625 2.640625 C 22.925781 4.492188 26.847656 5.421875 31.421875 5.421875 C 33.578125 5.421875 35.609375 5.203125 37.515625 4.765625 C 39.421875 4.335938 41.039062 3.742188 42.375 2.984375 L 42.96875 2.984375 L 44.5 6.640625 C 43.375 7.566406 41.613281 8.347656 39.21875 8.984375 C 36.832031 9.617188 34.234375 9.9375 31.421875 9.9375 Z M 31.046875 -7.6875 C 32.648438 -7.6875 34.066406 -8.066406 35.296875 -8.828125 C 36.523438 -9.585938 37.492188 -10.738281 38.203125 -12.28125 C 38.910156 -13.820312 39.265625 -15.71875 39.265625 -17.96875 C 39.265625 -20.207031 38.910156 -22.101562 38.203125 -23.65625 C 37.492188 -25.21875 36.523438 -26.382812 35.296875 -27.15625 C 34.066406 -27.925781 32.648438 -28.3125 31.046875 -28.3125 C 28.421875 -28.3125 26.425781 -27.472656 25.0625 -25.796875 C 23.695312 -24.128906 23.015625 -21.519531 23.015625 -17.96875 C 23.015625 -14.40625 23.695312 -11.800781 25.0625 -10.15625 C 26.425781 -8.507812 28.421875 -7.6875 31.046875 -7.6875 Z M 31.046875 -7.6875 "/></g></g></g><g fill="#ffffff" fill-opacity="1"><g transform="translate(335.087271, 626.004589)"><g><path d="M 15.96875 0.671875 C 13.757812 0.671875 11.71875 0.378906 9.84375 -0.203125 C 7.976562 -0.785156 6.398438 -1.582031 5.109375 -2.59375 C 3.816406 -3.613281 2.90625 -4.757812 2.375 -6.03125 L 5.421875 -9.203125 L 6.09375 -9.203125 C 7.238281 -7.472656 8.613281 -6.164062 10.21875 -5.28125 C 11.820312 -4.40625 13.738281 -3.96875 15.96875 -3.96875 C 18.550781 -3.96875 20.515625 -4.46875 21.859375 -5.46875 C 23.203125 -6.476562 23.875 -7.882812 23.875 -9.6875 C 23.875 -11.0625 23.460938 -12.195312 22.640625 -13.09375 C 21.828125 -13.988281 20.507812 -14.660156 18.6875 -15.109375 L 12.796875 -16.5625 C 9.640625 -17.320312 7.335938 -18.523438 5.890625 -20.171875 C 4.441406 -21.828125 3.71875 -23.875 3.71875 -26.3125 C 3.71875 -28.21875 4.203125 -29.875 5.171875 -31.28125 C 6.148438 -32.6875 7.550781 -33.769531 9.375 -34.53125 C 11.207031 -35.289062 13.382812 -35.671875 15.90625 -35.671875 C 19.113281 -35.671875 21.644531 -35.21875 23.5 -34.3125 C 25.351562 -33.414062 26.796875 -32.164062 27.828125 -30.5625 L 24.921875 -27.703125 L 24.28125 -27.703125 C 23.15625 -28.992188 21.929688 -29.925781 20.609375 -30.5 C 19.285156 -31.070312 17.71875 -31.359375 15.90625 -31.359375 C 13.59375 -31.359375 11.820312 -30.941406 10.59375 -30.109375 C 9.375 -29.285156 8.765625 -28.09375 8.765625 -26.53125 C 8.765625 -25.113281 9.195312 -23.96875 10.0625 -23.09375 C 10.925781 -22.226562 12.4375 -21.535156 14.59375 -21.015625 L 20.40625 -19.609375 C 23.457031 -18.890625 25.660156 -17.691406 27.015625 -16.015625 C 28.367188 -14.347656 29.046875 -12.257812 29.046875 -9.75 C 29.046875 -7.695312 28.554688 -5.882812 27.578125 -4.3125 C 26.609375 -2.75 25.140625 -1.523438 23.171875 -0.640625 C 21.203125 0.234375 18.800781 0.671875 15.96875 0.671875 Z M 15.96875 0.671875 "/></g></g></g><g fill="#ffffff" fill-opacity="1"><g transform="translate(367.456426, 626.004589)"><g><path d="M 33.359375 -16.3125 L 9.296875 -16.3125 C 9.441406 -12.0625 10.460938 -8.941406 12.359375 -6.953125 C 14.253906 -4.960938 16.851562 -3.96875 20.15625 -3.96875 C 22.65625 -3.96875 24.664062 -4.410156 26.1875 -5.296875 C 27.707031 -6.191406 28.898438 -7.585938 29.765625 -9.484375 L 30.4375 -9.484375 L 33.796875 -7.484375 C 32.785156 -4.953125 31.160156 -2.957031 28.921875 -1.5 C 26.691406 -0.0507812 23.769531 0.671875 20.15625 0.671875 C 16.769531 0.671875 13.859375 0.00390625 11.421875 -1.328125 C 8.992188 -2.660156 7.125 -4.679688 5.8125 -7.390625 C 4.5 -10.097656 3.84375 -13.460938 3.84375 -17.484375 C 3.84375 -21.460938 4.535156 -24.816406 5.921875 -27.546875 C 7.304688 -30.273438 9.195312 -32.3125 11.59375 -33.65625 C 14 -35 16.75 -35.671875 19.84375 -35.671875 C 24.320312 -35.671875 27.820312 -34.40625 30.34375 -31.875 C 32.863281 -29.351562 34.132812 -25.601562 34.15625 -20.625 C 34.15625 -18.675781 34.113281 -17.363281 34.03125 -16.6875 Z M 29.046875 -20.625 C 28.953125 -24.351562 28.125 -27.0625 26.5625 -28.75 C 25 -30.445312 22.757812 -31.296875 19.84375 -31.296875 C 16.769531 -31.296875 14.359375 -30.441406 12.609375 -28.734375 C 10.867188 -27.035156 9.804688 -24.332031 9.421875 -20.625 Z M 29.046875 -20.625 "/></g></g></g><g fill="#ffffff" fill-opacity="1"><g transform="translate(404.776157, 626.004589)"><g><path d="M 15.96875 0.671875 C 13.757812 0.671875 11.71875 0.378906 9.84375 -0.203125 C 7.976562 -0.785156 6.398438 -1.582031 5.109375 -2.59375 C 3.816406 -3.613281 2.90625 -4.757812 2.375 -6.03125 L 5.421875 -9.203125 L 6.09375 -9.203125 C 7.238281 -7.472656 8.613281 -6.164062 10.21875 -5.28125 C 11.820312 -4.40625 13.738281 -3.96875 15.96875 -3.96875 C 18.550781 -3.96875 20.515625 -4.46875 21.859375 -5.46875 C 23.203125 -6.476562 23.875 -7.882812 23.875 -9.6875 C 23.875 -11.0625 23.460938 -12.195312 22.640625 -13.09375 C 21.828125 -13.988281 20.507812 -14.660156 18.6875 -15.109375 L 12.796875 -16.5625 C 9.640625 -17.320312 7.335938 -18.523438 5.890625 -20.171875 C 4.441406 -21.828125 3.71875 -23.875 3.71875 -26.3125 C 3.71875 -28.21875 4.203125 -29.875 5.171875 -31.28125 C 6.148438 -32.6875 7.550781 -33.769531 9.375 -34.53125 C 11.207031 -35.289062 13.382812 -35.671875 15.90625 -35.671875 C 19.113281 -35.671875 21.644531 -35.21875 23.5 -34.3125 C 25.351562 -33.414062 26.796875 -32.164062 27.828125 -30.5625 L 24.921875 -27.703125 L 24.28125 -27.703125 C 23.15625 -28.992188 21.929688 -29.925781 20.609375 -30.5 C 19.285156 -31.070312 17.71875 -31.359375 15.90625 -31.359375 C 13.59375 -31.359375 11.820312 -30.941406 10.59375 -30.109375 C 9.375 -29.285156 8.765625 -28.09375 8.765625 -26.53125 C 8.765625 -25.113281 9.195312 -23.96875 10.0625 -23.09375 C 10.925781 -22.226562 12.4375 -21.535156 14.59375 -21.015625 L 20.40625 -19.609375 C 23.457031 -18.890625 25.660156 -17.691406 27.015625 -16.015625 C 28.367188 -14.347656 29.046875 -12.257812 29.046875 -9.75 C 29.046875 -7.695312 28.554688 -5.882812 27.578125 -4.3125 C 26.609375 -2.75 25.140625 -1.523438 23.171875 -0.640625 C 21.203125 0.234375 18.800781 0.671875 15.96875 0.671875 Z M 15.96875 0.671875 "/></g></g></g><g fill="#ffffff" fill-opacity="1"><g transform="translate(437.145312, 626.004589)"><g><path d="M 14.4375 0.671875 C 10.988281 0.671875 8.296875 -0.226562 6.359375 -2.03125 C 4.421875 -3.832031 3.453125 -6.40625 3.453125 -9.75 C 3.453125 -11.820312 3.878906 -13.570312 4.734375 -15 C 5.597656 -16.425781 6.925781 -17.585938 8.71875 -18.484375 C 10.519531 -19.390625 12.875 -20.082031 15.78125 -20.5625 C 18.3125 -20.988281 20.238281 -21.460938 21.5625 -21.984375 C 22.882812 -22.515625 23.773438 -23.109375 24.234375 -23.765625 C 24.691406 -24.421875 24.921875 -25.25 24.921875 -26.25 C 24.921875 -27.832031 24.375 -29.046875 23.28125 -29.890625 C 22.1875 -30.742188 20.4375 -31.171875 18.03125 -31.171875 C 15.757812 -31.171875 13.816406 -30.726562 12.203125 -29.84375 C 10.585938 -28.96875 9.101562 -27.664062 7.75 -25.9375 L 7.109375 -25.9375 L 4.578125 -29.515625 C 6.054688 -31.398438 7.9375 -32.894531 10.21875 -34 C 12.5 -35.113281 15.101562 -35.671875 18.03125 -35.671875 C 22.15625 -35.671875 25.195312 -34.765625 27.15625 -32.953125 C 29.113281 -31.148438 30.09375 -28.648438 30.09375 -25.453125 L 30.09375 -6.890625 C 30.09375 -4.941406 30.914062 -3.96875 32.5625 -3.96875 C 33.113281 -3.96875 33.644531 -4.0625 34.15625 -4.25 L 34.59375 -4.125 L 35.203125 -0.546875 C 34.816406 -0.285156 34.3125 -0.0859375 33.6875 0.046875 C 33.0625 0.179688 32.421875 0.25 31.765625 0.25 C 29.835938 0.25 28.382812 -0.171875 27.40625 -1.015625 C 26.425781 -1.859375 25.796875 -3.109375 25.515625 -4.765625 L 24.84375 -4.828125 C 23.851562 -2.984375 22.507812 -1.601562 20.8125 -0.6875 C 19.125 0.21875 17 0.671875 14.4375 0.671875 Z M 15.578125 -3.453125 C 17.523438 -3.453125 19.210938 -3.898438 20.640625 -4.796875 C 22.066406 -5.703125 23.160156 -6.96875 23.921875 -8.59375 C 24.691406 -10.226562 25.078125 -12.113281 25.078125 -14.25 L 25.078125 -18.6875 L 24.46875 -18.828125 C 23.6875 -18.273438 22.734375 -17.8125 21.609375 -17.4375 C 20.492188 -17.070312 18.929688 -16.738281 16.921875 -16.4375 C 14.890625 -16.164062 13.273438 -15.742188 12.078125 -15.171875 C 10.878906 -14.597656 10.023438 -13.875 9.515625 -13 C 9.015625 -12.125 8.765625 -11.039062 8.765625 -9.75 C 8.765625 -7.695312 9.363281 -6.132812 10.5625 -5.0625 C 11.769531 -3.988281 13.441406 -3.453125 15.578125 -3.453125 Z M 15.578125 -3.453125 "/></g></g></g><g fill="#ffffff" fill-opacity="1"><g transform="translate(473.354325, 626.004589)"><g><path d="M 8.53125 0.3125 C 7.332031 0.3125 6.382812 -0.0234375 5.6875 -0.703125 C 4.988281 -1.378906 4.640625 -2.273438 4.640625 -3.390625 C 4.640625 -4.492188 4.988281 -5.398438 5.6875 -6.109375 C 6.382812 -6.816406 7.332031 -7.171875 8.53125 -7.171875 C 9.757812 -7.171875 10.722656 -6.832031 11.421875 -6.15625 C 12.117188 -5.476562 12.46875 -4.578125 12.46875 -3.453125 C 12.46875 -2.335938 12.113281 -1.429688 11.40625 -0.734375 C 10.695312 -0.0351562 9.738281 0.3125 8.53125 0.3125 Z M 8.53125 0.3125 "/></g></g></g><g fill="#ffffff" fill-opacity="1"><g transform="translate(490.459213, 626.004589)"><g><path d="M 20.09375 0.671875 C 16.789062 0.671875 13.914062 -0.0234375 11.46875 -1.421875 C 9.03125 -2.816406 7.148438 -4.875 5.828125 -7.59375 C 4.503906 -10.320312 3.84375 -13.617188 3.84375 -17.484375 C 3.84375 -21.359375 4.503906 -24.660156 5.828125 -27.390625 C 7.148438 -30.117188 9.03125 -32.179688 11.46875 -33.578125 C 13.914062 -34.972656 16.789062 -35.671875 20.09375 -35.671875 C 23.394531 -35.671875 26.265625 -34.972656 28.703125 -33.578125 C 31.148438 -32.179688 33.035156 -30.117188 34.359375 -27.390625 C 35.679688 -24.660156 36.34375 -21.359375 36.34375 -17.484375 C 36.34375 -13.617188 35.679688 -10.320312 34.359375 -7.59375 C 33.035156 -4.875 31.148438 -2.816406 28.703125 -1.421875 C 26.265625 -0.0234375 23.394531 0.671875 20.09375 0.671875 Z M 20.09375 -3.96875 C 23.582031 -3.96875 26.25 -5.066406 28.09375 -7.265625 C 29.945312 -9.460938 30.875 -12.867188 30.875 -17.484375 C 30.875 -22.117188 29.945312 -25.535156 28.09375 -27.734375 C 26.25 -29.941406 23.582031 -31.046875 20.09375 -31.046875 C 16.601562 -31.046875 13.925781 -29.9375 12.0625 -27.71875 C 10.195312 -25.507812 9.265625 -22.097656 9.265625 -17.484375 C 9.265625 -12.867188 10.195312 -9.460938 12.0625 -7.265625 C 13.925781 -5.066406 16.601562 -3.96875 20.09375 -3.96875 Z M 20.09375 -3.96875 "/></g></g></g><g fill="#ffffff" fill-opacity="1"><g transform="translate(530.635069, 626.004589)"><g><path d="M 6.09375 0 L 6.09375 -35 L 11.015625 -35 L 11.015625 -29.515625 L 11.6875 -29.359375 C 13.3125 -33.335938 16.378906 -35.328125 20.890625 -35.328125 C 23.273438 -35.328125 25.0625 -34.894531 26.25 -34.03125 L 24.921875 -29.640625 L 24.28125 -29.515625 C 22.96875 -30.171875 21.53125 -30.5 19.96875 -30.5 C 17.175781 -30.5 15.023438 -29.453125 13.515625 -27.359375 C 12.015625 -25.265625 11.265625 -21.867188 11.265625 -17.171875 L 11.265625 0 Z M 6.09375 0 "/></g></g></g><g fill="#ffffff" fill-opacity="1"><g transform="translate(557.672833, 626.004589)"><g><path d="M 18.03125 14.859375 C 12.507812 14.859375 8.476562 13.9375 5.9375 12.09375 C 3.394531 10.25 2.125 7.804688 2.125 4.765625 C 2.125 2.796875 2.71875 1.226562 3.90625 0.0625 C 5.09375 -1.101562 6.816406 -1.9375 9.078125 -2.4375 L 9.078125 -3.109375 C 7.992188 -3.722656 7.179688 -4.441406 6.640625 -5.265625 C 6.109375 -6.085938 5.84375 -7.070312 5.84375 -8.21875 C 5.84375 -9.570312 6.269531 -10.671875 7.125 -11.515625 C 7.976562 -12.367188 9.253906 -13.015625 10.953125 -13.453125 L 10.953125 -14.125 C 7.140625 -16.132812 5.234375 -19.40625 5.234375 -23.9375 C 5.234375 -26.21875 5.75 -28.242188 6.78125 -30.015625 C 7.820312 -31.796875 9.304688 -33.179688 11.234375 -34.171875 C 13.160156 -35.171875 15.40625 -35.671875 17.96875 -35.671875 C 20.90625 -35.671875 23.359375 -35.023438 25.328125 -33.734375 C 26.066406 -34.554688 26.617188 -35.4375 26.984375 -36.375 C 27.359375 -37.320312 27.597656 -38.390625 27.703125 -39.578125 L 28.375 -39.984375 L 32.625 -38.96875 C 32.414062 -37.195312 31.878906 -35.695312 31.015625 -34.46875 C 30.160156 -33.238281 28.953125 -32.222656 27.390625 -31.421875 L 27.390625 -30.75 C 28.515625 -29.863281 29.34375 -28.820312 29.875 -27.625 C 30.414062 -26.425781 30.6875 -25.035156 30.6875 -23.453125 C 30.6875 -21.253906 30.15625 -19.273438 29.09375 -17.515625 C 28.039062 -15.765625 26.550781 -14.382812 24.625 -13.375 C 22.695312 -12.375 20.476562 -11.875 17.96875 -11.875 C 17.664062 -11.875 17.132812 -11.894531 16.375 -11.9375 C 15.53125 -11.976562 14.90625 -12 14.5 -12 C 13.40625 -12 12.53125 -11.710938 11.875 -11.140625 C 11.21875 -10.566406 10.890625 -9.835938 10.890625 -8.953125 C 10.890625 -7.847656 11.242188 -7.035156 11.953125 -6.515625 C 12.660156 -6.003906 13.828125 -5.71875 15.453125 -5.65625 L 23.734375 -5.359375 C 27.316406 -5.234375 29.96875 -4.40625 31.6875 -2.875 C 33.414062 -1.34375 34.28125 0.832031 34.28125 3.65625 C 34.28125 5.75 33.71875 7.632812 32.59375 9.3125 C 31.46875 11 29.6875 12.34375 27.25 13.34375 C 24.820312 14.351562 21.75 14.859375 18.03125 14.859375 Z M 17.96875 -16.3125 C 20.4375 -16.3125 22.347656 -16.957031 23.703125 -18.25 C 25.054688 -19.539062 25.734375 -21.347656 25.734375 -23.671875 C 25.734375 -26.085938 25.0625 -27.953125 23.71875 -29.265625 C 22.375 -30.578125 20.457031 -31.234375 17.96875 -31.234375 C 15.46875 -31.234375 13.5625 -30.582031 12.25 -29.28125 C 10.9375 -27.976562 10.28125 -26.109375 10.28125 -23.671875 C 10.28125 -21.328125 10.9375 -19.515625 12.25 -18.234375 C 13.5625 -16.953125 15.46875 -16.3125 17.96875 -16.3125 Z M 18.03125 10.40625 C 20.613281 10.40625 22.722656 10.117188 24.359375 9.546875 C 25.992188 8.984375 27.171875 8.226562 27.890625 7.28125 C 28.617188 6.34375 28.984375 5.289062 28.984375 4.125 C 28.984375 3.09375 28.785156 2.257812 28.390625 1.625 C 27.992188 0.988281 27.363281 0.507812 26.5 0.1875 C 25.632812 -0.125 24.453125 -0.320312 22.953125 -0.40625 L 15.109375 -0.796875 L 14 -0.796875 C 9.613281 -0.734375 7.421875 0.96875 7.421875 4.3125 C 7.421875 8.375 10.957031 10.40625 18.03125 10.40625 Z M 18.03125 10.40625 "/></g></g></g><g fill="#ffffff" fill-opacity="1"><g transform="translate(593.532801, 626.004589)"><g><path d="M 8.53125 0.3125 C 7.332031 0.3125 6.382812 -0.0234375 5.6875 -0.703125 C 4.988281 -1.378906 4.640625 -2.273438 4.640625 -3.390625 C 4.640625 -4.492188 4.988281 -5.398438 5.6875 -6.109375 C 6.382812 -6.816406 7.332031 -7.171875 8.53125 -7.171875 C 9.757812 -7.171875 10.722656 -6.832031 11.421875 -6.15625 C 12.117188 -5.476562 12.46875 -4.578125 12.46875 -3.453125 C 12.46875 -2.335938 12.113281 -1.429688 11.40625 -0.734375 C 10.695312 -0.0351562 9.738281 0.3125 8.53125 0.3125 Z M 8.53125 0.3125 "/></g></g></g><g fill="#ffffff" fill-opacity="1"><g transform="translate(610.637689, 626.004589)"><g><path d="M 6.09375 0 L 6.09375 -35 L 11.015625 -35 L 11.015625 -29.515625 L 11.6875 -29.359375 C 12.84375 -31.410156 14.328125 -32.972656 16.140625 -34.046875 C 17.953125 -35.128906 20.15625 -35.671875 22.75 -35.671875 C 26.96875 -35.671875 30.019531 -34.597656 31.90625 -32.453125 C 33.800781 -30.304688 34.75 -27 34.75 -22.53125 L 34.75 0 L 29.578125 0 L 29.578125 -22.40625 C 29.578125 -24.519531 29.304688 -26.21875 28.765625 -27.5 C 28.234375 -28.78125 27.398438 -29.710938 26.265625 -30.296875 C 25.128906 -30.878906 23.640625 -31.171875 21.796875 -31.171875 C 18.648438 -31.171875 16.109375 -30.128906 14.171875 -28.046875 C 12.234375 -25.960938 11.265625 -22.601562 11.265625 -17.96875 L 11.265625 0 Z M 6.09375 0 "/></g></g></g><g fill="#ffffff" fill-opacity="1"><g transform="translate(650.940483, 626.004589)"><g><path d="M 28 0 L 2.375 0 L 2.375 -4.5 L 21.609375 -30.125 L 21.421875 -30.78125 L 3.171875 -30.78125 L 3.171875 -35.046875 L 27.703125 -35.046875 L 27.703125 -30.53125 L 8.46875 -4.921875 L 8.703125 -4.25 L 28 -4.25 Z M 28 0 "/></g></g></g></svg>