<svg xmlns="http://www.w3.org/2000/svg" xmlns:xlink="http://www.w3.org/1999/xlink" width="1080" zoomAndPan="magnify" viewBox="0 0 810 809.999993" height="1080" preserveAspectRatio="xMidYMid meet" version="1.0"><defs><g/><clipPath id="b7991e8fb6"><path d="M 38.25 0 L 771.75 0 C 781.894531 0 791.625 4.03125 798.796875 11.203125 C 805.96875 18.375 810 28.105469 810 38.25 L 810 771.75 C 810 781.894531 805.96875 791.625 798.796875 798.796875 C 791.625 805.96875 781.894531 810 771.75 810 L 38.25 810 C 28.105469 810 18.375 805.96875 11.203125 798.796875 C 4.03125 791.625 0 781.894531 0 771.75 L 0 38.25 C 0 28.105469 4.03125 18.375 11.203125 11.203125 C 18.375 4.03125 28.105469 0 38.25 0 Z M 38.25 0 " clip-rule="nonzero"/></clipPath><linearGradient x1="128" gradientTransform="matrix(3.164062, 0, 0, 3.164062, 0.0000035, 0.00002)" y1="0" x2="128" gradientUnits="userSpaceOnUse" y2="255.999989" id="b42fbb166c"><stop stop-opacity="1" stop-color="rgb(8.599854%, 65.499878%, 97.999573%)" offset="0"/><stop stop-opacity="1" stop-color="rgb(8.557129%, 65.333557%, 97.962952%)" offset="0.0078125"/><stop stop-opacity="1" stop-color="rgb(8.47168%, 65.000916%, 97.891235%)" offset="0.015625"/><stop stop-opacity="1" stop-color="rgb(8.387756%, 64.6698%, 97.819519%)" offset="0.0234375"/><stop stop-opacity="1" stop-color="rgb(8.303833%, 64.338684%, 97.746277%)" offset="0.03125"/><stop stop-opacity="1" stop-color="rgb(8.218384%, 64.007568%, 97.674561%)" offset="0.0390625"/><stop stop-opacity="1" stop-color="rgb(8.13446%, 63.676453%, 97.602844%)" offset="0.046875"/><stop stop-opacity="1" stop-color="rgb(8.050537%, 63.345337%, 97.531128%)" offset="0.0546875"/><stop stop-opacity="1" stop-color="rgb(7.966614%, 63.014221%, 97.459412%)" offset="0.0625"/><stop stop-opacity="1" stop-color="rgb(7.881165%, 62.683105%, 97.387695%)" offset="0.0703125"/><stop stop-opacity="1" stop-color="rgb(7.797241%, 62.35199%, 97.315979%)" offset="0.078125"/><stop stop-opacity="1" stop-color="rgb(7.713318%, 62.020874%, 97.244263%)" offset="0.0859375"/><stop stop-opacity="1" stop-color="rgb(7.627869%, 61.689758%, 97.172546%)" offset="0.09375"/><stop stop-opacity="1" stop-color="rgb(7.543945%, 61.358643%, 97.10083%)" offset="0.101562"/><stop stop-opacity="1" stop-color="rgb(7.460022%, 61.026001%, 97.027588%)" offset="0.109375"/><stop stop-opacity="1" stop-color="rgb(7.374573%, 60.694885%, 96.955872%)" offset="0.117188"/><stop stop-opacity="1" stop-color="rgb(7.290649%, 60.36377%, 96.884155%)" offset="0.125"/><stop stop-opacity="1" stop-color="rgb(7.206726%, 60.032654%, 96.812439%)" offset="0.132813"/><stop stop-opacity="1" stop-color="rgb(7.122803%, 59.701538%, 96.740723%)" offset="0.140625"/><stop stop-opacity="1" stop-color="rgb(7.037354%, 59.370422%, 96.669006%)" offset="0.148438"/><stop stop-opacity="1" stop-color="rgb(6.95343%, 59.039307%, 96.59729%)" offset="0.15625"/><stop stop-opacity="1" stop-color="rgb(6.869507%, 58.708191%, 96.525574%)" offset="0.164063"/><stop stop-opacity="1" stop-color="rgb(6.784058%, 58.377075%, 96.453857%)" offset="0.171875"/><stop stop-opacity="1" stop-color="rgb(6.700134%, 58.045959%, 96.380615%)" offset="0.179688"/><stop stop-opacity="1" stop-color="rgb(6.616211%, 57.714844%, 96.308899%)" offset="0.1875"/><stop stop-opacity="1" stop-color="rgb(6.530762%, 57.382202%, 96.237183%)" offset="0.195312"/><stop stop-opacity="1" stop-color="rgb(6.446838%, 57.051086%, 96.165466%)" offset="0.203125"/><stop stop-opacity="1" stop-color="rgb(6.362915%, 56.719971%, 96.09375%)" offset="0.210938"/><stop stop-opacity="1" stop-color="rgb(6.278992%, 56.388855%, 96.022034%)" offset="0.21875"/><stop stop-opacity="1" stop-color="rgb(6.193542%, 56.057739%, 95.950317%)" offset="0.226562"/><stop stop-opacity="1" stop-color="rgb(6.109619%, 55.726624%, 95.878601%)" offset="0.234375"/><stop stop-opacity="1" stop-color="rgb(6.025696%, 55.395508%, 95.806885%)" offset="0.242188"/><stop stop-opacity="1" stop-color="rgb(5.940247%, 55.064392%, 95.735168%)" offset="0.25"/><stop stop-opacity="1" stop-color="rgb(5.82428%, 54.777527%, 95.611572%)" offset="0.265625"/><stop stop-opacity="1" stop-color="rgb(5.674744%, 54.533386%, 95.436096%)" offset="0.28125"/><stop stop-opacity="1" stop-color="rgb(5.523682%, 54.289246%, 95.26062%)" offset="0.296875"/><stop stop-opacity="1" stop-color="rgb(5.374146%, 54.046631%, 95.08667%)" offset="0.3125"/><stop stop-opacity="1" stop-color="rgb(5.224609%, 53.80249%, 94.911194%)" offset="0.328125"/><stop stop-opacity="1" stop-color="rgb(5.073547%, 53.55835%, 94.735718%)" offset="0.34375"/><stop stop-opacity="1" stop-color="rgb(4.924011%, 53.314209%, 94.561768%)" offset="0.359375"/><stop stop-opacity="1" stop-color="rgb(4.774475%, 53.071594%, 94.386292%)" offset="0.375"/><stop stop-opacity="1" stop-color="rgb(4.623413%, 52.827454%, 94.210815%)" offset="0.390625"/><stop stop-opacity="1" stop-color="rgb(4.473877%, 52.583313%, 94.036865%)" offset="0.40625"/><stop stop-opacity="1" stop-color="rgb(4.324341%, 52.339172%, 93.861389%)" offset="0.421875"/><stop stop-opacity="1" stop-color="rgb(4.173279%, 52.096558%, 93.685913%)" offset="0.4375"/><stop stop-opacity="1" stop-color="rgb(4.023743%, 51.852417%, 93.511963%)" offset="0.453125"/><stop stop-opacity="1" stop-color="rgb(3.874207%, 51.608276%, 93.336487%)" offset="0.46875"/><stop stop-opacity="1" stop-color="rgb(3.72467%, 51.364136%, 93.161011%)" offset="0.484375"/><stop stop-opacity="1" stop-color="rgb(3.573608%, 51.121521%, 92.985535%)" offset="0.5"/><stop stop-opacity="1" stop-color="rgb(3.4729%, 50.865173%, 92.826843%)" offset="0.515625"/><stop stop-opacity="1" stop-color="rgb(3.424072%, 50.596619%, 92.683411%)" offset="0.53125"/><stop stop-opacity="1" stop-color="rgb(3.373718%, 50.326538%, 92.539978%)" offset="0.546875"/><stop stop-opacity="1" stop-color="rgb(3.323364%, 50.057983%, 92.396545%)" offset="0.5625"/><stop stop-opacity="1" stop-color="rgb(3.27301%, 49.789429%, 92.251587%)" offset="0.578125"/><stop stop-opacity="1" stop-color="rgb(3.224182%, 49.520874%, 92.108154%)" offset="0.59375"/><stop stop-opacity="1" stop-color="rgb(3.173828%, 49.252319%, 91.964722%)" offset="0.609375"/><stop stop-opacity="1" stop-color="rgb(3.123474%, 48.983765%, 91.821289%)" offset="0.625"/><stop stop-opacity="1" stop-color="rgb(3.07312%, 48.71521%, 91.677856%)" offset="0.640625"/><stop stop-opacity="1" stop-color="rgb(3.024292%, 48.446655%, 91.532898%)" offset="0.65625"/><stop stop-opacity="1" stop-color="rgb(2.973938%, 48.176575%, 91.389465%)" offset="0.671875"/><stop stop-opacity="1" stop-color="rgb(2.923584%, 47.90802%, 91.246033%)" offset="0.6875"/><stop stop-opacity="1" stop-color="rgb(2.87323%, 47.639465%, 91.1026%)" offset="0.703125"/><stop stop-opacity="1" stop-color="rgb(2.824402%, 47.370911%, 90.959167%)" offset="0.71875"/><stop stop-opacity="1" stop-color="rgb(2.774048%, 47.102356%, 90.814209%)" offset="0.734375"/><stop stop-opacity="1" stop-color="rgb(2.723694%, 46.833801%, 90.670776%)" offset="0.75"/><stop stop-opacity="1" stop-color="rgb(2.662659%, 46.588135%, 90.560913%)" offset="0.757812"/><stop stop-opacity="1" stop-color="rgb(2.590942%, 46.365356%, 90.486145%)" offset="0.765625"/><stop stop-opacity="1" stop-color="rgb(2.519226%, 46.144104%, 90.411377%)" offset="0.773438"/><stop stop-opacity="1" stop-color="rgb(2.44751%, 45.922852%, 90.336609%)" offset="0.78125"/><stop stop-opacity="1" stop-color="rgb(2.375793%, 45.700073%, 90.261841%)" offset="0.789062"/><stop stop-opacity="1" stop-color="rgb(2.302551%, 45.478821%, 90.185547%)" offset="0.796875"/><stop stop-opacity="1" stop-color="rgb(2.230835%, 45.256042%, 90.110779%)" offset="0.804688"/><stop stop-opacity="1" stop-color="rgb(2.159119%, 45.03479%, 90.036011%)" offset="0.8125"/><stop stop-opacity="1" stop-color="rgb(2.087402%, 44.813538%, 89.961243%)" offset="0.820312"/><stop stop-opacity="1" stop-color="rgb(2.015686%, 44.590759%, 89.886475%)" offset="0.828125"/><stop stop-opacity="1" stop-color="rgb(1.94397%, 44.369507%, 89.811707%)" offset="0.835938"/><stop stop-opacity="1" stop-color="rgb(1.872253%, 44.146729%, 89.735413%)" offset="0.84375"/><stop stop-opacity="1" stop-color="rgb(1.800537%, 43.925476%, 89.660645%)" offset="0.851562"/><stop stop-opacity="1" stop-color="rgb(1.728821%, 43.704224%, 89.585876%)" offset="0.859375"/><stop stop-opacity="1" stop-color="rgb(1.657104%, 43.481445%, 89.511108%)" offset="0.867188"/><stop stop-opacity="1" stop-color="rgb(1.583862%, 43.260193%, 89.43634%)" offset="0.875"/><stop stop-opacity="1" stop-color="rgb(1.512146%, 43.037415%, 89.361572%)" offset="0.882812"/><stop stop-opacity="1" stop-color="rgb(1.44043%, 42.816162%, 89.286804%)" offset="0.890625"/><stop stop-opacity="1" stop-color="rgb(1.368713%, 42.593384%, 89.21051%)" offset="0.898438"/><stop stop-opacity="1" stop-color="rgb(1.296997%, 42.372131%, 89.135742%)" offset="0.90625"/><stop stop-opacity="1" stop-color="rgb(1.225281%, 42.150879%, 89.060974%)" offset="0.914062"/><stop stop-opacity="1" stop-color="rgb(1.153564%, 41.928101%, 88.986206%)" offset="0.921875"/><stop stop-opacity="1" stop-color="rgb(1.081848%, 41.706848%, 88.911438%)" offset="0.929688"/><stop stop-opacity="1" stop-color="rgb(1.010132%, 41.48407%, 88.83667%)" offset="0.9375"/><stop stop-opacity="1" stop-color="rgb(0.93689%, 41.262817%, 88.760376%)" offset="0.945312"/><stop stop-opacity="1" stop-color="rgb(0.865173%, 41.041565%, 88.685608%)" offset="0.953125"/><stop stop-opacity="1" stop-color="rgb(0.793457%, 40.818787%, 88.61084%)" offset="0.960938"/><stop stop-opacity="1" stop-color="rgb(0.721741%, 40.597534%, 88.536072%)" offset="0.96875"/><stop stop-opacity="1" stop-color="rgb(0.650024%, 40.374756%, 88.461304%)" offset="0.976562"/><stop stop-opacity="1" stop-color="rgb(0.578308%, 40.153503%, 88.386536%)" offset="0.984375"/><stop stop-opacity="1" stop-color="rgb(0.506592%, 39.932251%, 88.311768%)" offset="0.992188"/><stop stop-opacity="1" stop-color="rgb(0.434875%, 39.709473%, 88.235474%)" offset="1"/></linearGradient><clipPath id="71444176a1"><path d="M 243 141 L 567 141 L 567 464.890625 L 243 464.890625 Z M 243 141 " clip-rule="nonzero"/></clipPath></defs><g clip-path="url(#b7991e8fb6)"><rect x="-81" fill="url(#b42fbb166c)" width="972" y="-80.999999" height="971.999992"/></g><g clip-path="url(#71444176a1)"><path fill="#ffffff" d="M 526.277344 141.523438 L 283.632812 141.523438 C 261.332031 141.523438 243 159.832031 243 182.027344 L 243 423.558594 C 243 445.757812 261.332031 464.257812 283.632812 464.257812 L 404.367188 464.257812 L 404.367188 352.882812 L 364.5 352.882812 L 364.5 303.523438 L 404.367188 303.523438 L 404.367188 262.539062 C 404.367188 229.183594 432.113281 202.90625 465.617188 202.90625 L 506.882812 202.90625 L 506.882812 252.898438 L 485.835938 252.898438 C 474.675781 252.898438 465.75 251.425781 465.75 262.539062 L 465.75 303.523438 L 516.171875 303.523438 L 495.949219 352.882812 L 465.75 352.882812 L 465.75 464.257812 L 526.277344 464.257812 C 548.582031 464.257812 567 445.757812 567 423.558594 L 567 182.027344 C 567 159.832031 548.582031 141.523438 526.277344 141.523438 Z M 526.277344 141.523438 " fill-opacity="1" fill-rule="nonzero"/></g><g fill="#ffffff" fill-opacity="1"><g transform="translate(64.207032, 611.754589)"><g><path d="M 15.59375 0.515625 C 13.351562 0.515625 11.34375 0.210938 9.5625 -0.390625 C 7.78125 -1.003906 6.296875 -1.804688 5.109375 -2.796875 C 3.921875 -3.796875 3.03125 -4.890625 2.4375 -6.078125 L 4.734375 -8.859375 L 5.34375 -8.859375 C 7.5625 -5.128906 10.976562 -3.265625 15.59375 -3.265625 C 18.28125 -3.265625 20.28125 -3.828125 21.59375 -4.953125 C 22.90625 -6.078125 23.5625 -7.640625 23.5625 -9.640625 C 23.5625 -10.816406 23.34375 -11.8125 22.90625 -12.625 C 22.476562 -13.4375 21.765625 -14.128906 20.765625 -14.703125 C 19.773438 -15.285156 18.425781 -15.789062 16.71875 -16.21875 L 12.546875 -17.234375 C 9.441406 -17.984375 7.148438 -19.175781 5.671875 -20.8125 C 4.203125 -22.445312 3.46875 -24.519531 3.46875 -27.03125 C 3.46875 -28.800781 3.921875 -30.378906 4.828125 -31.765625 C 5.742188 -33.160156 7.078125 -34.25 8.828125 -35.03125 C 10.585938 -35.8125 12.691406 -36.203125 15.140625 -36.203125 C 17.828125 -36.203125 20.09375 -35.820312 21.9375 -35.0625 C 23.78125 -34.3125 25.257812 -33.179688 26.375 -31.671875 L 24.3125 -28.90625 L 23.703125 -28.90625 C 22.679688 -30.15625 21.46875 -31.070312 20.0625 -31.65625 C 18.664062 -32.25 17.023438 -32.546875 15.140625 -32.546875 C 12.660156 -32.546875 10.789062 -32.0625 9.53125 -31.09375 C 8.269531 -30.132812 7.640625 -28.8125 7.640625 -27.125 C 7.640625 -25.507812 8.101562 -24.222656 9.03125 -23.265625 C 9.957031 -22.316406 11.519531 -21.582031 13.71875 -21.0625 L 18 -20.046875 C 21.457031 -19.234375 23.960938 -17.984375 25.515625 -16.296875 C 27.078125 -14.609375 27.859375 -12.457031 27.859375 -9.84375 C 27.859375 -7.820312 27.40625 -6.035156 26.5 -4.484375 C 25.59375 -2.929688 24.21875 -1.707031 22.375 -0.8125 C 20.539062 0.0703125 18.28125 0.515625 15.59375 0.515625 Z M 15.59375 0.515625 "/></g></g></g><g fill="#ffffff" fill-opacity="1"><g transform="translate(94.79307, 611.754589)"><g><path d="M 9.59375 -16.828125 L 9.59375 -3.46875 L 27.78125 -3.46875 L 27.78125 0 L 5.390625 0 L 5.390625 -35.6875 L 27.390625 -35.6875 L 27.390625 -32.234375 L 9.59375 -32.234375 L 9.59375 -20.28125 L 25.296875 -20.28125 L 25.296875 -16.828125 Z M 9.59375 -16.828125 "/></g></g></g><g fill="#ffffff" fill-opacity="1"><g transform="translate(124.939724, 611.754589)"><g><path d="M 15.59375 0.515625 C 13.351562 0.515625 11.34375 0.210938 9.5625 -0.390625 C 7.78125 -1.003906 6.296875 -1.804688 5.109375 -2.796875 C 3.921875 -3.796875 3.03125 -4.890625 2.4375 -6.078125 L 4.734375 -8.859375 L 5.34375 -8.859375 C 7.5625 -5.128906 10.976562 -3.265625 15.59375 -3.265625 C 18.28125 -3.265625 20.28125 -3.828125 21.59375 -4.953125 C 22.90625 -6.078125 23.5625 -7.640625 23.5625 -9.640625 C 23.5625 -10.816406 23.34375 -11.8125 22.90625 -12.625 C 22.476562 -13.4375 21.765625 -14.128906 20.765625 -14.703125 C 19.773438 -15.285156 18.425781 -15.789062 16.71875 -16.21875 L 12.546875 -17.234375 C 9.441406 -17.984375 7.148438 -19.175781 5.671875 -20.8125 C 4.203125 -22.445312 3.46875 -24.519531 3.46875 -27.03125 C 3.46875 -28.800781 3.921875 -30.378906 4.828125 -31.765625 C 5.742188 -33.160156 7.078125 -34.25 8.828125 -35.03125 C 10.585938 -35.8125 12.691406 -36.203125 15.140625 -36.203125 C 17.828125 -36.203125 20.09375 -35.820312 21.9375 -35.0625 C 23.78125 -34.3125 25.257812 -33.179688 26.375 -31.671875 L 24.3125 -28.90625 L 23.703125 -28.90625 C 22.679688 -30.15625 21.46875 -31.070312 20.0625 -31.65625 C 18.664062 -32.25 17.023438 -32.546875 15.140625 -32.546875 C 12.660156 -32.546875 10.789062 -32.0625 9.53125 -31.09375 C 8.269531 -30.132812 7.640625 -28.8125 7.640625 -27.125 C 7.640625 -25.507812 8.101562 -24.222656 9.03125 -23.265625 C 9.957031 -22.316406 11.519531 -21.582031 13.71875 -21.0625 L 18 -20.046875 C 21.457031 -19.234375 23.960938 -17.984375 25.515625 -16.296875 C 27.078125 -14.609375 27.859375 -12.457031 27.859375 -9.84375 C 27.859375 -7.820312 27.40625 -6.035156 26.5 -4.484375 C 25.59375 -2.929688 24.21875 -1.707031 22.375 -0.8125 C 20.539062 0.0703125 18.28125 0.515625 15.59375 0.515625 Z M 15.59375 0.515625 "/></g></g></g><g fill="#ffffff" fill-opacity="1"><g transform="translate(155.525763, 611.754589)"><g><path d="M 32.125 0 L 27.640625 0 L 24.34375 -9.796875 L 9.125 -9.796875 L 5.8125 0 L 1.421875 0 L 13.875 -35.6875 L 19.671875 -35.6875 Z M 16.4375 -31.375 L 10.296875 -13.3125 L 23.140625 -13.3125 L 17.046875 -31.375 Z M 16.4375 -31.375 "/></g></g></g><g fill="#ffffff" fill-opacity="1"><g transform="translate(189.065442, 611.754589)"><g/></g></g><g fill="#ffffff" fill-opacity="1"><g transform="translate(201.319386, 611.754589)"><g><path d="M 16.4375 -15.546875 L 2.546875 -15.546875 L 2.546875 -19.109375 L 16.4375 -19.109375 Z M 16.4375 -15.546875 "/></g></g></g><g fill="#ffffff" fill-opacity="1"><g transform="translate(220.261737, 611.754589)"><g/></g></g><g fill="#ffffff" fill-opacity="1"><g transform="translate(232.515681, 611.754589)"><g><path d="M 15.59375 0.515625 C 13.351562 0.515625 11.34375 0.210938 9.5625 -0.390625 C 7.78125 -1.003906 6.296875 -1.804688 5.109375 -2.796875 C 3.921875 -3.796875 3.03125 -4.890625 2.4375 -6.078125 L 4.734375 -8.859375 L 5.34375 -8.859375 C 7.5625 -5.128906 10.976562 -3.265625 15.59375 -3.265625 C 18.28125 -3.265625 20.28125 -3.828125 21.59375 -4.953125 C 22.90625 -6.078125 23.5625 -7.640625 23.5625 -9.640625 C 23.5625 -10.816406 23.34375 -11.8125 22.90625 -12.625 C 22.476562 -13.4375 21.765625 -14.128906 20.765625 -14.703125 C 19.773438 -15.285156 18.425781 -15.789062 16.71875 -16.21875 L 12.546875 -17.234375 C 9.441406 -17.984375 7.148438 -19.175781 5.671875 -20.8125 C 4.203125 -22.445312 3.46875 -24.519531 3.46875 -27.03125 C 3.46875 -28.800781 3.921875 -30.378906 4.828125 -31.765625 C 5.742188 -33.160156 7.078125 -34.25 8.828125 -35.03125 C 10.585938 -35.8125 12.691406 -36.203125 15.140625 -36.203125 C 17.828125 -36.203125 20.09375 -35.820312 21.9375 -35.0625 C 23.78125 -34.3125 25.257812 -33.179688 26.375 -31.671875 L 24.3125 -28.90625 L 23.703125 -28.90625 C 22.679688 -30.15625 21.46875 -31.070312 20.0625 -31.65625 C 18.664062 -32.25 17.023438 -32.546875 15.140625 -32.546875 C 12.660156 -32.546875 10.789062 -32.0625 9.53125 -31.09375 C 8.269531 -30.132812 7.640625 -28.8125 7.640625 -27.125 C 7.640625 -25.507812 8.101562 -24.222656 9.03125 -23.265625 C 9.957031 -22.316406 11.519531 -21.582031 13.71875 -21.0625 L 18 -20.046875 C 21.457031 -19.234375 23.960938 -17.984375 25.515625 -16.296875 C 27.078125 -14.609375 27.859375 -12.457031 27.859375 -9.84375 C 27.859375 -7.820312 27.40625 -6.035156 26.5 -4.484375 C 25.59375 -2.929688 24.21875 -1.707031 22.375 -0.8125 C 20.539062 0.0703125 18.28125 0.515625 15.59375 0.515625 Z M 15.59375 0.515625 "/></g></g></g><g fill="#ffffff" fill-opacity="1"><g transform="translate(263.10172, 611.754589)"><g><path d="M 15.453125 0.515625 C 12.910156 0.515625 10.695312 -0.0195312 8.8125 -1.09375 C 6.9375 -2.164062 5.488281 -3.75 4.46875 -5.84375 C 3.457031 -7.9375 2.953125 -10.472656 2.953125 -13.453125 C 2.953125 -16.429688 3.457031 -18.96875 4.46875 -21.0625 C 5.488281 -23.164062 6.9375 -24.753906 8.8125 -25.828125 C 10.695312 -26.898438 12.910156 -27.4375 15.453125 -27.4375 C 17.992188 -27.4375 20.203125 -26.898438 22.078125 -25.828125 C 23.960938 -24.753906 25.410156 -23.164062 26.421875 -21.0625 C 27.441406 -18.96875 27.953125 -16.429688 27.953125 -13.453125 C 27.953125 -10.472656 27.441406 -7.9375 26.421875 -5.84375 C 25.410156 -3.75 23.960938 -2.164062 22.078125 -1.09375 C 20.203125 -0.0195312 17.992188 0.515625 15.453125 0.515625 Z M 15.453125 -3.046875 C 18.140625 -3.046875 20.191406 -3.890625 21.609375 -5.578125 C 23.035156 -7.273438 23.75 -9.898438 23.75 -13.453125 C 23.75 -17.015625 23.035156 -19.640625 21.609375 -21.328125 C 20.191406 -23.023438 18.140625 -23.875 15.453125 -23.875 C 12.765625 -23.875 10.703125 -23.023438 9.265625 -21.328125 C 7.835938 -19.628906 7.125 -17.003906 7.125 -13.453125 C 7.125 -9.898438 7.835938 -7.273438 9.265625 -5.578125 C 10.703125 -3.890625 12.765625 -3.046875 15.453125 -3.046875 Z M 15.453125 -3.046875 "/></g></g></g><g fill="#ffffff" fill-opacity="1"><g transform="translate(294.005092, 611.754589)"><g><path d="M 6 0 L 6 -23.6875 L 1.3125 -23.6875 L 1.3125 -26.953125 L 6 -26.953125 C 5.707031 -28.128906 5.5625 -29.242188 5.5625 -30.296875 C 5.5625 -32.035156 5.929688 -33.503906 6.671875 -34.703125 C 7.410156 -35.898438 8.441406 -36.789062 9.765625 -37.375 C 11.085938 -37.957031 12.609375 -38.25 14.328125 -38.25 C 17.015625 -38.25 19.078125 -37.675781 20.515625 -36.53125 L 18.96875 -33.71875 L 18.453125 -33.625 C 17.398438 -34.46875 16.023438 -34.890625 14.328125 -34.890625 C 12.753906 -34.890625 11.5625 -34.484375 10.75 -33.671875 C 9.945312 -32.859375 9.546875 -31.703125 9.546875 -30.203125 C 9.546875 -29.273438 9.691406 -28.191406 9.984375 -26.953125 L 18.5625 -26.953125 L 18.5625 -23.6875 L 9.984375 -23.6875 L 9.984375 0 Z M 6 0 "/></g></g></g><g fill="#ffffff" fill-opacity="1"><g transform="translate(313.191546, 611.754589)"><g><path d="M 18.21875 -4.265625 L 19.484375 -1.421875 C 18.847656 -0.785156 18.015625 -0.304688 16.984375 0.015625 C 15.953125 0.347656 14.832031 0.515625 13.625 0.515625 C 8.476562 0.515625 5.90625 -2.085938 5.90625 -7.296875 L 5.90625 -23.6875 L 1.21875 -23.6875 L 1.21875 -26.953125 L 5.90625 -26.953125 L 5.90625 -32.640625 L 9.890625 -33.296875 L 9.890625 -26.953125 L 18.5625 -26.953125 L 18.5625 -23.6875 L 9.890625 -23.6875 L 9.890625 -7.6875 C 9.890625 -4.59375 11.234375 -3.046875 13.921875 -3.046875 C 15.378906 -3.046875 16.640625 -3.453125 17.703125 -4.265625 Z M 18.21875 -4.265625 "/></g></g></g><g fill="#ffffff" fill-opacity="1"><g transform="translate(333.696153, 611.754589)"><g><path d="M 13.359375 0 L 8.328125 0 L 1.734375 -26.921875 L 5.671875 -26.921875 L 10.765625 -4.640625 L 11.28125 -4.640625 L 17.546875 -26.921875 L 21.734375 -26.921875 L 28.203125 -4.640625 L 28.71875 -4.640625 L 33.71875 -26.921875 L 37.53125 -26.921875 L 31 0 L 25.953125 0 L 19.796875 -20.90625 L 19.28125 -20.90625 Z M 13.359375 0 "/></g></g></g><g fill="#ffffff" fill-opacity="1"><g transform="translate(372.947829, 611.754589)"><g><path d="M 11.109375 0.515625 C 8.453125 0.515625 6.378906 -0.175781 4.890625 -1.5625 C 3.398438 -2.945312 2.65625 -4.925781 2.65625 -7.5 C 2.65625 -9.09375 2.984375 -10.4375 3.640625 -11.53125 C 4.304688 -12.632812 5.332031 -13.53125 6.71875 -14.21875 C 8.101562 -14.914062 9.910156 -15.453125 12.140625 -15.828125 C 14.085938 -16.148438 15.566406 -16.515625 16.578125 -16.921875 C 17.597656 -17.328125 18.285156 -17.78125 18.640625 -18.28125 C 18.992188 -18.789062 19.171875 -19.425781 19.171875 -20.1875 C 19.171875 -21.40625 18.75 -22.335938 17.90625 -22.984375 C 17.070312 -23.640625 15.726562 -23.96875 13.875 -23.96875 C 12.125 -23.96875 10.625 -23.628906 9.375 -22.953125 C 8.132812 -22.285156 6.992188 -21.285156 5.953125 -19.953125 L 5.46875 -19.953125 L 3.515625 -22.703125 C 4.648438 -24.148438 6.097656 -25.300781 7.859375 -26.15625 C 9.617188 -27.007812 11.625 -27.4375 13.875 -27.4375 C 17.039062 -27.4375 19.375 -26.738281 20.875 -25.34375 C 22.382812 -23.957031 23.140625 -22.035156 23.140625 -19.578125 L 23.140625 -5.296875 C 23.140625 -3.796875 23.773438 -3.046875 25.046875 -3.046875 C 25.472656 -3.046875 25.878906 -3.117188 26.265625 -3.265625 L 26.609375 -3.171875 L 27.078125 -0.421875 C 26.785156 -0.222656 26.398438 -0.0703125 25.921875 0.03125 C 25.441406 0.144531 24.945312 0.203125 24.4375 0.203125 C 22.957031 0.203125 21.835938 -0.125 21.078125 -0.78125 C 20.328125 -1.4375 19.84375 -2.394531 19.625 -3.65625 L 19.109375 -3.71875 C 18.347656 -2.300781 17.316406 -1.238281 16.015625 -0.53125 C 14.710938 0.164062 13.078125 0.515625 11.109375 0.515625 Z M 11.984375 -2.65625 C 13.484375 -2.65625 14.78125 -3 15.875 -3.6875 C 16.976562 -4.382812 17.820312 -5.359375 18.40625 -6.609375 C 18.988281 -7.867188 19.28125 -9.320312 19.28125 -10.96875 L 19.28125 -14.375 L 18.828125 -14.484375 C 18.222656 -14.054688 17.488281 -13.695312 16.625 -13.40625 C 15.757812 -13.125 14.554688 -12.867188 13.015625 -12.640625 C 11.453125 -12.429688 10.207031 -12.109375 9.28125 -11.671875 C 8.363281 -11.234375 7.707031 -10.675781 7.3125 -10 C 6.925781 -9.320312 6.734375 -8.488281 6.734375 -7.5 C 6.734375 -5.914062 7.195312 -4.710938 8.125 -3.890625 C 9.050781 -3.066406 10.335938 -2.65625 11.984375 -2.65625 Z M 11.984375 -2.65625 "/></g></g></g><g fill="#ffffff" fill-opacity="1"><g transform="translate(400.799909, 611.754589)"><g><path d="M 4.6875 0 L 4.6875 -26.921875 L 8.46875 -26.921875 L 8.46875 -22.703125 L 8.984375 -22.578125 C 10.234375 -25.640625 12.59375 -27.171875 16.0625 -27.171875 C 17.90625 -27.171875 19.28125 -26.835938 20.1875 -26.171875 L 19.171875 -22.796875 L 18.671875 -22.703125 C 17.660156 -23.210938 16.554688 -23.46875 15.359375 -23.46875 C 13.210938 -23.46875 11.5625 -22.660156 10.40625 -21.046875 C 9.25 -19.429688 8.671875 -16.816406 8.671875 -13.203125 L 8.671875 0 Z M 4.6875 0 "/></g></g></g><g fill="#ffffff" fill-opacity="1"><g transform="translate(421.59744, 611.754589)"><g><path d="M 25.65625 -12.546875 L 7.15625 -12.546875 C 7.269531 -9.273438 8.050781 -6.875 9.5 -5.34375 C 10.957031 -3.8125 12.957031 -3.046875 15.5 -3.046875 C 17.425781 -3.046875 18.972656 -3.390625 20.140625 -4.078125 C 21.316406 -4.765625 22.238281 -5.835938 22.90625 -7.296875 L 23.40625 -7.296875 L 26 -5.765625 C 25.21875 -3.804688 23.96875 -2.269531 22.25 -1.15625 C 20.53125 -0.0390625 18.28125 0.515625 15.5 0.515625 C 12.894531 0.515625 10.65625 0.00390625 8.78125 -1.015625 C 6.914062 -2.046875 5.476562 -3.601562 4.46875 -5.6875 C 3.457031 -7.769531 2.953125 -10.359375 2.953125 -13.453125 C 2.953125 -16.515625 3.484375 -19.09375 4.546875 -21.1875 C 5.617188 -23.289062 7.078125 -24.859375 8.921875 -25.890625 C 10.765625 -26.921875 12.878906 -27.4375 15.265625 -27.4375 C 18.710938 -27.4375 21.40625 -26.460938 23.34375 -24.515625 C 25.28125 -22.578125 26.253906 -19.695312 26.265625 -15.875 C 26.265625 -14.375 26.234375 -13.363281 26.171875 -12.84375 Z M 22.34375 -15.875 C 22.269531 -18.738281 21.628906 -20.820312 20.421875 -22.125 C 19.222656 -23.425781 17.503906 -24.078125 15.265625 -24.078125 C 12.898438 -24.078125 11.046875 -23.421875 9.703125 -22.109375 C 8.359375 -20.796875 7.539062 -18.71875 7.25 -15.875 Z M 22.34375 -15.875 "/></g></g></g><g fill="#ffffff" fill-opacity="1"><g transform="translate(450.30389, 611.754589)"><g/></g></g><g fill="#ffffff" fill-opacity="1"><g transform="translate(462.557811, 611.754589)"><g><path d="M 9.59375 -16.828125 L 9.59375 -3.46875 L 27.78125 -3.46875 L 27.78125 0 L 5.390625 0 L 5.390625 -35.6875 L 27.390625 -35.6875 L 27.390625 -32.234375 L 9.59375 -32.234375 L 9.59375 -20.28125 L 25.296875 -20.28125 L 25.296875 -16.828125 Z M 9.59375 -16.828125 "/></g></g></g><g fill="#ffffff" fill-opacity="1"><g transform="translate(492.704477, 611.754589)"><g><path d="M 4.6875 0 L 4.6875 -26.921875 L 8.46875 -26.921875 L 8.46875 -22.703125 L 8.984375 -22.578125 C 9.878906 -24.160156 11.019531 -25.363281 12.40625 -26.1875 C 13.800781 -27.019531 15.5 -27.4375 17.5 -27.4375 C 20.738281 -27.4375 23.085938 -26.609375 24.546875 -24.953125 C 26.003906 -23.304688 26.734375 -20.765625 26.734375 -17.328125 L 26.734375 0 L 22.75 0 L 22.75 -17.234375 C 22.75 -18.859375 22.539062 -20.160156 22.125 -21.140625 C 21.71875 -22.128906 21.078125 -22.847656 20.203125 -23.296875 C 19.328125 -23.742188 18.179688 -23.96875 16.765625 -23.96875 C 14.347656 -23.96875 12.394531 -23.164062 10.90625 -21.5625 C 9.414062 -19.96875 8.671875 -17.382812 8.671875 -13.8125 L 8.671875 0 Z M 4.6875 0 "/></g></g></g><g fill="#ffffff" fill-opacity="1"><g transform="translate(523.705513, 611.754589)"><g><path d="M 13.875 11.421875 C 9.625 11.421875 6.519531 10.710938 4.5625 9.296875 C 2.613281 7.878906 1.640625 6 1.640625 3.65625 C 1.640625 2.144531 2.09375 0.941406 3 0.046875 C 3.914062 -0.847656 5.242188 -1.488281 6.984375 -1.875 L 6.984375 -2.390625 C 6.148438 -2.859375 5.523438 -3.410156 5.109375 -4.046875 C 4.703125 -4.679688 4.5 -5.441406 4.5 -6.328125 C 4.5 -7.367188 4.828125 -8.210938 5.484375 -8.859375 C 6.140625 -9.515625 7.117188 -10.015625 8.421875 -10.359375 L 8.421875 -10.859375 C 5.492188 -12.410156 4.03125 -14.925781 4.03125 -18.40625 C 4.03125 -20.164062 4.425781 -21.726562 5.21875 -23.09375 C 6.019531 -24.457031 7.160156 -25.519531 8.640625 -26.28125 C 10.117188 -27.050781 11.84375 -27.4375 13.8125 -27.4375 C 16.082031 -27.4375 17.972656 -26.941406 19.484375 -25.953125 C 20.054688 -26.585938 20.484375 -27.265625 20.765625 -27.984375 C 21.046875 -28.710938 21.226562 -29.53125 21.3125 -30.4375 L 21.828125 -30.765625 L 25.09375 -29.984375 C 24.9375 -28.617188 24.523438 -27.460938 23.859375 -26.515625 C 23.203125 -25.566406 22.269531 -24.785156 21.0625 -24.171875 L 21.0625 -23.65625 C 21.925781 -22.96875 22.566406 -22.164062 22.984375 -21.25 C 23.398438 -20.332031 23.609375 -19.265625 23.609375 -18.046875 C 23.609375 -16.347656 23.203125 -14.820312 22.390625 -13.46875 C 21.578125 -12.125 20.425781 -11.0625 18.9375 -10.28125 C 17.457031 -9.507812 15.75 -9.125 13.8125 -9.125 C 13.59375 -9.125 13.1875 -9.144531 12.59375 -9.1875 C 11.945312 -9.21875 11.46875 -9.234375 11.15625 -9.234375 C 10.3125 -9.234375 9.632812 -9.007812 9.125 -8.5625 C 8.625 -8.125 8.375 -7.566406 8.375 -6.890625 C 8.375 -6.035156 8.644531 -5.410156 9.1875 -5.015625 C 9.738281 -4.617188 10.640625 -4.394531 11.890625 -4.34375 L 18.265625 -4.125 C 21.015625 -4.03125 23.050781 -3.390625 24.375 -2.203125 C 25.707031 -1.023438 26.375 0.644531 26.375 2.8125 C 26.375 4.414062 25.941406 5.863281 25.078125 7.15625 C 24.210938 8.457031 22.84375 9.492188 20.96875 10.265625 C 19.101562 11.035156 16.738281 11.421875 13.875 11.421875 Z M 13.8125 -12.546875 C 15.71875 -12.546875 17.191406 -13.039062 18.234375 -14.03125 C 19.273438 -15.03125 19.796875 -16.425781 19.796875 -18.21875 C 19.796875 -20.070312 19.28125 -21.503906 18.25 -22.515625 C 17.21875 -23.523438 15.738281 -24.03125 13.8125 -24.03125 C 11.894531 -24.03125 10.429688 -23.523438 9.421875 -22.515625 C 8.410156 -21.515625 7.90625 -20.082031 7.90625 -18.21875 C 7.90625 -16.40625 8.410156 -15.003906 9.421875 -14.015625 C 10.429688 -13.035156 11.894531 -12.546875 13.8125 -12.546875 Z M 13.875 8.015625 C 15.851562 8.015625 17.472656 7.789062 18.734375 7.34375 C 19.992188 6.90625 20.898438 6.320312 21.453125 5.59375 C 22.015625 4.875 22.296875 4.066406 22.296875 3.171875 C 22.296875 2.378906 22.144531 1.738281 21.84375 1.25 C 21.539062 0.757812 21.054688 0.390625 20.390625 0.140625 C 19.722656 -0.0976562 18.8125 -0.25 17.65625 -0.3125 L 11.625 -0.609375 L 10.765625 -0.609375 C 7.398438 -0.554688 5.71875 0.753906 5.71875 3.328125 C 5.71875 6.453125 8.4375 8.015625 13.875 8.015625 Z M 13.875 8.015625 "/></g></g></g><g fill="#ffffff" fill-opacity="1"><g transform="translate(551.289069, 611.754589)"><g><path d="M 6.6875 -32.125 C 5.84375 -32.125 5.15625 -32.390625 4.625 -32.921875 C 4.09375 -33.453125 3.828125 -34.125 3.828125 -34.9375 C 3.828125 -35.75 4.09375 -36.421875 4.625 -36.953125 C 5.15625 -37.484375 5.84375 -37.75 6.6875 -37.75 C 7.53125 -37.75 8.21875 -37.484375 8.75 -36.953125 C 9.28125 -36.421875 9.546875 -35.75 9.546875 -34.9375 C 9.546875 -34.125 9.28125 -33.453125 8.75 -32.921875 C 8.21875 -32.390625 7.53125 -32.125 6.6875 -32.125 Z M 4.6875 0 L 4.6875 -26.921875 L 8.671875 -26.921875 L 8.671875 0 Z M 4.6875 0 "/></g></g></g><g fill="#ffffff" fill-opacity="1"><g transform="translate(564.641485, 611.754589)"><g><path d="M 4.6875 0 L 4.6875 -26.921875 L 8.46875 -26.921875 L 8.46875 -22.703125 L 8.984375 -22.578125 C 9.878906 -24.160156 11.019531 -25.363281 12.40625 -26.1875 C 13.800781 -27.019531 15.5 -27.4375 17.5 -27.4375 C 20.738281 -27.4375 23.085938 -26.609375 24.546875 -24.953125 C 26.003906 -23.304688 26.734375 -20.765625 26.734375 -17.328125 L 26.734375 0 L 22.75 0 L 22.75 -17.234375 C 22.75 -18.859375 22.539062 -20.160156 22.125 -21.140625 C 21.71875 -22.128906 21.078125 -22.847656 20.203125 -23.296875 C 19.328125 -23.742188 18.179688 -23.96875 16.765625 -23.96875 C 14.347656 -23.96875 12.394531 -23.164062 10.90625 -21.5625 C 9.414062 -19.96875 8.671875 -17.382812 8.671875 -13.8125 L 8.671875 0 Z M 4.6875 0 "/></g></g></g><g fill="#ffffff" fill-opacity="1"><g transform="translate(595.642522, 611.754589)"><g><path d="M 25.65625 -12.546875 L 7.15625 -12.546875 C 7.269531 -9.273438 8.050781 -6.875 9.5 -5.34375 C 10.957031 -3.8125 12.957031 -3.046875 15.5 -3.046875 C 17.425781 -3.046875 18.972656 -3.390625 20.140625 -4.078125 C 21.316406 -4.765625 22.238281 -5.835938 22.90625 -7.296875 L 23.40625 -7.296875 L 26 -5.765625 C 25.21875 -3.804688 23.96875 -2.269531 22.25 -1.15625 C 20.53125 -0.0390625 18.28125 0.515625 15.5 0.515625 C 12.894531 0.515625 10.65625 0.00390625 8.78125 -1.015625 C 6.914062 -2.046875 5.476562 -3.601562 4.46875 -5.6875 C 3.457031 -7.769531 2.953125 -10.359375 2.953125 -13.453125 C 2.953125 -16.515625 3.484375 -19.09375 4.546875 -21.1875 C 5.617188 -23.289062 7.078125 -24.859375 8.921875 -25.890625 C 10.765625 -26.921875 12.878906 -27.4375 15.265625 -27.4375 C 18.710938 -27.4375 21.40625 -26.460938 23.34375 -24.515625 C 25.28125 -22.578125 26.253906 -19.695312 26.265625 -15.875 C 26.265625 -14.375 26.234375 -13.363281 26.171875 -12.84375 Z M 22.34375 -15.875 C 22.269531 -18.738281 21.628906 -20.820312 20.421875 -22.125 C 19.222656 -23.425781 17.503906 -24.078125 15.265625 -24.078125 C 12.898438 -24.078125 11.046875 -23.421875 9.703125 -22.109375 C 8.359375 -20.796875 7.539062 -18.71875 7.25 -15.875 Z M 22.34375 -15.875 "/></g></g></g><g fill="#ffffff" fill-opacity="1"><g transform="translate(624.348972, 611.754589)"><g><path d="M 25.65625 -12.546875 L 7.15625 -12.546875 C 7.269531 -9.273438 8.050781 -6.875 9.5 -5.34375 C 10.957031 -3.8125 12.957031 -3.046875 15.5 -3.046875 C 17.425781 -3.046875 18.972656 -3.390625 20.140625 -4.078125 C 21.316406 -4.765625 22.238281 -5.835938 22.90625 -7.296875 L 23.40625 -7.296875 L 26 -5.765625 C 25.21875 -3.804688 23.96875 -2.269531 22.25 -1.15625 C 20.53125 -0.0390625 18.28125 0.515625 15.5 0.515625 C 12.894531 0.515625 10.65625 0.00390625 8.78125 -1.015625 C 6.914062 -2.046875 5.476562 -3.601562 4.46875 -5.6875 C 3.457031 -7.769531 2.953125 -10.359375 2.953125 -13.453125 C 2.953125 -16.515625 3.484375 -19.09375 4.546875 -21.1875 C 5.617188 -23.289062 7.078125 -24.859375 8.921875 -25.890625 C 10.765625 -26.921875 12.878906 -27.4375 15.265625 -27.4375 C 18.710938 -27.4375 21.40625 -26.460938 23.34375 -24.515625 C 25.28125 -22.578125 26.253906 -19.695312 26.265625 -15.875 C 26.265625 -14.375 26.234375 -13.363281 26.171875 -12.84375 Z M 22.34375 -15.875 C 22.269531 -18.738281 21.628906 -20.820312 20.421875 -22.125 C 19.222656 -23.425781 17.503906 -24.078125 15.265625 -24.078125 C 12.898438 -24.078125 11.046875 -23.421875 9.703125 -22.109375 C 8.359375 -20.796875 7.539062 -18.71875 7.25 -15.875 Z M 22.34375 -15.875 "/></g></g></g><g fill="#ffffff" fill-opacity="1"><g transform="translate(653.055422, 611.754589)"><g><path d="M 4.6875 0 L 4.6875 -26.921875 L 8.46875 -26.921875 L 8.46875 -22.703125 L 8.984375 -22.578125 C 10.234375 -25.640625 12.59375 -27.171875 16.0625 -27.171875 C 17.90625 -27.171875 19.28125 -26.835938 20.1875 -26.171875 L 19.171875 -22.796875 L 18.671875 -22.703125 C 17.660156 -23.210938 16.554688 -23.46875 15.359375 -23.46875 C 13.210938 -23.46875 11.5625 -22.660156 10.40625 -21.046875 C 9.25 -19.429688 8.671875 -16.816406 8.671875 -13.203125 L 8.671875 0 Z M 4.6875 0 "/></g></g></g><g fill="#ffffff" fill-opacity="1"><g transform="translate(673.852953, 611.754589)"><g><path d="M 6.6875 -32.125 C 5.84375 -32.125 5.15625 -32.390625 4.625 -32.921875 C 4.09375 -33.453125 3.828125 -34.125 3.828125 -34.9375 C 3.828125 -35.75 4.09375 -36.421875 4.625 -36.953125 C 5.15625 -37.484375 5.84375 -37.75 6.6875 -37.75 C 7.53125 -37.75 8.21875 -37.484375 8.75 -36.953125 C 9.28125 -36.421875 9.546875 -35.75 9.546875 -34.9375 C 9.546875 -34.125 9.28125 -33.453125 8.75 -32.921875 C 8.21875 -32.390625 7.53125 -32.125 6.6875 -32.125 Z M 4.6875 0 L 4.6875 -26.921875 L 8.671875 -26.921875 L 8.671875 0 Z M 4.6875 0 "/></g></g></g><g fill="#ffffff" fill-opacity="1"><g transform="translate(687.205369, 611.754589)"><g><path d="M 4.6875 0 L 4.6875 -26.921875 L 8.46875 -26.921875 L 8.46875 -22.703125 L 8.984375 -22.578125 C 9.878906 -24.160156 11.019531 -25.363281 12.40625 -26.1875 C 13.800781 -27.019531 15.5 -27.4375 17.5 -27.4375 C 20.738281 -27.4375 23.085938 -26.609375 24.546875 -24.953125 C 26.003906 -23.304688 26.734375 -20.765625 26.734375 -17.328125 L 26.734375 0 L 22.75 0 L 22.75 -17.234375 C 22.75 -18.859375 22.539062 -20.160156 22.125 -21.140625 C 21.71875 -22.128906 21.078125 -22.847656 20.203125 -23.296875 C 19.328125 -23.742188 18.179688 -23.96875 16.765625 -23.96875 C 14.347656 -23.96875 12.394531 -23.164062 10.90625 -21.5625 C 9.414062 -19.96875 8.671875 -17.382812 8.671875 -13.8125 L 8.671875 0 Z M 4.6875 0 "/></g></g></g><g fill="#ffffff" fill-opacity="1"><g transform="translate(718.20636, 611.754589)"><g><path d="M 13.875 11.421875 C 9.625 11.421875 6.519531 10.710938 4.5625 9.296875 C 2.613281 7.878906 1.640625 6 1.640625 3.65625 C 1.640625 2.144531 2.09375 0.941406 3 0.046875 C 3.914062 -0.847656 5.242188 -1.488281 6.984375 -1.875 L 6.984375 -2.390625 C 6.148438 -2.859375 5.523438 -3.410156 5.109375 -4.046875 C 4.703125 -4.679688 4.5 -5.441406 4.5 -6.328125 C 4.5 -7.367188 4.828125 -8.210938 5.484375 -8.859375 C 6.140625 -9.515625 7.117188 -10.015625 8.421875 -10.359375 L 8.421875 -10.859375 C 5.492188 -12.410156 4.03125 -14.925781 4.03125 -18.40625 C 4.03125 -20.164062 4.425781 -21.726562 5.21875 -23.09375 C 6.019531 -24.457031 7.160156 -25.519531 8.640625 -26.28125 C 10.117188 -27.050781 11.84375 -27.4375 13.8125 -27.4375 C 16.082031 -27.4375 17.972656 -26.941406 19.484375 -25.953125 C 20.054688 -26.585938 20.484375 -27.265625 20.765625 -27.984375 C 21.046875 -28.710938 21.226562 -29.53125 21.3125 -30.4375 L 21.828125 -30.765625 L 25.09375 -29.984375 C 24.9375 -28.617188 24.523438 -27.460938 23.859375 -26.515625 C 23.203125 -25.566406 22.269531 -24.785156 21.0625 -24.171875 L 21.0625 -23.65625 C 21.925781 -22.96875 22.566406 -22.164062 22.984375 -21.25 C 23.398438 -20.332031 23.609375 -19.265625 23.609375 -18.046875 C 23.609375 -16.347656 23.203125 -14.820312 22.390625 -13.46875 C 21.578125 -12.125 20.425781 -11.0625 18.9375 -10.28125 C 17.457031 -9.507812 15.75 -9.125 13.8125 -9.125 C 13.59375 -9.125 13.1875 -9.144531 12.59375 -9.1875 C 11.945312 -9.21875 11.46875 -9.234375 11.15625 -9.234375 C 10.3125 -9.234375 9.632812 -9.007812 9.125 -8.5625 C 8.625 -8.125 8.375 -7.566406 8.375 -6.890625 C 8.375 -6.035156 8.644531 -5.410156 9.1875 -5.015625 C 9.738281 -4.617188 10.640625 -4.394531 11.890625 -4.34375 L 18.265625 -4.125 C 21.015625 -4.03125 23.050781 -3.390625 24.375 -2.203125 C 25.707031 -1.023438 26.375 0.644531 26.375 2.8125 C 26.375 4.414062 25.941406 5.863281 25.078125 7.15625 C 24.210938 8.457031 22.84375 9.492188 20.96875 10.265625 C 19.101562 11.035156 16.738281 11.421875 13.875 11.421875 Z M 13.8125 -12.546875 C 15.71875 -12.546875 17.191406 -13.039062 18.234375 -14.03125 C 19.273438 -15.03125 19.796875 -16.425781 19.796875 -18.21875 C 19.796875 -20.070312 19.28125 -21.503906 18.25 -22.515625 C 17.21875 -23.523438 15.738281 -24.03125 13.8125 -24.03125 C 11.894531 -24.03125 10.429688 -23.523438 9.421875 -22.515625 C 8.410156 -21.515625 7.90625 -20.082031 7.90625 -18.21875 C 7.90625 -16.40625 8.410156 -15.003906 9.421875 -14.015625 C 10.429688 -13.035156 11.894531 -12.546875 13.8125 -12.546875 Z M 13.875 8.015625 C 15.851562 8.015625 17.472656 7.789062 18.734375 7.34375 C 19.992188 6.90625 20.898438 6.320312 21.453125 5.59375 C 22.015625 4.875 22.296875 4.066406 22.296875 3.171875 C 22.296875 2.378906 22.144531 1.738281 21.84375 1.25 C 21.539062 0.757812 21.054688 0.390625 20.390625 0.140625 C 19.722656 -0.0976562 18.8125 -0.25 17.65625 -0.3125 L 11.625 -0.609375 L 10.765625 -0.609375 C 7.398438 -0.554688 5.71875 0.753906 5.71875 3.328125 C 5.71875 6.453125 8.4375 8.015625 13.875 8.015625 Z M 13.875 8.015625 "/></g></g></g><g fill="#ffffff" fill-opacity="1"><g transform="translate(143.789059, 681.504586)"><g><path d="M 15.59375 0.515625 C 13.351562 0.515625 11.34375 0.210938 9.5625 -0.390625 C 7.78125 -1.003906 6.296875 -1.804688 5.109375 -2.796875 C 3.921875 -3.796875 3.03125 -4.890625 2.4375 -6.078125 L 4.734375 -8.859375 L 5.34375 -8.859375 C 7.5625 -5.128906 10.976562 -3.265625 15.59375 -3.265625 C 18.28125 -3.265625 20.28125 -3.828125 21.59375 -4.953125 C 22.90625 -6.078125 23.5625 -7.640625 23.5625 -9.640625 C 23.5625 -10.816406 23.34375 -11.8125 22.90625 -12.625 C 22.476562 -13.4375 21.765625 -14.128906 20.765625 -14.703125 C 19.773438 -15.285156 18.425781 -15.789062 16.71875 -16.21875 L 12.546875 -17.234375 C 9.441406 -17.984375 7.148438 -19.175781 5.671875 -20.8125 C 4.203125 -22.445312 3.46875 -24.519531 3.46875 -27.03125 C 3.46875 -28.800781 3.921875 -30.378906 4.828125 -31.765625 C 5.742188 -33.160156 7.078125 -34.25 8.828125 -35.03125 C 10.585938 -35.8125 12.691406 -36.203125 15.140625 -36.203125 C 17.828125 -36.203125 20.09375 -35.820312 21.9375 -35.0625 C 23.78125 -34.3125 25.257812 -33.179688 26.375 -31.671875 L 24.3125 -28.90625 L 23.703125 -28.90625 C 22.679688 -30.15625 21.46875 -31.070312 20.0625 -31.65625 C 18.664062 -32.25 17.023438 -32.546875 15.140625 -32.546875 C 12.660156 -32.546875 10.789062 -32.0625 9.53125 -31.09375 C 8.269531 -30.132812 7.640625 -28.8125 7.640625 -27.125 C 7.640625 -25.507812 8.101562 -24.222656 9.03125 -23.265625 C 9.957031 -22.316406 11.519531 -21.582031 13.71875 -21.0625 L 18 -20.046875 C 21.457031 -19.234375 23.960938 -17.984375 25.515625 -16.296875 C 27.078125 -14.609375 27.859375 -12.457031 27.859375 -9.84375 C 27.859375 -7.820312 27.40625 -6.035156 26.5 -4.484375 C 25.59375 -2.929688 24.21875 -1.707031 22.375 -0.8125 C 20.539062 0.0703125 18.28125 0.515625 15.59375 0.515625 Z M 15.59375 0.515625 "/></g></g></g><g fill="#ffffff" fill-opacity="1"><g transform="translate(174.375097, 681.504586)"><g><path d="M 18.21875 -4.265625 L 19.484375 -1.421875 C 18.847656 -0.785156 18.015625 -0.304688 16.984375 0.015625 C 15.953125 0.347656 14.832031 0.515625 13.625 0.515625 C 8.476562 0.515625 5.90625 -2.085938 5.90625 -7.296875 L 5.90625 -23.6875 L 1.21875 -23.6875 L 1.21875 -26.953125 L 5.90625 -26.953125 L 5.90625 -32.640625 L 9.890625 -33.296875 L 9.890625 -26.953125 L 18.5625 -26.953125 L 18.5625 -23.6875 L 9.890625 -23.6875 L 9.890625 -7.6875 C 9.890625 -4.59375 11.234375 -3.046875 13.921875 -3.046875 C 15.378906 -3.046875 16.640625 -3.453125 17.703125 -4.265625 Z M 18.21875 -4.265625 "/></g></g></g><g fill="#ffffff" fill-opacity="1"><g transform="translate(194.879705, 681.504586)"><g><path d="M 13.3125 0.515625 C 10.257812 0.515625 7.988281 -0.289062 6.5 -1.90625 C 5.007812 -3.519531 4.265625 -5.878906 4.265625 -8.984375 L 4.265625 -26.921875 L 8.25 -26.921875 L 8.25 -9.078125 C 8.25 -4.992188 10.171875 -2.953125 14.015625 -2.953125 C 16.453125 -2.953125 18.378906 -3.75 19.796875 -5.34375 C 21.210938 -6.9375 21.921875 -9.523438 21.921875 -13.109375 L 21.921875 -26.921875 L 25.90625 -26.921875 L 25.90625 0 L 22.140625 0 L 22.140625 -4.21875 L 21.625 -4.34375 C 20.695312 -2.695312 19.585938 -1.472656 18.296875 -0.671875 C 17.003906 0.117188 15.34375 0.515625 13.3125 0.515625 Z M 13.3125 0.515625 "/></g></g></g><g fill="#ffffff" fill-opacity="1"><g transform="translate(225.465744, 681.504586)"><g><path d="M 13.96875 0.515625 C 11.800781 0.515625 9.890625 0 8.234375 -1.03125 C 6.585938 -2.070312 5.296875 -3.632812 4.359375 -5.71875 C 3.421875 -7.800781 2.953125 -10.378906 2.953125 -13.453125 C 2.953125 -16.523438 3.441406 -19.109375 4.421875 -21.203125 C 5.398438 -23.296875 6.742188 -24.859375 8.453125 -25.890625 C 10.171875 -26.921875 12.160156 -27.4375 14.421875 -27.4375 C 16.210938 -27.4375 17.820312 -27.097656 19.25 -26.421875 C 20.6875 -25.753906 21.921875 -24.644531 22.953125 -23.09375 L 23.46875 -23.1875 L 23.46875 -37.75 L 27.4375 -37.75 L 27.4375 0 L 23.46875 0 L 23.46875 -3.9375 L 22.953125 -4.03125 C 22.066406 -2.695312 20.867188 -1.601562 19.359375 -0.75 C 17.859375 0.09375 16.0625 0.515625 13.96875 0.515625 Z M 15.203125 -3.046875 C 17.710938 -3.046875 19.71875 -3.90625 21.21875 -5.625 C 22.71875 -7.34375 23.46875 -9.953125 23.46875 -13.453125 C 23.46875 -16.960938 22.71875 -19.578125 21.21875 -21.296875 C 19.71875 -23.015625 17.710938 -23.875 15.203125 -23.875 C 12.617188 -23.875 10.625 -23.035156 9.21875 -21.359375 C 7.820312 -19.679688 7.125 -17.046875 7.125 -13.453125 C 7.125 -6.515625 9.816406 -3.046875 15.203125 -3.046875 Z M 15.203125 -3.046875 "/></g></g></g><g fill="#ffffff" fill-opacity="1"><g transform="translate(257.614038, 681.504586)"><g><path d="M 25.65625 -12.546875 L 7.15625 -12.546875 C 7.269531 -9.273438 8.050781 -6.875 9.5 -5.34375 C 10.957031 -3.8125 12.957031 -3.046875 15.5 -3.046875 C 17.425781 -3.046875 18.972656 -3.390625 20.140625 -4.078125 C 21.316406 -4.765625 22.238281 -5.835938 22.90625 -7.296875 L 23.40625 -7.296875 L 26 -5.765625 C 25.21875 -3.804688 23.96875 -2.269531 22.25 -1.15625 C 20.53125 -0.0390625 18.28125 0.515625 15.5 0.515625 C 12.894531 0.515625 10.65625 0.00390625 8.78125 -1.015625 C 6.914062 -2.046875 5.476562 -3.601562 4.46875 -5.6875 C 3.457031 -7.769531 2.953125 -10.359375 2.953125 -13.453125 C 2.953125 -16.515625 3.484375 -19.09375 4.546875 -21.1875 C 5.617188 -23.289062 7.078125 -24.859375 8.921875 -25.890625 C 10.765625 -26.921875 12.878906 -27.4375 15.265625 -27.4375 C 18.710938 -27.4375 21.40625 -26.460938 23.34375 -24.515625 C 25.28125 -22.578125 26.253906 -19.695312 26.265625 -15.875 C 26.265625 -14.375 26.234375 -13.363281 26.171875 -12.84375 Z M 22.34375 -15.875 C 22.269531 -18.738281 21.628906 -20.820312 20.421875 -22.125 C 19.222656 -23.425781 17.503906 -24.078125 15.265625 -24.078125 C 12.898438 -24.078125 11.046875 -23.421875 9.703125 -22.109375 C 8.359375 -20.796875 7.539062 -18.71875 7.25 -15.875 Z M 22.34375 -15.875 "/></g></g></g><g fill="#ffffff" fill-opacity="1"><g transform="translate(286.320489, 681.504586)"><g><path d="M 4.6875 0 L 4.6875 -26.921875 L 8.46875 -26.921875 L 8.46875 -22.703125 L 8.984375 -22.578125 C 9.878906 -24.160156 11.019531 -25.363281 12.40625 -26.1875 C 13.800781 -27.019531 15.5 -27.4375 17.5 -27.4375 C 20.738281 -27.4375 23.085938 -26.609375 24.546875 -24.953125 C 26.003906 -23.304688 26.734375 -20.765625 26.734375 -17.328125 L 26.734375 0 L 22.75 0 L 22.75 -17.234375 C 22.75 -18.859375 22.539062 -20.160156 22.125 -21.140625 C 21.71875 -22.128906 21.078125 -22.847656 20.203125 -23.296875 C 19.328125 -23.742188 18.179688 -23.96875 16.765625 -23.96875 C 14.347656 -23.96875 12.394531 -23.164062 10.90625 -21.5625 C 9.414062 -19.96875 8.671875 -17.382812 8.671875 -13.8125 L 8.671875 0 Z M 4.6875 0 "/></g></g></g><g fill="#ffffff" fill-opacity="1"><g transform="translate(317.321502, 681.504586)"><g><path d="M 18.21875 -4.265625 L 19.484375 -1.421875 C 18.847656 -0.785156 18.015625 -0.304688 16.984375 0.015625 C 15.953125 0.347656 14.832031 0.515625 13.625 0.515625 C 8.476562 0.515625 5.90625 -2.085938 5.90625 -7.296875 L 5.90625 -23.6875 L 1.21875 -23.6875 L 1.21875 -26.953125 L 5.90625 -26.953125 L 5.90625 -32.640625 L 9.890625 -33.296875 L 9.890625 -26.953125 L 18.5625 -26.953125 L 18.5625 -23.6875 L 9.890625 -23.6875 L 9.890625 -7.6875 C 9.890625 -4.59375 11.234375 -3.046875 13.921875 -3.046875 C 15.378906 -3.046875 16.640625 -3.453125 17.703125 -4.265625 Z M 18.21875 -4.265625 "/></g></g></g><g fill="#ffffff" fill-opacity="1"><g transform="translate(337.826097, 681.504586)"><g><path d="M 12.28125 0.515625 C 10.582031 0.515625 9.015625 0.289062 7.578125 -0.15625 C 6.140625 -0.601562 4.921875 -1.21875 3.921875 -2 C 2.929688 -2.78125 2.234375 -3.660156 1.828125 -4.640625 L 4.171875 -7.078125 L 4.6875 -7.078125 C 5.5625 -5.742188 6.617188 -4.738281 7.859375 -4.0625 C 9.097656 -3.382812 10.570312 -3.046875 12.28125 -3.046875 C 14.269531 -3.046875 15.78125 -3.429688 16.8125 -4.203125 C 17.84375 -4.984375 18.359375 -6.066406 18.359375 -7.453125 C 18.359375 -8.503906 18.046875 -9.375 17.421875 -10.0625 C 16.796875 -10.757812 15.78125 -11.28125 14.375 -11.625 L 9.84375 -12.75 C 7.414062 -13.332031 5.644531 -14.257812 4.53125 -15.53125 C 3.414062 -16.800781 2.859375 -18.367188 2.859375 -20.234375 C 2.859375 -21.703125 3.234375 -22.976562 3.984375 -24.0625 C 4.734375 -25.144531 5.8125 -25.976562 7.21875 -26.5625 C 8.625 -27.144531 10.296875 -27.4375 12.234375 -27.4375 C 14.703125 -27.4375 16.648438 -27.085938 18.078125 -26.390625 C 19.503906 -25.703125 20.613281 -24.742188 21.40625 -23.515625 L 19.171875 -21.3125 L 18.671875 -21.3125 C 17.816406 -22.300781 16.878906 -23.015625 15.859375 -23.453125 C 14.835938 -23.898438 13.628906 -24.125 12.234375 -24.125 C 10.460938 -24.125 9.101562 -23.804688 8.15625 -23.171875 C 7.207031 -22.535156 6.734375 -21.613281 6.734375 -20.40625 C 6.734375 -19.320312 7.066406 -18.441406 7.734375 -17.765625 C 8.398438 -17.097656 9.566406 -16.5625 11.234375 -16.15625 L 15.703125 -15.09375 C 18.046875 -14.539062 19.738281 -13.617188 20.78125 -12.328125 C 21.820312 -11.046875 22.34375 -9.4375 22.34375 -7.5 C 22.34375 -5.914062 21.96875 -4.519531 21.21875 -3.3125 C 20.46875 -2.113281 19.332031 -1.175781 17.8125 -0.5 C 16.300781 0.175781 14.457031 0.515625 12.28125 0.515625 Z M 12.28125 0.515625 "/></g></g></g><g fill="#ffffff" fill-opacity="1"><g transform="translate(362.724549, 681.504586)"><g/></g></g><g fill="#ffffff" fill-opacity="1"><g transform="translate(374.978492, 681.504586)"><g><path d="M 32.125 0 L 27.640625 0 L 24.34375 -9.796875 L 9.125 -9.796875 L 5.8125 0 L 1.421875 0 L 13.875 -35.6875 L 19.671875 -35.6875 Z M 16.4375 -31.375 L 10.296875 -13.3125 L 23.140625 -13.3125 L 17.046875 -31.375 Z M 16.4375 -31.375 "/></g></g></g><g fill="#ffffff" fill-opacity="1"><g transform="translate(408.518171, 681.504586)"><g><path d="M 12.28125 0.515625 C 10.582031 0.515625 9.015625 0.289062 7.578125 -0.15625 C 6.140625 -0.601562 4.921875 -1.21875 3.921875 -2 C 2.929688 -2.78125 2.234375 -3.660156 1.828125 -4.640625 L 4.171875 -7.078125 L 4.6875 -7.078125 C 5.5625 -5.742188 6.617188 -4.738281 7.859375 -4.0625 C 9.097656 -3.382812 10.570312 -3.046875 12.28125 -3.046875 C 14.269531 -3.046875 15.78125 -3.429688 16.8125 -4.203125 C 17.84375 -4.984375 18.359375 -6.066406 18.359375 -7.453125 C 18.359375 -8.503906 18.046875 -9.375 17.421875 -10.0625 C 16.796875 -10.757812 15.78125 -11.28125 14.375 -11.625 L 9.84375 -12.75 C 7.414062 -13.332031 5.644531 -14.257812 4.53125 -15.53125 C 3.414062 -16.800781 2.859375 -18.367188 2.859375 -20.234375 C 2.859375 -21.703125 3.234375 -22.976562 3.984375 -24.0625 C 4.734375 -25.144531 5.8125 -25.976562 7.21875 -26.5625 C 8.625 -27.144531 10.296875 -27.4375 12.234375 -27.4375 C 14.703125 -27.4375 16.648438 -27.085938 18.078125 -26.390625 C 19.503906 -25.703125 20.613281 -24.742188 21.40625 -23.515625 L 19.171875 -21.3125 L 18.671875 -21.3125 C 17.816406 -22.300781 16.878906 -23.015625 15.859375 -23.453125 C 14.835938 -23.898438 13.628906 -24.125 12.234375 -24.125 C 10.460938 -24.125 9.101562 -23.804688 8.15625 -23.171875 C 7.207031 -22.535156 6.734375 -21.613281 6.734375 -20.40625 C 6.734375 -19.320312 7.066406 -18.441406 7.734375 -17.765625 C 8.398438 -17.097656 9.566406 -16.5625 11.234375 -16.15625 L 15.703125 -15.09375 C 18.046875 -14.539062 19.738281 -13.617188 20.78125 -12.328125 C 21.820312 -11.046875 22.34375 -9.4375 22.34375 -7.5 C 22.34375 -5.914062 21.96875 -4.519531 21.21875 -3.3125 C 20.46875 -2.113281 19.332031 -1.175781 17.8125 -0.5 C 16.300781 0.175781 14.457031 0.515625 12.28125 0.515625 Z M 12.28125 0.515625 "/></g></g></g><g fill="#ffffff" fill-opacity="1"><g transform="translate(433.416623, 681.504586)"><g><path d="M 12.28125 0.515625 C 10.582031 0.515625 9.015625 0.289062 7.578125 -0.15625 C 6.140625 -0.601562 4.921875 -1.21875 3.921875 -2 C 2.929688 -2.78125 2.234375 -3.660156 1.828125 -4.640625 L 4.171875 -7.078125 L 4.6875 -7.078125 C 5.5625 -5.742188 6.617188 -4.738281 7.859375 -4.0625 C 9.097656 -3.382812 10.570312 -3.046875 12.28125 -3.046875 C 14.269531 -3.046875 15.78125 -3.429688 16.8125 -4.203125 C 17.84375 -4.984375 18.359375 -6.066406 18.359375 -7.453125 C 18.359375 -8.503906 18.046875 -9.375 17.421875 -10.0625 C 16.796875 -10.757812 15.78125 -11.28125 14.375 -11.625 L 9.84375 -12.75 C 7.414062 -13.332031 5.644531 -14.257812 4.53125 -15.53125 C 3.414062 -16.800781 2.859375 -18.367188 2.859375 -20.234375 C 2.859375 -21.703125 3.234375 -22.976562 3.984375 -24.0625 C 4.734375 -25.144531 5.8125 -25.976562 7.21875 -26.5625 C 8.625 -27.144531 10.296875 -27.4375 12.234375 -27.4375 C 14.703125 -27.4375 16.648438 -27.085938 18.078125 -26.390625 C 19.503906 -25.703125 20.613281 -24.742188 21.40625 -23.515625 L 19.171875 -21.3125 L 18.671875 -21.3125 C 17.816406 -22.300781 16.878906 -23.015625 15.859375 -23.453125 C 14.835938 -23.898438 13.628906 -24.125 12.234375 -24.125 C 10.460938 -24.125 9.101562 -23.804688 8.15625 -23.171875 C 7.207031 -22.535156 6.734375 -21.613281 6.734375 -20.40625 C 6.734375 -19.320312 7.066406 -18.441406 7.734375 -17.765625 C 8.398438 -17.097656 9.566406 -16.5625 11.234375 -16.15625 L 15.703125 -15.09375 C 18.046875 -14.539062 19.738281 -13.617188 20.78125 -12.328125 C 21.820312 -11.046875 22.34375 -9.4375 22.34375 -7.5 C 22.34375 -5.914062 21.96875 -4.519531 21.21875 -3.3125 C 20.46875 -2.113281 19.332031 -1.175781 17.8125 -0.5 C 16.300781 0.175781 14.457031 0.515625 12.28125 0.515625 Z M 12.28125 0.515625 "/></g></g></g><g fill="#ffffff" fill-opacity="1"><g transform="translate(458.315074, 681.504586)"><g><path d="M 15.453125 0.515625 C 12.910156 0.515625 10.695312 -0.0195312 8.8125 -1.09375 C 6.9375 -2.164062 5.488281 -3.75 4.46875 -5.84375 C 3.457031 -7.9375 2.953125 -10.472656 2.953125 -13.453125 C 2.953125 -16.429688 3.457031 -18.96875 4.46875 -21.0625 C 5.488281 -23.164062 6.9375 -24.753906 8.8125 -25.828125 C 10.695312 -26.898438 12.910156 -27.4375 15.453125 -27.4375 C 17.992188 -27.4375 20.203125 -26.898438 22.078125 -25.828125 C 23.960938 -24.753906 25.410156 -23.164062 26.421875 -21.0625 C 27.441406 -18.96875 27.953125 -16.429688 27.953125 -13.453125 C 27.953125 -10.472656 27.441406 -7.9375 26.421875 -5.84375 C 25.410156 -3.75 23.960938 -2.164062 22.078125 -1.09375 C 20.203125 -0.0195312 17.992188 0.515625 15.453125 0.515625 Z M 15.453125 -3.046875 C 18.140625 -3.046875 20.191406 -3.890625 21.609375 -5.578125 C 23.035156 -7.273438 23.75 -9.898438 23.75 -13.453125 C 23.75 -17.015625 23.035156 -19.640625 21.609375 -21.328125 C 20.191406 -23.023438 18.140625 -23.875 15.453125 -23.875 C 12.765625 -23.875 10.703125 -23.023438 9.265625 -21.328125 C 7.835938 -19.628906 7.125 -17.003906 7.125 -13.453125 C 7.125 -9.898438 7.835938 -7.273438 9.265625 -5.578125 C 10.703125 -3.890625 12.765625 -3.046875 15.453125 -3.046875 Z M 15.453125 -3.046875 "/></g></g></g><g fill="#ffffff" fill-opacity="1"><g transform="translate(489.218446, 681.504586)"><g><path d="M 15.453125 0.515625 C 13.078125 0.515625 10.941406 -0.0234375 9.046875 -1.109375 C 7.160156 -2.191406 5.671875 -3.785156 4.578125 -5.890625 C 3.492188 -8.003906 2.953125 -10.523438 2.953125 -13.453125 C 2.953125 -16.398438 3.492188 -18.925781 4.578125 -21.03125 C 5.671875 -23.132812 7.160156 -24.726562 9.046875 -25.8125 C 10.941406 -26.894531 13.078125 -27.4375 15.453125 -27.4375 C 18.304688 -27.4375 20.570312 -26.898438 22.25 -25.828125 C 23.9375 -24.753906 25.15625 -23.320312 25.90625 -21.53125 L 23.1875 -19.578125 L 22.703125 -19.578125 C 21.972656 -21.054688 21.035156 -22.140625 19.890625 -22.828125 C 18.742188 -23.523438 17.265625 -23.875 15.453125 -23.875 C 13.796875 -23.875 12.335938 -23.484375 11.078125 -22.703125 C 9.828125 -21.921875 8.851562 -20.75 8.15625 -19.1875 C 7.46875 -17.625 7.125 -15.710938 7.125 -13.453125 C 7.125 -11.203125 7.472656 -9.300781 8.171875 -7.75 C 8.878906 -6.195312 9.851562 -5.023438 11.09375 -4.234375 C 12.34375 -3.441406 13.796875 -3.046875 15.453125 -3.046875 C 17.328125 -3.046875 18.878906 -3.46875 20.109375 -4.3125 C 21.335938 -5.164062 22.300781 -6.503906 23 -8.328125 L 23.515625 -8.328125 L 26.125 -6.78125 C 25.425781 -4.519531 24.175781 -2.738281 22.375 -1.4375 C 20.570312 -0.132812 18.265625 0.515625 15.453125 0.515625 Z M 15.453125 0.515625 "/></g></g></g><g fill="#ffffff" fill-opacity="1"><g transform="translate(516.972908, 681.504586)"><g><path d="M 6.6875 -32.125 C 5.84375 -32.125 5.15625 -32.390625 4.625 -32.921875 C 4.09375 -33.453125 3.828125 -34.125 3.828125 -34.9375 C 3.828125 -35.75 4.09375 -36.421875 4.625 -36.953125 C 5.15625 -37.484375 5.84375 -37.75 6.6875 -37.75 C 7.53125 -37.75 8.21875 -37.484375 8.75 -36.953125 C 9.28125 -36.421875 9.546875 -35.75 9.546875 -34.9375 C 9.546875 -34.125 9.28125 -33.453125 8.75 -32.921875 C 8.21875 -32.390625 7.53125 -32.125 6.6875 -32.125 Z M 4.6875 0 L 4.6875 -26.921875 L 8.671875 -26.921875 L 8.671875 0 Z M 4.6875 0 "/></g></g></g><g fill="#ffffff" fill-opacity="1"><g transform="translate(530.325324, 681.504586)"><g><path d="M 11.109375 0.515625 C 8.453125 0.515625 6.378906 -0.175781 4.890625 -1.5625 C 3.398438 -2.945312 2.65625 -4.925781 2.65625 -7.5 C 2.65625 -9.09375 2.984375 -10.4375 3.640625 -11.53125 C 4.304688 -12.632812 5.332031 -13.53125 6.71875 -14.21875 C 8.101562 -14.914062 9.910156 -15.453125 12.140625 -15.828125 C 14.085938 -16.148438 15.566406 -16.515625 16.578125 -16.921875 C 17.597656 -17.328125 18.285156 -17.78125 18.640625 -18.28125 C 18.992188 -18.789062 19.171875 -19.425781 19.171875 -20.1875 C 19.171875 -21.40625 18.75 -22.335938 17.90625 -22.984375 C 17.070312 -23.640625 15.726562 -23.96875 13.875 -23.96875 C 12.125 -23.96875 10.625 -23.628906 9.375 -22.953125 C 8.132812 -22.285156 6.992188 -21.285156 5.953125 -19.953125 L 5.46875 -19.953125 L 3.515625 -22.703125 C 4.648438 -24.148438 6.097656 -25.300781 7.859375 -26.15625 C 9.617188 -27.007812 11.625 -27.4375 13.875 -27.4375 C 17.039062 -27.4375 19.375 -26.738281 20.875 -25.34375 C 22.382812 -23.957031 23.140625 -22.035156 23.140625 -19.578125 L 23.140625 -5.296875 C 23.140625 -3.796875 23.773438 -3.046875 25.046875 -3.046875 C 25.472656 -3.046875 25.878906 -3.117188 26.265625 -3.265625 L 26.609375 -3.171875 L 27.078125 -0.421875 C 26.785156 -0.222656 26.398438 -0.0703125 25.921875 0.03125 C 25.441406 0.144531 24.945312 0.203125 24.4375 0.203125 C 22.957031 0.203125 21.835938 -0.125 21.078125 -0.78125 C 20.328125 -1.4375 19.84375 -2.394531 19.625 -3.65625 L 19.109375 -3.71875 C 18.347656 -2.300781 17.316406 -1.238281 16.015625 -0.53125 C 14.710938 0.164062 13.078125 0.515625 11.109375 0.515625 Z M 11.984375 -2.65625 C 13.484375 -2.65625 14.78125 -3 15.875 -3.6875 C 16.976562 -4.382812 17.820312 -5.359375 18.40625 -6.609375 C 18.988281 -7.867188 19.28125 -9.320312 19.28125 -10.96875 L 19.28125 -14.375 L 18.828125 -14.484375 C 18.222656 -14.054688 17.488281 -13.695312 16.625 -13.40625 C 15.757812 -13.125 14.554688 -12.867188 13.015625 -12.640625 C 11.453125 -12.429688 10.207031 -12.109375 9.28125 -11.671875 C 8.363281 -11.234375 7.707031 -10.675781 7.3125 -10 C 6.925781 -9.320312 6.734375 -8.488281 6.734375 -7.5 C 6.734375 -5.914062 7.195312 -4.710938 8.125 -3.890625 C 9.050781 -3.066406 10.335938 -2.65625 11.984375 -2.65625 Z M 11.984375 -2.65625 "/></g></g></g><g fill="#ffffff" fill-opacity="1"><g transform="translate(558.177404, 681.504586)"><g><path d="M 18.21875 -4.265625 L 19.484375 -1.421875 C 18.847656 -0.785156 18.015625 -0.304688 16.984375 0.015625 C 15.953125 0.347656 14.832031 0.515625 13.625 0.515625 C 8.476562 0.515625 5.90625 -2.085938 5.90625 -7.296875 L 5.90625 -23.6875 L 1.21875 -23.6875 L 1.21875 -26.953125 L 5.90625 -26.953125 L 5.90625 -32.640625 L 9.890625 -33.296875 L 9.890625 -26.953125 L 18.5625 -26.953125 L 18.5625 -23.6875 L 9.890625 -23.6875 L 9.890625 -7.6875 C 9.890625 -4.59375 11.234375 -3.046875 13.921875 -3.046875 C 15.378906 -3.046875 16.640625 -3.453125 17.703125 -4.265625 Z M 18.21875 -4.265625 "/></g></g></g><g fill="#ffffff" fill-opacity="1"><g transform="translate(578.682012, 681.504586)"><g><path d="M 6.6875 -32.125 C 5.84375 -32.125 5.15625 -32.390625 4.625 -32.921875 C 4.09375 -33.453125 3.828125 -34.125 3.828125 -34.9375 C 3.828125 -35.75 4.09375 -36.421875 4.625 -36.953125 C 5.15625 -37.484375 5.84375 -37.75 6.6875 -37.75 C 7.53125 -37.75 8.21875 -37.484375 8.75 -36.953125 C 9.28125 -36.421875 9.546875 -35.75 9.546875 -34.9375 C 9.546875 -34.125 9.28125 -33.453125 8.75 -32.921875 C 8.21875 -32.390625 7.53125 -32.125 6.6875 -32.125 Z M 4.6875 0 L 4.6875 -26.921875 L 8.671875 -26.921875 L 8.671875 0 Z M 4.6875 0 "/></g></g></g><g fill="#ffffff" fill-opacity="1"><g transform="translate(592.034428, 681.504586)"><g><path d="M 15.453125 0.515625 C 12.910156 0.515625 10.695312 -0.0195312 8.8125 -1.09375 C 6.9375 -2.164062 5.488281 -3.75 4.46875 -5.84375 C 3.457031 -7.9375 2.953125 -10.472656 2.953125 -13.453125 C 2.953125 -16.429688 3.457031 -18.96875 4.46875 -21.0625 C 5.488281 -23.164062 6.9375 -24.753906 8.8125 -25.828125 C 10.695312 -26.898438 12.910156 -27.4375 15.453125 -27.4375 C 17.992188 -27.4375 20.203125 -26.898438 22.078125 -25.828125 C 23.960938 -24.753906 25.410156 -23.164062 26.421875 -21.0625 C 27.441406 -18.96875 27.953125 -16.429688 27.953125 -13.453125 C 27.953125 -10.472656 27.441406 -7.9375 26.421875 -5.84375 C 25.410156 -3.75 23.960938 -2.164062 22.078125 -1.09375 C 20.203125 -0.0195312 17.992188 0.515625 15.453125 0.515625 Z M 15.453125 -3.046875 C 18.140625 -3.046875 20.191406 -3.890625 21.609375 -5.578125 C 23.035156 -7.273438 23.75 -9.898438 23.75 -13.453125 C 23.75 -17.015625 23.035156 -19.640625 21.609375 -21.328125 C 20.191406 -23.023438 18.140625 -23.875 15.453125 -23.875 C 12.765625 -23.875 10.703125 -23.023438 9.265625 -21.328125 C 7.835938 -19.628906 7.125 -17.003906 7.125 -13.453125 C 7.125 -9.898438 7.835938 -7.273438 9.265625 -5.578125 C 10.703125 -3.890625 12.765625 -3.046875 15.453125 -3.046875 Z M 15.453125 -3.046875 "/></g></g></g><g fill="#ffffff" fill-opacity="1"><g transform="translate(622.937778, 681.504586)"><g><path d="M 4.6875 0 L 4.6875 -26.921875 L 8.46875 -26.921875 L 8.46875 -22.703125 L 8.984375 -22.578125 C 9.878906 -24.160156 11.019531 -25.363281 12.40625 -26.1875 C 13.800781 -27.019531 15.5 -27.4375 17.5 -27.4375 C 20.738281 -27.4375 23.085938 -26.609375 24.546875 -24.953125 C 26.003906 -23.304688 26.734375 -20.765625 26.734375 -17.328125 L 26.734375 0 L 22.75 0 L 22.75 -17.234375 C 22.75 -18.859375 22.539062 -20.160156 22.125 -21.140625 C 21.71875 -22.128906 21.078125 -22.847656 20.203125 -23.296875 C 19.328125 -23.742188 18.179688 -23.96875 16.765625 -23.96875 C 14.347656 -23.96875 12.394531 -23.164062 10.90625 -21.5625 C 9.414062 -19.96875 8.671875 -17.382812 8.671875 -13.8125 L 8.671875 0 Z M 4.6875 0 "/></g></g></g><g fill="#ffffff" fill-opacity="1"><g transform="translate(653.941381, 681.504586)"><g/></g></g></svg>